G04 MADE WITH FRITZING*
G04 WWW.FRITZING.ORG*
G04 DOUBLE SIDED*
G04 HOLES PLATED*
G04 CONTOUR ON CENTER OF CONTOUR VECTOR*
%ASAXBY*%
%FSLAX23Y23*%
%MOIN*%
%OFA0B0*%
%SFA1.0B1.0*%
%ADD10C,0.075833*%
%ADD11C,0.078000*%
%ADD12C,0.074000*%
%ADD13C,0.067000*%
%ADD14C,0.075000*%
%ADD15C,0.039370*%
%ADD16R,0.074000X0.074000*%
%ADD17R,0.067000X0.067000*%
%ADD18R,0.075000X0.075000*%
%ADD19C,0.024000*%
%LNCOPPER1*%
G90*
G70*
G54D10*
X715Y1986D03*
X815Y1986D03*
X922Y1986D03*
X1022Y1986D03*
X1122Y1986D03*
X1222Y1986D03*
X1322Y1986D03*
X1422Y1986D03*
X1522Y1986D03*
X1622Y1986D03*
X1792Y1986D03*
X1892Y1986D03*
X1992Y1986D03*
X2092Y1986D03*
X2192Y1986D03*
X2292Y1986D03*
X2392Y1986D03*
X2492Y1986D03*
X1092Y86D03*
X1192Y86D03*
X1292Y86D03*
X1392Y86D03*
X1492Y86D03*
X1592Y86D03*
X1692Y86D03*
X1792Y86D03*
X1992Y86D03*
X2092Y86D03*
X2192Y86D03*
X2292Y86D03*
X2392Y86D03*
X2492Y86D03*
G54D11*
X2413Y490D03*
X2413Y390D03*
X2413Y290D03*
X2098Y490D03*
X2098Y390D03*
X2098Y290D03*
G54D12*
X586Y844D03*
X486Y844D03*
X386Y844D03*
X586Y944D03*
X486Y944D03*
X386Y944D03*
X1412Y1435D03*
X1312Y1435D03*
X1212Y1435D03*
X1412Y1535D03*
X1312Y1535D03*
X1212Y1535D03*
X1471Y372D03*
X1371Y372D03*
X1271Y372D03*
X1471Y472D03*
X1371Y472D03*
X1271Y472D03*
G54D13*
X957Y962D03*
X1357Y962D03*
X425Y1317D03*
X825Y1317D03*
X425Y1179D03*
X825Y1179D03*
X1350Y1120D03*
X950Y1120D03*
G54D14*
X1075Y766D03*
X975Y766D03*
X981Y569D03*
X981Y269D03*
X881Y569D03*
X881Y269D03*
X781Y569D03*
X781Y269D03*
X681Y569D03*
X681Y269D03*
X581Y569D03*
X581Y269D03*
X481Y569D03*
X481Y269D03*
X381Y569D03*
X381Y269D03*
G54D15*
X1527Y1770D03*
G54D11*
X2256Y490D03*
X2256Y390D03*
X2256Y290D03*
G54D15*
X2039Y1041D03*
G54D14*
X1429Y785D03*
X1829Y785D03*
X1468Y667D03*
X1868Y667D03*
G54D16*
X586Y944D03*
X1412Y1535D03*
X1471Y472D03*
G54D17*
X957Y962D03*
X425Y1317D03*
X425Y1179D03*
X1350Y1120D03*
G54D18*
X1075Y766D03*
X981Y569D03*
X1429Y785D03*
X1468Y667D03*
G54D19*
X1492Y269D02*
X1006Y269D01*
D02*
X1492Y111D02*
X1492Y269D01*
D02*
X1523Y1961D02*
X1527Y1789D01*
D02*
X1035Y1238D02*
X964Y1140D01*
D02*
X1567Y1238D02*
X1035Y1238D01*
D02*
X1438Y1535D02*
X1567Y1535D01*
D02*
X1567Y1535D02*
X1567Y1238D01*
D02*
X819Y924D02*
X937Y1100D01*
D02*
X286Y668D02*
X819Y668D01*
D02*
X287Y175D02*
X286Y668D01*
D02*
X976Y175D02*
X287Y175D01*
D02*
X819Y668D02*
X819Y924D01*
D02*
X980Y244D02*
X976Y175D01*
D02*
X1356Y987D02*
X1351Y1096D01*
D02*
X972Y790D02*
X959Y938D01*
D02*
X483Y1060D02*
X485Y970D01*
D02*
X622Y1060D02*
X483Y1060D01*
D02*
X622Y1318D02*
X622Y1060D01*
D02*
X449Y1317D02*
X622Y1318D01*
D02*
X386Y1179D02*
X386Y970D01*
D02*
X401Y1179D02*
X386Y1179D01*
D02*
X2414Y196D02*
X2413Y264D01*
D02*
X2092Y196D02*
X2414Y196D01*
D02*
X2092Y111D02*
X2092Y196D01*
D02*
X1350Y668D02*
X1356Y938D01*
D02*
X1272Y568D02*
X1350Y668D01*
D02*
X1142Y568D02*
X1272Y568D01*
D02*
X1142Y368D02*
X1142Y568D01*
D02*
X1246Y371D02*
X1142Y368D01*
D02*
X2058Y1888D02*
X2040Y1060D01*
D02*
X2084Y1963D02*
X2058Y1888D01*
D02*
X1868Y490D02*
X2073Y490D01*
D02*
X1868Y642D02*
X1868Y490D01*
D02*
X1860Y691D02*
X1837Y762D01*
D02*
X1469Y642D02*
X1471Y497D01*
D02*
X1706Y668D02*
X1493Y667D01*
D02*
X1881Y1238D02*
X1706Y865D01*
D02*
X1706Y865D02*
X1706Y668D01*
D02*
X1892Y1961D02*
X1881Y1238D01*
D02*
X1606Y785D02*
X1454Y785D01*
D02*
X1783Y1238D02*
X1606Y865D01*
D02*
X1606Y865D02*
X1606Y785D01*
D02*
X1792Y1961D02*
X1783Y1238D01*
D02*
X981Y368D02*
X981Y544D01*
D02*
X1142Y368D02*
X981Y368D01*
D02*
X2178Y293D02*
X2230Y291D01*
D02*
X2178Y1849D02*
X2178Y293D01*
D02*
X2392Y1961D02*
X2392Y1849D01*
D02*
X2392Y1849D02*
X2178Y1849D01*
G04 End of Copper1*
M02*