G04 MADE WITH FRITZING*
G04 WWW.FRITZING.ORG*
G04 DOUBLE SIDED*
G04 HOLES PLATED*
G04 CONTOUR ON CENTER OF CONTOUR VECTOR*
%ASAXBY*%
%FSLAX23Y23*%
%MOIN*%
%OFA0B0*%
%SFA1.0B1.0*%
%ADD10R,0.595200X0.354200X0.579200X0.338200*%
%ADD11C,0.008000*%
%ADD12R,0.173200X0.063000X0.157200X0.047000*%
%ADD13C,0.010000*%
%ADD14C,0.005000*%
%ADD15C,0.020000*%
%LNSILK1*%
G90*
G70*
G54D11*
X192Y1062D02*
X779Y1062D01*
X779Y716D01*
X192Y716D01*
X192Y1062D01*
D02*
X403Y1062D02*
X568Y1062D01*
X568Y1007D01*
X403Y1007D01*
X403Y1062D01*
D02*
X1019Y1653D02*
X1606Y1653D01*
X1606Y1307D01*
X1019Y1307D01*
X1019Y1653D01*
D02*
X1230Y1653D02*
X1395Y1653D01*
X1395Y1598D01*
X1230Y1598D01*
X1230Y1653D01*
D02*
X1078Y590D02*
X1665Y590D01*
X1665Y244D01*
X1078Y244D01*
X1078Y590D01*
D02*
X1289Y590D02*
X1454Y590D01*
X1454Y535D01*
X1289Y535D01*
X1289Y590D01*
D02*
G54D13*
X2363Y540D02*
X2363Y240D01*
D02*
X2363Y240D02*
X2463Y240D01*
D02*
X2463Y240D02*
X2463Y540D01*
D02*
X2463Y540D02*
X2363Y540D01*
G54D14*
D02*
X2363Y505D02*
X2398Y540D01*
G54D13*
D02*
X2048Y540D02*
X2048Y240D01*
D02*
X2048Y240D02*
X2148Y240D01*
D02*
X2148Y240D02*
X2148Y540D01*
D02*
X2148Y540D02*
X2048Y540D01*
G54D14*
D02*
X2048Y505D02*
X2083Y540D01*
G54D15*
D02*
X1057Y1012D02*
X1257Y1012D01*
D02*
X1257Y1012D02*
X1257Y912D01*
D02*
X1257Y912D02*
X1057Y912D01*
D02*
X1057Y912D02*
X1057Y1012D01*
D02*
X525Y1367D02*
X725Y1367D01*
D02*
X725Y1367D02*
X725Y1267D01*
D02*
X725Y1267D02*
X525Y1267D01*
D02*
X525Y1267D02*
X525Y1367D01*
D02*
X525Y1229D02*
X725Y1229D01*
D02*
X725Y1229D02*
X725Y1129D01*
D02*
X725Y1129D02*
X525Y1129D01*
D02*
X525Y1129D02*
X525Y1229D01*
D02*
X1250Y1070D02*
X1050Y1070D01*
D02*
X1050Y1070D02*
X1050Y1170D01*
D02*
X1050Y1170D02*
X1250Y1170D01*
D02*
X1250Y1170D02*
X1250Y1070D01*
G54D13*
D02*
X1031Y619D02*
X331Y619D01*
D02*
X331Y619D02*
X331Y219D01*
D02*
X331Y219D02*
X1031Y219D01*
D02*
X1031Y619D02*
X1031Y469D01*
D02*
X1031Y369D02*
X1031Y219D01*
D02*
X2206Y540D02*
X2206Y240D01*
D02*
X2206Y240D02*
X2306Y240D01*
D02*
X2306Y240D02*
X2306Y540D01*
D02*
X2306Y540D02*
X2206Y540D01*
G54D14*
D02*
X2206Y505D02*
X2241Y540D01*
G54D13*
D02*
X1538Y818D02*
X1738Y818D01*
D02*
X1738Y818D02*
X1738Y752D01*
D02*
X1738Y752D02*
X1538Y752D01*
D02*
X1538Y752D02*
X1538Y818D01*
D02*
X1578Y700D02*
X1778Y700D01*
D02*
X1778Y700D02*
X1778Y634D01*
D02*
X1778Y634D02*
X1578Y634D01*
D02*
X1578Y634D02*
X1578Y700D01*
G36*
X11Y2096D02*
X11Y2095D01*
X8Y2095D01*
X8Y2094D01*
X7Y2094D01*
X7Y2093D01*
X6Y2093D01*
X6Y2084D01*
X2546Y2084D01*
X2546Y2083D01*
X2547Y2083D01*
X2547Y2082D01*
X2548Y2082D01*
X2548Y2081D01*
X2549Y2081D01*
X2549Y2080D01*
X2550Y2080D01*
X2550Y2079D01*
X2551Y2079D01*
X2551Y2078D01*
X2552Y2078D01*
X2552Y2077D01*
X2553Y2077D01*
X2553Y2076D01*
X2554Y2076D01*
X2554Y2075D01*
X2555Y2075D01*
X2555Y2074D01*
X2556Y2074D01*
X2556Y2073D01*
X2557Y2073D01*
X2557Y2072D01*
X2558Y2072D01*
X2558Y2071D01*
X2559Y2071D01*
X2559Y2070D01*
X2560Y2070D01*
X2560Y2069D01*
X2561Y2069D01*
X2561Y2068D01*
X2562Y2068D01*
X2562Y2067D01*
X2563Y2067D01*
X2563Y2066D01*
X2564Y2066D01*
X2564Y2065D01*
X2565Y2065D01*
X2565Y2064D01*
X2566Y2064D01*
X2566Y2063D01*
X2567Y2063D01*
X2567Y2062D01*
X2568Y2062D01*
X2568Y2061D01*
X2569Y2061D01*
X2569Y2060D01*
X2570Y2060D01*
X2570Y2059D01*
X2571Y2059D01*
X2571Y2058D01*
X2572Y2058D01*
X2572Y2057D01*
X2573Y2057D01*
X2573Y2056D01*
X2574Y2056D01*
X2574Y2055D01*
X2575Y2055D01*
X2575Y2054D01*
X2576Y2054D01*
X2576Y2053D01*
X2577Y2053D01*
X2577Y2052D01*
X2578Y2052D01*
X2578Y2051D01*
X2579Y2051D01*
X2579Y2050D01*
X2580Y2050D01*
X2580Y2049D01*
X2581Y2049D01*
X2581Y2048D01*
X2582Y2048D01*
X2582Y2047D01*
X2583Y2047D01*
X2583Y2046D01*
X2584Y2046D01*
X2584Y2045D01*
X2585Y2045D01*
X2585Y2044D01*
X2586Y2044D01*
X2586Y2043D01*
X2587Y2043D01*
X2587Y2042D01*
X2588Y2042D01*
X2588Y2041D01*
X2589Y2041D01*
X2589Y2040D01*
X2590Y2040D01*
X2590Y2039D01*
X2591Y2039D01*
X2591Y1593D01*
X2592Y1593D01*
X2592Y1592D01*
X2593Y1592D01*
X2593Y1591D01*
X2594Y1591D01*
X2594Y1590D01*
X2595Y1590D01*
X2595Y1589D01*
X2596Y1589D01*
X2596Y1588D01*
X2597Y1588D01*
X2597Y1587D01*
X2599Y1587D01*
X2599Y1586D01*
X2600Y1586D01*
X2600Y1585D01*
X2601Y1585D01*
X2601Y1584D01*
X2602Y1584D01*
X2602Y1583D01*
X2603Y1583D01*
X2603Y1582D01*
X2604Y1582D01*
X2604Y1581D01*
X2606Y1581D01*
X2606Y1580D01*
X2607Y1580D01*
X2607Y1579D01*
X2608Y1579D01*
X2608Y1578D01*
X2609Y1578D01*
X2609Y1577D01*
X2610Y1577D01*
X2610Y1576D01*
X2612Y1576D01*
X2612Y1575D01*
X2613Y1575D01*
X2613Y1574D01*
X2614Y1574D01*
X2614Y1573D01*
X2615Y1573D01*
X2615Y1572D01*
X2616Y1572D01*
X2616Y1571D01*
X2617Y1571D01*
X2617Y1570D01*
X2619Y1570D01*
X2619Y1569D01*
X2620Y1569D01*
X2620Y1568D01*
X2621Y1568D01*
X2621Y1567D01*
X2622Y1567D01*
X2622Y1566D01*
X2623Y1566D01*
X2623Y1565D01*
X2625Y1565D01*
X2625Y1564D01*
X2626Y1564D01*
X2626Y1563D01*
X2627Y1563D01*
X2627Y1562D01*
X2628Y1562D01*
X2628Y1561D01*
X2629Y1561D01*
X2629Y1560D01*
X2630Y1560D01*
X2630Y1559D01*
X2632Y1559D01*
X2632Y1558D01*
X2633Y1558D01*
X2633Y1557D01*
X2634Y1557D01*
X2634Y1556D01*
X2635Y1556D01*
X2635Y1555D01*
X2636Y1555D01*
X2636Y1554D01*
X2638Y1554D01*
X2638Y1553D01*
X2639Y1553D01*
X2639Y1552D01*
X2640Y1552D01*
X2640Y1551D01*
X2641Y1551D01*
X2641Y1550D01*
X2642Y1550D01*
X2642Y1549D01*
X2644Y1549D01*
X2644Y1548D01*
X2645Y1548D01*
X2645Y1547D01*
X2646Y1547D01*
X2646Y1546D01*
X2647Y1546D01*
X2647Y1545D01*
X2648Y1545D01*
X2648Y1544D01*
X2649Y1544D01*
X2649Y1543D01*
X2651Y1543D01*
X2651Y1542D01*
X2652Y1542D01*
X2652Y1541D01*
X2653Y1541D01*
X2653Y1540D01*
X2654Y1540D01*
X2654Y1539D01*
X2655Y1539D01*
X2655Y1538D01*
X2657Y1538D01*
X2657Y1537D01*
X2658Y1537D01*
X2658Y1536D01*
X2659Y1536D01*
X2659Y1535D01*
X2660Y1535D01*
X2660Y1534D01*
X2661Y1534D01*
X2661Y1533D01*
X2662Y1533D01*
X2662Y1532D01*
X2664Y1532D01*
X2664Y1531D01*
X2665Y1531D01*
X2665Y1530D01*
X2666Y1530D01*
X2666Y1529D01*
X2667Y1529D01*
X2667Y1528D01*
X2668Y1528D01*
X2668Y1527D01*
X2670Y1527D01*
X2670Y1526D01*
X2671Y1526D01*
X2671Y1525D01*
X2672Y1525D01*
X2672Y1524D01*
X2673Y1524D01*
X2673Y1523D01*
X2674Y1523D01*
X2674Y1522D01*
X2675Y1522D01*
X2675Y1521D01*
X2677Y1521D01*
X2677Y1520D01*
X2678Y1520D01*
X2678Y1519D01*
X2679Y1519D01*
X2679Y1518D01*
X2680Y1518D01*
X2680Y1517D01*
X2681Y1517D01*
X2681Y1516D01*
X2683Y1516D01*
X2683Y1515D01*
X2684Y1515D01*
X2684Y1514D01*
X2685Y1514D01*
X2685Y1513D01*
X2686Y1513D01*
X2686Y1512D01*
X2687Y1512D01*
X2687Y1511D01*
X2688Y1511D01*
X2688Y1510D01*
X2690Y1510D01*
X2690Y1509D01*
X2691Y1509D01*
X2691Y1508D01*
X2692Y1508D01*
X2692Y1507D01*
X2693Y1507D01*
X2693Y1506D01*
X2694Y1506D01*
X2694Y1505D01*
X2696Y1505D01*
X2696Y1504D01*
X2697Y1504D01*
X2697Y1503D01*
X2698Y1503D01*
X2698Y1502D01*
X2699Y1502D01*
X2699Y1501D01*
X2700Y1501D01*
X2700Y1500D01*
X2702Y1500D01*
X2702Y1499D01*
X2703Y1499D01*
X2703Y1498D01*
X2704Y1498D01*
X2704Y1497D01*
X2705Y1497D01*
X2705Y1496D01*
X2706Y1496D01*
X2706Y1495D01*
X2707Y1495D01*
X2707Y1494D01*
X2708Y1494D01*
X2708Y211D01*
X2707Y211D01*
X2707Y210D01*
X2706Y210D01*
X2706Y209D01*
X2705Y209D01*
X2705Y208D01*
X2704Y208D01*
X2704Y207D01*
X2703Y207D01*
X2703Y206D01*
X2702Y206D01*
X2702Y205D01*
X2701Y205D01*
X2701Y204D01*
X2700Y204D01*
X2700Y203D01*
X2699Y203D01*
X2699Y202D01*
X2698Y202D01*
X2698Y201D01*
X2697Y201D01*
X2697Y200D01*
X2696Y200D01*
X2696Y199D01*
X2695Y199D01*
X2695Y198D01*
X2694Y198D01*
X2694Y197D01*
X2693Y197D01*
X2693Y196D01*
X2692Y196D01*
X2692Y195D01*
X2691Y195D01*
X2691Y194D01*
X2690Y194D01*
X2690Y193D01*
X2689Y193D01*
X2689Y192D01*
X2688Y192D01*
X2688Y191D01*
X2687Y191D01*
X2687Y190D01*
X2686Y190D01*
X2686Y189D01*
X2685Y189D01*
X2685Y188D01*
X2684Y188D01*
X2684Y187D01*
X2683Y187D01*
X2683Y186D01*
X2682Y186D01*
X2682Y185D01*
X2681Y185D01*
X2681Y184D01*
X2680Y184D01*
X2680Y183D01*
X2679Y183D01*
X2679Y182D01*
X2678Y182D01*
X2678Y181D01*
X2677Y181D01*
X2677Y180D01*
X2676Y180D01*
X2676Y179D01*
X2675Y179D01*
X2675Y178D01*
X2674Y178D01*
X2674Y177D01*
X2673Y177D01*
X2673Y176D01*
X2672Y176D01*
X2672Y175D01*
X2671Y175D01*
X2671Y174D01*
X2670Y174D01*
X2670Y173D01*
X2669Y173D01*
X2669Y172D01*
X2668Y172D01*
X2668Y171D01*
X2667Y171D01*
X2667Y170D01*
X2666Y170D01*
X2666Y169D01*
X2665Y169D01*
X2665Y168D01*
X2664Y168D01*
X2664Y167D01*
X2663Y167D01*
X2663Y166D01*
X2662Y166D01*
X2662Y165D01*
X2661Y165D01*
X2661Y164D01*
X2660Y164D01*
X2660Y163D01*
X2659Y163D01*
X2659Y162D01*
X2658Y162D01*
X2658Y161D01*
X2657Y161D01*
X2657Y160D01*
X2656Y160D01*
X2656Y159D01*
X2655Y159D01*
X2655Y158D01*
X2654Y158D01*
X2654Y157D01*
X2653Y157D01*
X2653Y156D01*
X2652Y156D01*
X2652Y155D01*
X2651Y155D01*
X2651Y154D01*
X2650Y154D01*
X2650Y153D01*
X2649Y153D01*
X2649Y152D01*
X2648Y152D01*
X2648Y151D01*
X2647Y151D01*
X2647Y150D01*
X2646Y150D01*
X2646Y149D01*
X2645Y149D01*
X2645Y148D01*
X2644Y148D01*
X2644Y147D01*
X2643Y147D01*
X2643Y146D01*
X2642Y146D01*
X2642Y145D01*
X2641Y145D01*
X2641Y144D01*
X2640Y144D01*
X2640Y143D01*
X2639Y143D01*
X2639Y142D01*
X2638Y142D01*
X2638Y141D01*
X2637Y141D01*
X2637Y140D01*
X2636Y140D01*
X2636Y139D01*
X2635Y139D01*
X2635Y138D01*
X2634Y138D01*
X2634Y137D01*
X2633Y137D01*
X2633Y136D01*
X2632Y136D01*
X2632Y135D01*
X2631Y135D01*
X2631Y134D01*
X2630Y134D01*
X2630Y133D01*
X2629Y133D01*
X2629Y132D01*
X2628Y132D01*
X2628Y131D01*
X2627Y131D01*
X2627Y130D01*
X2626Y130D01*
X2626Y129D01*
X2625Y129D01*
X2625Y128D01*
X2624Y128D01*
X2624Y127D01*
X2623Y127D01*
X2623Y126D01*
X2622Y126D01*
X2622Y125D01*
X2621Y125D01*
X2621Y124D01*
X2620Y124D01*
X2620Y123D01*
X2619Y123D01*
X2619Y122D01*
X2618Y122D01*
X2618Y121D01*
X2617Y121D01*
X2617Y120D01*
X2616Y120D01*
X2616Y119D01*
X2615Y119D01*
X2615Y118D01*
X2614Y118D01*
X2614Y117D01*
X2613Y117D01*
X2613Y116D01*
X2612Y116D01*
X2612Y115D01*
X2611Y115D01*
X2611Y114D01*
X2610Y114D01*
X2610Y113D01*
X2609Y113D01*
X2609Y112D01*
X2608Y112D01*
X2608Y111D01*
X2607Y111D01*
X2607Y110D01*
X2606Y110D01*
X2606Y109D01*
X2605Y109D01*
X2605Y108D01*
X2604Y108D01*
X2604Y107D01*
X2603Y107D01*
X2603Y106D01*
X2602Y106D01*
X2602Y105D01*
X2601Y105D01*
X2601Y104D01*
X2600Y104D01*
X2600Y103D01*
X2599Y103D01*
X2599Y102D01*
X2598Y102D01*
X2598Y101D01*
X2597Y101D01*
X2597Y100D01*
X2596Y100D01*
X2596Y99D01*
X2595Y99D01*
X2595Y98D01*
X2594Y98D01*
X2594Y97D01*
X2593Y97D01*
X2593Y96D01*
X2592Y96D01*
X2592Y94D01*
X2591Y94D01*
X2591Y17D01*
X2602Y17D01*
X2602Y90D01*
X2603Y90D01*
X2603Y91D01*
X2604Y91D01*
X2604Y92D01*
X2605Y92D01*
X2605Y93D01*
X2606Y93D01*
X2606Y94D01*
X2607Y94D01*
X2607Y95D01*
X2608Y95D01*
X2608Y96D01*
X2609Y96D01*
X2609Y97D01*
X2610Y97D01*
X2610Y98D01*
X2611Y98D01*
X2611Y99D01*
X2612Y99D01*
X2612Y100D01*
X2613Y100D01*
X2613Y101D01*
X2614Y101D01*
X2614Y102D01*
X2615Y102D01*
X2615Y103D01*
X2616Y103D01*
X2616Y104D01*
X2617Y104D01*
X2617Y105D01*
X2618Y105D01*
X2618Y106D01*
X2619Y106D01*
X2619Y107D01*
X2620Y107D01*
X2620Y108D01*
X2621Y108D01*
X2621Y109D01*
X2622Y109D01*
X2622Y110D01*
X2623Y110D01*
X2623Y111D01*
X2624Y111D01*
X2624Y112D01*
X2625Y112D01*
X2625Y113D01*
X2626Y113D01*
X2626Y114D01*
X2627Y114D01*
X2627Y115D01*
X2628Y115D01*
X2628Y116D01*
X2629Y116D01*
X2629Y117D01*
X2630Y117D01*
X2630Y118D01*
X2631Y118D01*
X2631Y119D01*
X2632Y119D01*
X2632Y120D01*
X2633Y120D01*
X2633Y121D01*
X2634Y121D01*
X2634Y122D01*
X2635Y122D01*
X2635Y123D01*
X2636Y123D01*
X2636Y124D01*
X2637Y124D01*
X2637Y125D01*
X2638Y125D01*
X2638Y126D01*
X2639Y126D01*
X2639Y127D01*
X2640Y127D01*
X2640Y128D01*
X2641Y128D01*
X2641Y129D01*
X2642Y129D01*
X2642Y130D01*
X2643Y130D01*
X2643Y131D01*
X2644Y131D01*
X2644Y132D01*
X2645Y132D01*
X2645Y133D01*
X2646Y133D01*
X2646Y134D01*
X2647Y134D01*
X2647Y135D01*
X2648Y135D01*
X2648Y136D01*
X2649Y136D01*
X2649Y137D01*
X2650Y137D01*
X2650Y138D01*
X2651Y138D01*
X2651Y139D01*
X2652Y139D01*
X2652Y140D01*
X2653Y140D01*
X2653Y141D01*
X2654Y141D01*
X2654Y142D01*
X2655Y142D01*
X2655Y143D01*
X2656Y143D01*
X2656Y144D01*
X2657Y144D01*
X2657Y145D01*
X2658Y145D01*
X2658Y146D01*
X2659Y146D01*
X2659Y147D01*
X2660Y147D01*
X2660Y148D01*
X2661Y148D01*
X2661Y149D01*
X2662Y149D01*
X2662Y150D01*
X2663Y150D01*
X2663Y151D01*
X2664Y151D01*
X2664Y152D01*
X2665Y152D01*
X2665Y153D01*
X2666Y153D01*
X2666Y154D01*
X2667Y154D01*
X2667Y155D01*
X2668Y155D01*
X2668Y156D01*
X2669Y156D01*
X2669Y157D01*
X2670Y157D01*
X2670Y158D01*
X2671Y158D01*
X2671Y159D01*
X2672Y159D01*
X2672Y160D01*
X2673Y160D01*
X2673Y161D01*
X2674Y161D01*
X2674Y162D01*
X2675Y162D01*
X2675Y163D01*
X2676Y163D01*
X2676Y164D01*
X2677Y164D01*
X2677Y165D01*
X2678Y165D01*
X2678Y166D01*
X2679Y166D01*
X2679Y167D01*
X2680Y167D01*
X2680Y168D01*
X2681Y168D01*
X2681Y169D01*
X2682Y169D01*
X2682Y170D01*
X2683Y170D01*
X2683Y171D01*
X2684Y171D01*
X2684Y172D01*
X2685Y172D01*
X2685Y173D01*
X2686Y173D01*
X2686Y174D01*
X2687Y174D01*
X2687Y175D01*
X2688Y175D01*
X2688Y176D01*
X2689Y176D01*
X2689Y177D01*
X2690Y177D01*
X2690Y178D01*
X2691Y178D01*
X2691Y179D01*
X2692Y179D01*
X2692Y180D01*
X2693Y180D01*
X2693Y181D01*
X2694Y181D01*
X2694Y182D01*
X2695Y182D01*
X2695Y183D01*
X2696Y183D01*
X2696Y184D01*
X2697Y184D01*
X2697Y185D01*
X2698Y185D01*
X2698Y186D01*
X2699Y186D01*
X2699Y187D01*
X2700Y187D01*
X2700Y188D01*
X2701Y188D01*
X2701Y189D01*
X2702Y189D01*
X2702Y190D01*
X2703Y190D01*
X2703Y191D01*
X2704Y191D01*
X2704Y192D01*
X2705Y192D01*
X2705Y193D01*
X2706Y193D01*
X2706Y194D01*
X2707Y194D01*
X2707Y195D01*
X2708Y195D01*
X2708Y196D01*
X2709Y196D01*
X2709Y197D01*
X2710Y197D01*
X2710Y198D01*
X2711Y198D01*
X2711Y199D01*
X2712Y199D01*
X2712Y200D01*
X2713Y200D01*
X2713Y201D01*
X2714Y201D01*
X2714Y202D01*
X2715Y202D01*
X2715Y203D01*
X2716Y203D01*
X2716Y204D01*
X2717Y204D01*
X2717Y205D01*
X2718Y205D01*
X2718Y206D01*
X2719Y206D01*
X2719Y1499D01*
X2718Y1499D01*
X2718Y1501D01*
X2716Y1501D01*
X2716Y1502D01*
X2715Y1502D01*
X2715Y1503D01*
X2714Y1503D01*
X2714Y1504D01*
X2713Y1504D01*
X2713Y1505D01*
X2712Y1505D01*
X2712Y1506D01*
X2710Y1506D01*
X2710Y1507D01*
X2709Y1507D01*
X2709Y1508D01*
X2708Y1508D01*
X2708Y1509D01*
X2707Y1509D01*
X2707Y1510D01*
X2706Y1510D01*
X2706Y1511D01*
X2705Y1511D01*
X2705Y1512D01*
X2703Y1512D01*
X2703Y1513D01*
X2702Y1513D01*
X2702Y1514D01*
X2701Y1514D01*
X2701Y1515D01*
X2700Y1515D01*
X2700Y1516D01*
X2699Y1516D01*
X2699Y1517D01*
X2697Y1517D01*
X2697Y1518D01*
X2696Y1518D01*
X2696Y1519D01*
X2695Y1519D01*
X2695Y1520D01*
X2694Y1520D01*
X2694Y1521D01*
X2693Y1521D01*
X2693Y1522D01*
X2692Y1522D01*
X2692Y1523D01*
X2690Y1523D01*
X2690Y1524D01*
X2689Y1524D01*
X2689Y1525D01*
X2688Y1525D01*
X2688Y1526D01*
X2687Y1526D01*
X2687Y1527D01*
X2686Y1527D01*
X2686Y1528D01*
X2684Y1528D01*
X2684Y1529D01*
X2683Y1529D01*
X2683Y1530D01*
X2682Y1530D01*
X2682Y1531D01*
X2681Y1531D01*
X2681Y1532D01*
X2680Y1532D01*
X2680Y1533D01*
X2678Y1533D01*
X2678Y1534D01*
X2677Y1534D01*
X2677Y1535D01*
X2676Y1535D01*
X2676Y1536D01*
X2675Y1536D01*
X2675Y1537D01*
X2674Y1537D01*
X2674Y1538D01*
X2673Y1538D01*
X2673Y1539D01*
X2671Y1539D01*
X2671Y1540D01*
X2670Y1540D01*
X2670Y1541D01*
X2669Y1541D01*
X2669Y1542D01*
X2668Y1542D01*
X2668Y1543D01*
X2667Y1543D01*
X2667Y1544D01*
X2665Y1544D01*
X2665Y1545D01*
X2664Y1545D01*
X2664Y1546D01*
X2663Y1546D01*
X2663Y1547D01*
X2662Y1547D01*
X2662Y1548D01*
X2661Y1548D01*
X2661Y1549D01*
X2660Y1549D01*
X2660Y1550D01*
X2658Y1550D01*
X2658Y1551D01*
X2657Y1551D01*
X2657Y1552D01*
X2656Y1552D01*
X2656Y1553D01*
X2655Y1553D01*
X2655Y1554D01*
X2654Y1554D01*
X2654Y1555D01*
X2652Y1555D01*
X2652Y1556D01*
X2651Y1556D01*
X2651Y1557D01*
X2650Y1557D01*
X2650Y1558D01*
X2649Y1558D01*
X2649Y1559D01*
X2648Y1559D01*
X2648Y1560D01*
X2647Y1560D01*
X2647Y1561D01*
X2645Y1561D01*
X2645Y1562D01*
X2644Y1562D01*
X2644Y1563D01*
X2643Y1563D01*
X2643Y1564D01*
X2642Y1564D01*
X2642Y1565D01*
X2641Y1565D01*
X2641Y1566D01*
X2639Y1566D01*
X2639Y1567D01*
X2638Y1567D01*
X2638Y1568D01*
X2637Y1568D01*
X2637Y1569D01*
X2636Y1569D01*
X2636Y1570D01*
X2635Y1570D01*
X2635Y1571D01*
X2634Y1571D01*
X2634Y1572D01*
X2632Y1572D01*
X2632Y1573D01*
X2631Y1573D01*
X2631Y1574D01*
X2630Y1574D01*
X2630Y1575D01*
X2629Y1575D01*
X2629Y1576D01*
X2628Y1576D01*
X2628Y1577D01*
X2626Y1577D01*
X2626Y1578D01*
X2625Y1578D01*
X2625Y1579D01*
X2624Y1579D01*
X2624Y1580D01*
X2623Y1580D01*
X2623Y1581D01*
X2622Y1581D01*
X2622Y1582D01*
X2620Y1582D01*
X2620Y1583D01*
X2619Y1583D01*
X2619Y1584D01*
X2618Y1584D01*
X2618Y1585D01*
X2617Y1585D01*
X2617Y1586D01*
X2616Y1586D01*
X2616Y1587D01*
X2615Y1587D01*
X2615Y1588D01*
X2613Y1588D01*
X2613Y1589D01*
X2612Y1589D01*
X2612Y1590D01*
X2611Y1590D01*
X2611Y1591D01*
X2610Y1591D01*
X2610Y1592D01*
X2609Y1592D01*
X2609Y1593D01*
X2607Y1593D01*
X2607Y1594D01*
X2606Y1594D01*
X2606Y1595D01*
X2605Y1595D01*
X2605Y1596D01*
X2604Y1596D01*
X2604Y1597D01*
X2603Y1597D01*
X2603Y1598D01*
X2602Y1598D01*
X2602Y2043D01*
X2601Y2043D01*
X2601Y2044D01*
X2600Y2044D01*
X2600Y2045D01*
X2599Y2045D01*
X2599Y2046D01*
X2598Y2046D01*
X2598Y2047D01*
X2597Y2047D01*
X2597Y2048D01*
X2596Y2048D01*
X2596Y2049D01*
X2595Y2049D01*
X2595Y2050D01*
X2594Y2050D01*
X2594Y2051D01*
X2593Y2051D01*
X2593Y2052D01*
X2592Y2052D01*
X2592Y2053D01*
X2591Y2053D01*
X2591Y2054D01*
X2590Y2054D01*
X2590Y2055D01*
X2589Y2055D01*
X2589Y2056D01*
X2588Y2056D01*
X2588Y2057D01*
X2587Y2057D01*
X2587Y2058D01*
X2586Y2058D01*
X2586Y2059D01*
X2585Y2059D01*
X2585Y2060D01*
X2584Y2060D01*
X2584Y2061D01*
X2583Y2061D01*
X2583Y2062D01*
X2582Y2062D01*
X2582Y2063D01*
X2581Y2063D01*
X2581Y2064D01*
X2580Y2064D01*
X2580Y2065D01*
X2579Y2065D01*
X2579Y2066D01*
X2578Y2066D01*
X2578Y2067D01*
X2577Y2067D01*
X2577Y2068D01*
X2576Y2068D01*
X2576Y2069D01*
X2575Y2069D01*
X2575Y2070D01*
X2574Y2070D01*
X2574Y2071D01*
X2573Y2071D01*
X2573Y2072D01*
X2572Y2072D01*
X2572Y2073D01*
X2571Y2073D01*
X2571Y2074D01*
X2570Y2074D01*
X2570Y2075D01*
X2569Y2075D01*
X2569Y2076D01*
X2568Y2076D01*
X2568Y2077D01*
X2567Y2077D01*
X2567Y2078D01*
X2566Y2078D01*
X2566Y2079D01*
X2565Y2079D01*
X2565Y2080D01*
X2564Y2080D01*
X2564Y2081D01*
X2563Y2081D01*
X2563Y2082D01*
X2562Y2082D01*
X2562Y2083D01*
X2561Y2083D01*
X2561Y2084D01*
X2560Y2084D01*
X2560Y2085D01*
X2559Y2085D01*
X2559Y2086D01*
X2558Y2086D01*
X2558Y2087D01*
X2557Y2087D01*
X2557Y2088D01*
X2556Y2088D01*
X2556Y2089D01*
X2555Y2089D01*
X2555Y2090D01*
X2554Y2090D01*
X2554Y2091D01*
X2553Y2091D01*
X2553Y2092D01*
X2552Y2092D01*
X2552Y2093D01*
X2551Y2093D01*
X2551Y2094D01*
X2550Y2094D01*
X2550Y2095D01*
X13Y2095D01*
X13Y2096D01*
X11Y2096D01*
G37*
D02*
G36*
X6Y2084D02*
X6Y17D01*
X17Y17D01*
X17Y2084D01*
X6Y2084D01*
G37*
D02*
G36*
X6Y17D02*
X6Y16D01*
X2602Y16D01*
X2602Y17D01*
X6Y17D01*
G37*
D02*
G36*
X6Y17D02*
X6Y16D01*
X2602Y16D01*
X2602Y17D01*
X6Y17D01*
G37*
D02*
G36*
X6Y16D02*
X6Y8D01*
X7Y8D01*
X7Y7D01*
X8Y7D01*
X8Y6D01*
X2600Y6D01*
X2600Y7D01*
X2601Y7D01*
X2601Y8D01*
X2602Y8D01*
X2602Y16D01*
X6Y16D01*
G37*
D02*
G36*
X1456Y1919D02*
X1456Y1918D01*
X1454Y1918D01*
X1454Y1910D01*
X1455Y1910D01*
X1455Y1909D01*
X1461Y1909D01*
X1461Y1910D01*
X1463Y1910D01*
X1463Y1918D01*
X1461Y1918D01*
X1461Y1919D01*
X1456Y1919D01*
G37*
D02*
G36*
X1260Y1916D02*
X1260Y1915D01*
X1259Y1915D01*
X1259Y1914D01*
X1258Y1914D01*
X1258Y1911D01*
X1257Y1911D01*
X1257Y1907D01*
X1256Y1907D01*
X1256Y1904D01*
X1255Y1904D01*
X1255Y1900D01*
X1262Y1900D01*
X1262Y1897D01*
X1263Y1897D01*
X1263Y1894D01*
X1264Y1894D01*
X1264Y1890D01*
X1265Y1890D01*
X1265Y1887D01*
X1266Y1887D01*
X1266Y1884D01*
X1267Y1884D01*
X1267Y1882D01*
X1274Y1882D01*
X1274Y1883D01*
X1273Y1883D01*
X1273Y1887D01*
X1272Y1887D01*
X1272Y1890D01*
X1271Y1890D01*
X1271Y1894D01*
X1270Y1894D01*
X1270Y1897D01*
X1269Y1897D01*
X1269Y1900D01*
X1268Y1900D01*
X1268Y1904D01*
X1267Y1904D01*
X1267Y1907D01*
X1266Y1907D01*
X1266Y1911D01*
X1265Y1911D01*
X1265Y1914D01*
X1264Y1914D01*
X1264Y1915D01*
X1263Y1915D01*
X1263Y1916D01*
X1260Y1916D01*
G37*
D02*
G36*
X1254Y1900D02*
X1254Y1897D01*
X1253Y1897D01*
X1253Y1894D01*
X1252Y1894D01*
X1252Y1890D01*
X1251Y1890D01*
X1251Y1887D01*
X1250Y1887D01*
X1250Y1883D01*
X1249Y1883D01*
X1249Y1882D01*
X1256Y1882D01*
X1256Y1884D01*
X1257Y1884D01*
X1257Y1887D01*
X1258Y1887D01*
X1258Y1890D01*
X1259Y1890D01*
X1259Y1894D01*
X1260Y1894D01*
X1260Y1897D01*
X1261Y1897D01*
X1261Y1900D01*
X1254Y1900D01*
G37*
D02*
G36*
X1249Y1882D02*
X1249Y1881D01*
X1274Y1881D01*
X1274Y1882D01*
X1249Y1882D01*
G37*
D02*
G36*
X1249Y1882D02*
X1249Y1881D01*
X1274Y1881D01*
X1274Y1882D01*
X1249Y1882D01*
G37*
D02*
G36*
X1249Y1881D02*
X1249Y1880D01*
X1248Y1880D01*
X1248Y1876D01*
X1269Y1876D01*
X1269Y1873D01*
X1270Y1873D01*
X1270Y1870D01*
X1271Y1870D01*
X1271Y1867D01*
X1272Y1867D01*
X1272Y1865D01*
X1274Y1865D01*
X1274Y1864D01*
X1275Y1864D01*
X1275Y1865D01*
X1277Y1865D01*
X1277Y1866D01*
X1278Y1866D01*
X1278Y1870D01*
X1277Y1870D01*
X1277Y1873D01*
X1276Y1873D01*
X1276Y1876D01*
X1275Y1876D01*
X1275Y1880D01*
X1274Y1880D01*
X1274Y1881D01*
X1249Y1881D01*
G37*
D02*
G36*
X1247Y1876D02*
X1247Y1873D01*
X1246Y1873D01*
X1246Y1870D01*
X1245Y1870D01*
X1245Y1866D01*
X1246Y1866D01*
X1246Y1865D01*
X1248Y1865D01*
X1248Y1864D01*
X1249Y1864D01*
X1249Y1865D01*
X1251Y1865D01*
X1251Y1867D01*
X1252Y1867D01*
X1252Y1870D01*
X1253Y1870D01*
X1253Y1873D01*
X1254Y1873D01*
X1254Y1876D01*
X1247Y1876D01*
G37*
D02*
G36*
X1644Y1916D02*
X1644Y1915D01*
X1643Y1915D01*
X1643Y1913D01*
X1642Y1913D01*
X1642Y1873D01*
X1643Y1873D01*
X1643Y1871D01*
X1651Y1871D01*
X1651Y1872D01*
X1650Y1872D01*
X1650Y1873D01*
X1649Y1873D01*
X1649Y1914D01*
X1648Y1914D01*
X1648Y1915D01*
X1647Y1915D01*
X1647Y1916D01*
X1644Y1916D01*
G37*
D02*
G36*
X1670Y1916D02*
X1670Y1915D01*
X1669Y1915D01*
X1669Y1903D01*
X1668Y1903D01*
X1668Y1872D01*
X1667Y1872D01*
X1667Y1871D01*
X1675Y1871D01*
X1675Y1914D01*
X1674Y1914D01*
X1674Y1915D01*
X1673Y1915D01*
X1673Y1916D01*
X1670Y1916D01*
G37*
D02*
G36*
X1643Y1871D02*
X1643Y1870D01*
X1674Y1870D01*
X1674Y1871D01*
X1643Y1871D01*
G37*
D02*
G36*
X1643Y1871D02*
X1643Y1870D01*
X1674Y1870D01*
X1674Y1871D01*
X1643Y1871D01*
G37*
D02*
G36*
X1644Y1870D02*
X1644Y1868D01*
X1645Y1868D01*
X1645Y1867D01*
X1646Y1867D01*
X1646Y1866D01*
X1648Y1866D01*
X1648Y1865D01*
X1652Y1865D01*
X1652Y1864D01*
X1666Y1864D01*
X1666Y1865D01*
X1670Y1865D01*
X1670Y1866D01*
X1671Y1866D01*
X1671Y1867D01*
X1672Y1867D01*
X1672Y1868D01*
X1673Y1868D01*
X1673Y1869D01*
X1674Y1869D01*
X1674Y1870D01*
X1644Y1870D01*
G37*
D02*
G36*
X1692Y1916D02*
X1692Y1902D01*
X1700Y1902D01*
X1700Y1900D01*
X1701Y1900D01*
X1701Y1898D01*
X1702Y1898D01*
X1702Y1895D01*
X1703Y1895D01*
X1703Y1893D01*
X1704Y1893D01*
X1704Y1891D01*
X1705Y1891D01*
X1705Y1888D01*
X1706Y1888D01*
X1706Y1886D01*
X1707Y1886D01*
X1707Y1884D01*
X1708Y1884D01*
X1708Y1882D01*
X1709Y1882D01*
X1709Y1879D01*
X1710Y1879D01*
X1710Y1878D01*
X1717Y1878D01*
X1717Y1880D01*
X1716Y1880D01*
X1716Y1882D01*
X1715Y1882D01*
X1715Y1884D01*
X1714Y1884D01*
X1714Y1887D01*
X1713Y1887D01*
X1713Y1889D01*
X1712Y1889D01*
X1712Y1891D01*
X1711Y1891D01*
X1711Y1894D01*
X1710Y1894D01*
X1710Y1896D01*
X1709Y1896D01*
X1709Y1898D01*
X1708Y1898D01*
X1708Y1900D01*
X1707Y1900D01*
X1707Y1903D01*
X1706Y1903D01*
X1706Y1905D01*
X1705Y1905D01*
X1705Y1907D01*
X1704Y1907D01*
X1704Y1910D01*
X1703Y1910D01*
X1703Y1912D01*
X1702Y1912D01*
X1702Y1914D01*
X1701Y1914D01*
X1701Y1916D01*
X1692Y1916D01*
G37*
D02*
G36*
X1720Y1916D02*
X1720Y1915D01*
X1719Y1915D01*
X1719Y1914D01*
X1718Y1914D01*
X1718Y1878D01*
X1725Y1878D01*
X1725Y1914D01*
X1724Y1914D01*
X1724Y1915D01*
X1723Y1915D01*
X1723Y1916D01*
X1720Y1916D01*
G37*
D02*
G36*
X1692Y1902D02*
X1692Y1866D01*
X1693Y1866D01*
X1693Y1865D01*
X1695Y1865D01*
X1695Y1864D01*
X1696Y1864D01*
X1696Y1865D01*
X1698Y1865D01*
X1698Y1867D01*
X1699Y1867D01*
X1699Y1902D01*
X1692Y1902D01*
G37*
D02*
G36*
X1710Y1878D02*
X1710Y1877D01*
X1725Y1877D01*
X1725Y1878D01*
X1710Y1878D01*
G37*
D02*
G36*
X1710Y1878D02*
X1710Y1877D01*
X1725Y1877D01*
X1725Y1878D01*
X1710Y1878D01*
G37*
D02*
G36*
X1711Y1877D02*
X1711Y1875D01*
X1712Y1875D01*
X1712Y1872D01*
X1713Y1872D01*
X1713Y1870D01*
X1714Y1870D01*
X1714Y1868D01*
X1715Y1868D01*
X1715Y1866D01*
X1716Y1866D01*
X1716Y1864D01*
X1724Y1864D01*
X1724Y1865D01*
X1725Y1865D01*
X1725Y1877D01*
X1711Y1877D01*
G37*
D02*
G36*
X1756Y1916D02*
X1756Y1915D01*
X1753Y1915D01*
X1753Y1914D01*
X1752Y1914D01*
X1752Y1913D01*
X1751Y1913D01*
X1751Y1911D01*
X1750Y1911D01*
X1750Y1909D01*
X1759Y1909D01*
X1759Y1908D01*
X1760Y1908D01*
X1760Y1907D01*
X1761Y1907D01*
X1761Y1905D01*
X1762Y1905D01*
X1762Y1903D01*
X1763Y1903D01*
X1763Y1901D01*
X1764Y1901D01*
X1764Y1899D01*
X1765Y1899D01*
X1765Y1897D01*
X1766Y1897D01*
X1766Y1895D01*
X1767Y1895D01*
X1767Y1892D01*
X1768Y1892D01*
X1768Y1888D01*
X1767Y1888D01*
X1767Y1886D01*
X1766Y1886D01*
X1766Y1884D01*
X1765Y1884D01*
X1765Y1882D01*
X1764Y1882D01*
X1764Y1880D01*
X1763Y1880D01*
X1763Y1878D01*
X1762Y1878D01*
X1762Y1876D01*
X1761Y1876D01*
X1761Y1874D01*
X1760Y1874D01*
X1760Y1872D01*
X1759Y1872D01*
X1759Y1871D01*
X1767Y1871D01*
X1767Y1873D01*
X1768Y1873D01*
X1768Y1875D01*
X1769Y1875D01*
X1769Y1877D01*
X1770Y1877D01*
X1770Y1879D01*
X1771Y1879D01*
X1771Y1881D01*
X1772Y1881D01*
X1772Y1883D01*
X1773Y1883D01*
X1773Y1885D01*
X1774Y1885D01*
X1774Y1895D01*
X1773Y1895D01*
X1773Y1898D01*
X1772Y1898D01*
X1772Y1900D01*
X1771Y1900D01*
X1771Y1902D01*
X1770Y1902D01*
X1770Y1904D01*
X1769Y1904D01*
X1769Y1906D01*
X1768Y1906D01*
X1768Y1908D01*
X1767Y1908D01*
X1767Y1910D01*
X1766Y1910D01*
X1766Y1911D01*
X1765Y1911D01*
X1765Y1913D01*
X1764Y1913D01*
X1764Y1914D01*
X1763Y1914D01*
X1763Y1915D01*
X1760Y1915D01*
X1760Y1916D01*
X1756Y1916D01*
G37*
D02*
G36*
X1749Y1909D02*
X1749Y1907D01*
X1748Y1907D01*
X1748Y1905D01*
X1747Y1905D01*
X1747Y1903D01*
X1746Y1903D01*
X1746Y1901D01*
X1745Y1901D01*
X1745Y1899D01*
X1744Y1899D01*
X1744Y1897D01*
X1743Y1897D01*
X1743Y1895D01*
X1742Y1895D01*
X1742Y1885D01*
X1743Y1885D01*
X1743Y1883D01*
X1744Y1883D01*
X1744Y1881D01*
X1745Y1881D01*
X1745Y1879D01*
X1746Y1879D01*
X1746Y1877D01*
X1747Y1877D01*
X1747Y1875D01*
X1748Y1875D01*
X1748Y1873D01*
X1749Y1873D01*
X1749Y1871D01*
X1757Y1871D01*
X1757Y1872D01*
X1756Y1872D01*
X1756Y1874D01*
X1755Y1874D01*
X1755Y1876D01*
X1754Y1876D01*
X1754Y1878D01*
X1753Y1878D01*
X1753Y1880D01*
X1752Y1880D01*
X1752Y1882D01*
X1751Y1882D01*
X1751Y1884D01*
X1750Y1884D01*
X1750Y1886D01*
X1749Y1886D01*
X1749Y1888D01*
X1748Y1888D01*
X1748Y1892D01*
X1749Y1892D01*
X1749Y1895D01*
X1750Y1895D01*
X1750Y1897D01*
X1751Y1897D01*
X1751Y1899D01*
X1752Y1899D01*
X1752Y1901D01*
X1753Y1901D01*
X1753Y1903D01*
X1754Y1903D01*
X1754Y1905D01*
X1755Y1905D01*
X1755Y1907D01*
X1756Y1907D01*
X1756Y1908D01*
X1757Y1908D01*
X1757Y1909D01*
X1749Y1909D01*
G37*
D02*
G36*
X1750Y1871D02*
X1750Y1870D01*
X1766Y1870D01*
X1766Y1871D01*
X1750Y1871D01*
G37*
D02*
G36*
X1750Y1871D02*
X1750Y1870D01*
X1766Y1870D01*
X1766Y1871D01*
X1750Y1871D01*
G37*
D02*
G36*
X1750Y1870D02*
X1750Y1869D01*
X1751Y1869D01*
X1751Y1867D01*
X1752Y1867D01*
X1752Y1866D01*
X1754Y1866D01*
X1754Y1865D01*
X1757Y1865D01*
X1757Y1864D01*
X1759Y1864D01*
X1759Y1865D01*
X1762Y1865D01*
X1762Y1866D01*
X1764Y1866D01*
X1764Y1867D01*
X1765Y1867D01*
X1765Y1869D01*
X1766Y1869D01*
X1766Y1870D01*
X1750Y1870D01*
G37*
D02*
G36*
X1841Y1916D02*
X1841Y1909D01*
X1866Y1909D01*
X1866Y1908D01*
X1867Y1908D01*
X1867Y1901D01*
X1866Y1901D01*
X1866Y1900D01*
X1865Y1900D01*
X1865Y1899D01*
X1873Y1899D01*
X1873Y1900D01*
X1874Y1900D01*
X1874Y1908D01*
X1873Y1908D01*
X1873Y1911D01*
X1872Y1911D01*
X1872Y1912D01*
X1871Y1912D01*
X1871Y1913D01*
X1870Y1913D01*
X1870Y1914D01*
X1869Y1914D01*
X1869Y1915D01*
X1866Y1915D01*
X1866Y1916D01*
X1841Y1916D01*
G37*
D02*
G36*
X1841Y1909D02*
X1841Y1899D01*
X1848Y1899D01*
X1848Y1909D01*
X1841Y1909D01*
G37*
D02*
G36*
X1841Y1899D02*
X1841Y1898D01*
X1873Y1898D01*
X1873Y1899D01*
X1841Y1899D01*
G37*
D02*
G36*
X1841Y1899D02*
X1841Y1898D01*
X1873Y1898D01*
X1873Y1899D01*
X1841Y1899D01*
G37*
D02*
G36*
X1841Y1898D02*
X1841Y1892D01*
X1853Y1892D01*
X1853Y1890D01*
X1854Y1890D01*
X1854Y1888D01*
X1855Y1888D01*
X1855Y1887D01*
X1856Y1887D01*
X1856Y1885D01*
X1857Y1885D01*
X1857Y1883D01*
X1858Y1883D01*
X1858Y1882D01*
X1859Y1882D01*
X1859Y1880D01*
X1860Y1880D01*
X1860Y1878D01*
X1861Y1878D01*
X1861Y1876D01*
X1862Y1876D01*
X1862Y1875D01*
X1863Y1875D01*
X1863Y1873D01*
X1864Y1873D01*
X1864Y1871D01*
X1865Y1871D01*
X1865Y1870D01*
X1866Y1870D01*
X1866Y1868D01*
X1867Y1868D01*
X1867Y1866D01*
X1868Y1866D01*
X1868Y1865D01*
X1870Y1865D01*
X1870Y1864D01*
X1871Y1864D01*
X1871Y1865D01*
X1873Y1865D01*
X1873Y1867D01*
X1874Y1867D01*
X1874Y1869D01*
X1873Y1869D01*
X1873Y1871D01*
X1872Y1871D01*
X1872Y1872D01*
X1871Y1872D01*
X1871Y1874D01*
X1870Y1874D01*
X1870Y1876D01*
X1869Y1876D01*
X1869Y1878D01*
X1868Y1878D01*
X1868Y1879D01*
X1867Y1879D01*
X1867Y1881D01*
X1866Y1881D01*
X1866Y1883D01*
X1865Y1883D01*
X1865Y1884D01*
X1864Y1884D01*
X1864Y1886D01*
X1863Y1886D01*
X1863Y1888D01*
X1862Y1888D01*
X1862Y1890D01*
X1861Y1890D01*
X1861Y1891D01*
X1860Y1891D01*
X1860Y1892D01*
X1865Y1892D01*
X1865Y1893D01*
X1868Y1893D01*
X1868Y1894D01*
X1870Y1894D01*
X1870Y1895D01*
X1871Y1895D01*
X1871Y1896D01*
X1872Y1896D01*
X1872Y1898D01*
X1841Y1898D01*
G37*
D02*
G36*
X1841Y1892D02*
X1841Y1866D01*
X1842Y1866D01*
X1842Y1865D01*
X1844Y1865D01*
X1844Y1864D01*
X1845Y1864D01*
X1845Y1865D01*
X1847Y1865D01*
X1847Y1867D01*
X1848Y1867D01*
X1848Y1892D01*
X1841Y1892D01*
G37*
D02*
G36*
X1893Y1916D02*
X1893Y1915D01*
X1891Y1915D01*
X1891Y1910D01*
X1893Y1910D01*
X1893Y1909D01*
X1917Y1909D01*
X1917Y1896D01*
X1916Y1896D01*
X1916Y1894D01*
X1913Y1894D01*
X1913Y1893D01*
X1898Y1893D01*
X1898Y1892D01*
X1897Y1892D01*
X1897Y1889D01*
X1898Y1889D01*
X1898Y1888D01*
X1899Y1888D01*
X1899Y1887D01*
X1915Y1887D01*
X1915Y1886D01*
X1916Y1886D01*
X1916Y1885D01*
X1917Y1885D01*
X1917Y1871D01*
X1892Y1871D01*
X1892Y1870D01*
X1891Y1870D01*
X1891Y1866D01*
X1892Y1866D01*
X1892Y1865D01*
X1894Y1865D01*
X1894Y1864D01*
X1917Y1864D01*
X1917Y1865D01*
X1920Y1865D01*
X1920Y1866D01*
X1922Y1866D01*
X1922Y1868D01*
X1923Y1868D01*
X1923Y1888D01*
X1922Y1888D01*
X1922Y1889D01*
X1921Y1889D01*
X1921Y1891D01*
X1922Y1891D01*
X1922Y1893D01*
X1923Y1893D01*
X1923Y1912D01*
X1922Y1912D01*
X1922Y1914D01*
X1921Y1914D01*
X1921Y1915D01*
X1919Y1915D01*
X1919Y1916D01*
X1893Y1916D01*
G37*
D02*
G36*
X1297Y1902D02*
X1297Y1901D01*
X1295Y1901D01*
X1295Y1895D01*
X1301Y1895D01*
X1301Y1901D01*
X1300Y1901D01*
X1300Y1902D01*
X1297Y1902D01*
G37*
D02*
G36*
X1310Y1902D02*
X1310Y1901D01*
X1308Y1901D01*
X1308Y1900D01*
X1307Y1900D01*
X1307Y1899D01*
X1306Y1899D01*
X1306Y1898D01*
X1305Y1898D01*
X1305Y1897D01*
X1304Y1897D01*
X1304Y1896D01*
X1302Y1896D01*
X1302Y1895D01*
X1320Y1895D01*
X1320Y1894D01*
X1321Y1894D01*
X1321Y1888D01*
X1322Y1888D01*
X1322Y1887D01*
X1326Y1887D01*
X1326Y1888D01*
X1327Y1888D01*
X1327Y1890D01*
X1328Y1890D01*
X1328Y1893D01*
X1327Y1893D01*
X1327Y1896D01*
X1326Y1896D01*
X1326Y1898D01*
X1325Y1898D01*
X1325Y1899D01*
X1324Y1899D01*
X1324Y1900D01*
X1323Y1900D01*
X1323Y1901D01*
X1320Y1901D01*
X1320Y1902D01*
X1310Y1902D01*
G37*
D02*
G36*
X1295Y1895D02*
X1295Y1894D01*
X1312Y1894D01*
X1312Y1895D01*
X1295Y1895D01*
G37*
D02*
G36*
X1295Y1895D02*
X1295Y1894D01*
X1312Y1894D01*
X1312Y1895D01*
X1295Y1895D01*
G37*
D02*
G36*
X1295Y1894D02*
X1295Y1866D01*
X1296Y1866D01*
X1296Y1865D01*
X1300Y1865D01*
X1300Y1866D01*
X1301Y1866D01*
X1301Y1886D01*
X1302Y1886D01*
X1302Y1887D01*
X1303Y1887D01*
X1303Y1888D01*
X1305Y1888D01*
X1305Y1889D01*
X1306Y1889D01*
X1306Y1890D01*
X1307Y1890D01*
X1307Y1891D01*
X1308Y1891D01*
X1308Y1892D01*
X1309Y1892D01*
X1309Y1893D01*
X1310Y1893D01*
X1310Y1894D01*
X1295Y1894D01*
G37*
D02*
G36*
X1373Y1916D02*
X1373Y1915D01*
X1371Y1915D01*
X1371Y1898D01*
X1377Y1898D01*
X1377Y1915D01*
X1375Y1915D01*
X1375Y1916D01*
X1373Y1916D01*
G37*
D02*
G36*
X1354Y1902D02*
X1354Y1901D01*
X1352Y1901D01*
X1352Y1900D01*
X1350Y1900D01*
X1350Y1899D01*
X1349Y1899D01*
X1349Y1898D01*
X1369Y1898D01*
X1369Y1899D01*
X1368Y1899D01*
X1368Y1900D01*
X1367Y1900D01*
X1367Y1901D01*
X1364Y1901D01*
X1364Y1902D01*
X1354Y1902D01*
G37*
D02*
G36*
X1348Y1898D02*
X1348Y1897D01*
X1377Y1897D01*
X1377Y1898D01*
X1348Y1898D01*
G37*
D02*
G36*
X1348Y1898D02*
X1348Y1897D01*
X1377Y1897D01*
X1377Y1898D01*
X1348Y1898D01*
G37*
D02*
G36*
X1347Y1897D02*
X1347Y1896D01*
X1346Y1896D01*
X1346Y1895D01*
X1364Y1895D01*
X1364Y1894D01*
X1365Y1894D01*
X1365Y1893D01*
X1366Y1893D01*
X1366Y1892D01*
X1367Y1892D01*
X1367Y1891D01*
X1368Y1891D01*
X1368Y1890D01*
X1370Y1890D01*
X1370Y1888D01*
X1371Y1888D01*
X1371Y1878D01*
X1370Y1878D01*
X1370Y1877D01*
X1369Y1877D01*
X1369Y1876D01*
X1368Y1876D01*
X1368Y1875D01*
X1367Y1875D01*
X1367Y1874D01*
X1366Y1874D01*
X1366Y1873D01*
X1364Y1873D01*
X1364Y1872D01*
X1363Y1872D01*
X1363Y1871D01*
X1377Y1871D01*
X1377Y1897D01*
X1347Y1897D01*
G37*
D02*
G36*
X1346Y1895D02*
X1346Y1894D01*
X1345Y1894D01*
X1345Y1891D01*
X1344Y1891D01*
X1344Y1875D01*
X1345Y1875D01*
X1345Y1872D01*
X1346Y1872D01*
X1346Y1871D01*
X1355Y1871D01*
X1355Y1872D01*
X1354Y1872D01*
X1354Y1873D01*
X1353Y1873D01*
X1353Y1874D01*
X1352Y1874D01*
X1352Y1875D01*
X1351Y1875D01*
X1351Y1891D01*
X1352Y1891D01*
X1352Y1893D01*
X1354Y1893D01*
X1354Y1894D01*
X1355Y1894D01*
X1355Y1895D01*
X1346Y1895D01*
G37*
D02*
G36*
X1346Y1871D02*
X1346Y1870D01*
X1377Y1870D01*
X1377Y1871D01*
X1346Y1871D01*
G37*
D02*
G36*
X1346Y1871D02*
X1346Y1870D01*
X1377Y1870D01*
X1377Y1871D01*
X1346Y1871D01*
G37*
D02*
G36*
X1347Y1870D02*
X1347Y1869D01*
X1348Y1869D01*
X1348Y1868D01*
X1371Y1868D01*
X1371Y1866D01*
X1372Y1866D01*
X1372Y1865D01*
X1376Y1865D01*
X1376Y1866D01*
X1377Y1866D01*
X1377Y1870D01*
X1347Y1870D01*
G37*
D02*
G36*
X1349Y1868D02*
X1349Y1867D01*
X1351Y1867D01*
X1351Y1866D01*
X1352Y1866D01*
X1352Y1865D01*
X1356Y1865D01*
X1356Y1864D01*
X1362Y1864D01*
X1362Y1865D01*
X1366Y1865D01*
X1366Y1866D01*
X1368Y1866D01*
X1368Y1867D01*
X1369Y1867D01*
X1369Y1868D01*
X1349Y1868D01*
G37*
D02*
G36*
X1396Y1902D02*
X1396Y1901D01*
X1395Y1901D01*
X1395Y1900D01*
X1394Y1900D01*
X1394Y1886D01*
X1395Y1886D01*
X1395Y1871D01*
X1403Y1871D01*
X1403Y1872D01*
X1402Y1872D01*
X1402Y1876D01*
X1401Y1876D01*
X1401Y1900D01*
X1400Y1900D01*
X1400Y1901D01*
X1399Y1901D01*
X1399Y1902D01*
X1396Y1902D01*
G37*
D02*
G36*
X1422Y1902D02*
X1422Y1901D01*
X1421Y1901D01*
X1421Y1900D01*
X1420Y1900D01*
X1420Y1878D01*
X1419Y1878D01*
X1419Y1877D01*
X1418Y1877D01*
X1418Y1876D01*
X1416Y1876D01*
X1416Y1875D01*
X1415Y1875D01*
X1415Y1874D01*
X1413Y1874D01*
X1413Y1873D01*
X1412Y1873D01*
X1412Y1872D01*
X1410Y1872D01*
X1410Y1871D01*
X1427Y1871D01*
X1427Y1900D01*
X1426Y1900D01*
X1426Y1901D01*
X1425Y1901D01*
X1425Y1902D01*
X1422Y1902D01*
G37*
D02*
G36*
X1396Y1871D02*
X1396Y1870D01*
X1427Y1870D01*
X1427Y1871D01*
X1396Y1871D01*
G37*
D02*
G36*
X1396Y1871D02*
X1396Y1870D01*
X1427Y1870D01*
X1427Y1871D01*
X1396Y1871D01*
G37*
D02*
G36*
X1396Y1870D02*
X1396Y1869D01*
X1397Y1869D01*
X1397Y1868D01*
X1398Y1868D01*
X1398Y1867D01*
X1399Y1867D01*
X1399Y1866D01*
X1400Y1866D01*
X1400Y1865D01*
X1405Y1865D01*
X1405Y1864D01*
X1409Y1864D01*
X1409Y1865D01*
X1413Y1865D01*
X1413Y1866D01*
X1415Y1866D01*
X1415Y1867D01*
X1416Y1867D01*
X1416Y1868D01*
X1418Y1868D01*
X1418Y1869D01*
X1419Y1869D01*
X1419Y1870D01*
X1396Y1870D01*
G37*
D02*
G36*
X1420Y1870D02*
X1420Y1867D01*
X1421Y1867D01*
X1421Y1865D01*
X1423Y1865D01*
X1423Y1864D01*
X1424Y1864D01*
X1424Y1865D01*
X1426Y1865D01*
X1426Y1866D01*
X1427Y1866D01*
X1427Y1870D01*
X1420Y1870D01*
G37*
D02*
G36*
X1449Y1902D02*
X1449Y1901D01*
X1448Y1901D01*
X1448Y1900D01*
X1447Y1900D01*
X1447Y1897D01*
X1448Y1897D01*
X1448Y1896D01*
X1449Y1896D01*
X1449Y1895D01*
X1457Y1895D01*
X1457Y1871D01*
X1448Y1871D01*
X1448Y1870D01*
X1447Y1870D01*
X1447Y1866D01*
X1448Y1866D01*
X1448Y1865D01*
X1450Y1865D01*
X1450Y1864D01*
X1470Y1864D01*
X1470Y1865D01*
X1472Y1865D01*
X1472Y1866D01*
X1473Y1866D01*
X1473Y1870D01*
X1472Y1870D01*
X1472Y1871D01*
X1463Y1871D01*
X1463Y1901D01*
X1462Y1901D01*
X1462Y1902D01*
X1449Y1902D01*
G37*
D02*
G36*
X1495Y1902D02*
X1495Y1901D01*
X1494Y1901D01*
X1494Y1899D01*
X1493Y1899D01*
X1493Y1897D01*
X1500Y1897D01*
X1500Y1900D01*
X1499Y1900D01*
X1499Y1901D01*
X1498Y1901D01*
X1498Y1902D01*
X1495Y1902D01*
G37*
D02*
G36*
X1509Y1902D02*
X1509Y1901D01*
X1507Y1901D01*
X1507Y1900D01*
X1505Y1900D01*
X1505Y1899D01*
X1504Y1899D01*
X1504Y1898D01*
X1502Y1898D01*
X1502Y1897D01*
X1524Y1897D01*
X1524Y1898D01*
X1523Y1898D01*
X1523Y1899D01*
X1522Y1899D01*
X1522Y1900D01*
X1520Y1900D01*
X1520Y1901D01*
X1518Y1901D01*
X1518Y1902D01*
X1509Y1902D01*
G37*
D02*
G36*
X1493Y1897D02*
X1493Y1896D01*
X1524Y1896D01*
X1524Y1897D01*
X1493Y1897D01*
G37*
D02*
G36*
X1493Y1897D02*
X1493Y1896D01*
X1524Y1896D01*
X1524Y1897D01*
X1493Y1897D01*
G37*
D02*
G36*
X1493Y1896D02*
X1493Y1895D01*
X1517Y1895D01*
X1517Y1894D01*
X1518Y1894D01*
X1518Y1893D01*
X1519Y1893D01*
X1519Y1869D01*
X1520Y1869D01*
X1520Y1865D01*
X1525Y1865D01*
X1525Y1866D01*
X1526Y1866D01*
X1526Y1887D01*
X1525Y1887D01*
X1525Y1896D01*
X1493Y1896D01*
G37*
D02*
G36*
X1493Y1895D02*
X1493Y1867D01*
X1494Y1867D01*
X1494Y1865D01*
X1496Y1865D01*
X1496Y1864D01*
X1497Y1864D01*
X1497Y1865D01*
X1499Y1865D01*
X1499Y1866D01*
X1500Y1866D01*
X1500Y1889D01*
X1502Y1889D01*
X1502Y1890D01*
X1503Y1890D01*
X1503Y1891D01*
X1505Y1891D01*
X1505Y1892D01*
X1507Y1892D01*
X1507Y1893D01*
X1508Y1893D01*
X1508Y1894D01*
X1510Y1894D01*
X1510Y1895D01*
X1493Y1895D01*
G37*
D02*
G36*
X1553Y1902D02*
X1553Y1901D01*
X1550Y1901D01*
X1550Y1900D01*
X1549Y1900D01*
X1549Y1899D01*
X1548Y1899D01*
X1548Y1898D01*
X1547Y1898D01*
X1547Y1897D01*
X1546Y1897D01*
X1546Y1896D01*
X1545Y1896D01*
X1545Y1895D01*
X1566Y1895D01*
X1566Y1894D01*
X1567Y1894D01*
X1567Y1893D01*
X1568Y1893D01*
X1568Y1892D01*
X1569Y1892D01*
X1569Y1874D01*
X1568Y1874D01*
X1568Y1873D01*
X1566Y1873D01*
X1566Y1872D01*
X1565Y1872D01*
X1565Y1871D01*
X1575Y1871D01*
X1575Y1874D01*
X1576Y1874D01*
X1576Y1892D01*
X1575Y1892D01*
X1575Y1895D01*
X1574Y1895D01*
X1574Y1896D01*
X1573Y1896D01*
X1573Y1897D01*
X1572Y1897D01*
X1572Y1898D01*
X1571Y1898D01*
X1571Y1899D01*
X1570Y1899D01*
X1570Y1900D01*
X1569Y1900D01*
X1569Y1901D01*
X1566Y1901D01*
X1566Y1902D01*
X1553Y1902D01*
G37*
D02*
G36*
X1544Y1895D02*
X1544Y1893D01*
X1543Y1893D01*
X1543Y1873D01*
X1544Y1873D01*
X1544Y1871D01*
X1554Y1871D01*
X1554Y1872D01*
X1552Y1872D01*
X1552Y1873D01*
X1551Y1873D01*
X1551Y1874D01*
X1550Y1874D01*
X1550Y1892D01*
X1551Y1892D01*
X1551Y1893D01*
X1552Y1893D01*
X1552Y1894D01*
X1553Y1894D01*
X1553Y1895D01*
X1544Y1895D01*
G37*
D02*
G36*
X1545Y1871D02*
X1545Y1870D01*
X1574Y1870D01*
X1574Y1871D01*
X1545Y1871D01*
G37*
D02*
G36*
X1545Y1871D02*
X1545Y1870D01*
X1574Y1870D01*
X1574Y1871D01*
X1545Y1871D01*
G37*
D02*
G36*
X1546Y1870D02*
X1546Y1869D01*
X1547Y1869D01*
X1547Y1868D01*
X1548Y1868D01*
X1548Y1867D01*
X1549Y1867D01*
X1549Y1866D01*
X1551Y1866D01*
X1551Y1865D01*
X1555Y1865D01*
X1555Y1864D01*
X1564Y1864D01*
X1564Y1865D01*
X1568Y1865D01*
X1568Y1866D01*
X1570Y1866D01*
X1570Y1867D01*
X1571Y1867D01*
X1571Y1868D01*
X1572Y1868D01*
X1572Y1869D01*
X1573Y1869D01*
X1573Y1870D01*
X1546Y1870D01*
G37*
D02*
G36*
X1118Y1740D02*
X1118Y1739D01*
X1117Y1739D01*
X1117Y1696D01*
X1125Y1696D01*
X1125Y1697D01*
X1124Y1697D01*
X1124Y1737D01*
X1123Y1737D01*
X1123Y1739D01*
X1122Y1739D01*
X1122Y1740D01*
X1118Y1740D01*
G37*
D02*
G36*
X1144Y1740D02*
X1144Y1739D01*
X1143Y1739D01*
X1143Y1698D01*
X1142Y1698D01*
X1142Y1696D01*
X1149Y1696D01*
X1149Y1697D01*
X1150Y1697D01*
X1150Y1738D01*
X1149Y1738D01*
X1149Y1740D01*
X1144Y1740D01*
G37*
D02*
G36*
X1133Y1724D02*
X1133Y1723D01*
X1131Y1723D01*
X1131Y1722D01*
X1130Y1722D01*
X1130Y1698D01*
X1129Y1698D01*
X1129Y1696D01*
X1138Y1696D01*
X1138Y1697D01*
X1137Y1697D01*
X1137Y1721D01*
X1136Y1721D01*
X1136Y1723D01*
X1134Y1723D01*
X1134Y1724D01*
X1133Y1724D01*
G37*
D02*
G36*
X1118Y1696D02*
X1118Y1695D01*
X1149Y1695D01*
X1149Y1696D01*
X1118Y1696D01*
G37*
D02*
G36*
X1118Y1696D02*
X1118Y1695D01*
X1149Y1695D01*
X1149Y1696D01*
X1118Y1696D01*
G37*
D02*
G36*
X1118Y1696D02*
X1118Y1695D01*
X1149Y1695D01*
X1149Y1696D01*
X1118Y1696D01*
G37*
D02*
G36*
X1118Y1695D02*
X1118Y1694D01*
X1119Y1694D01*
X1119Y1693D01*
X1120Y1693D01*
X1120Y1691D01*
X1134Y1691D01*
X1134Y1690D01*
X1135Y1690D01*
X1135Y1689D01*
X1145Y1689D01*
X1145Y1690D01*
X1146Y1690D01*
X1146Y1692D01*
X1147Y1692D01*
X1147Y1693D01*
X1148Y1693D01*
X1148Y1695D01*
X1118Y1695D01*
G37*
D02*
G36*
X1121Y1691D02*
X1121Y1690D01*
X1122Y1690D01*
X1122Y1689D01*
X1132Y1689D01*
X1132Y1690D01*
X1133Y1690D01*
X1133Y1691D01*
X1121Y1691D01*
G37*
D02*
G36*
X1217Y1740D02*
X1217Y1738D01*
X1216Y1738D01*
X1216Y1736D01*
X1217Y1736D01*
X1217Y1734D01*
X1242Y1734D01*
X1242Y1718D01*
X1220Y1718D01*
X1220Y1717D01*
X1219Y1717D01*
X1219Y1716D01*
X1218Y1716D01*
X1218Y1715D01*
X1217Y1715D01*
X1217Y1713D01*
X1216Y1713D01*
X1216Y1689D01*
X1247Y1689D01*
X1247Y1690D01*
X1248Y1690D01*
X1248Y1691D01*
X1249Y1691D01*
X1249Y1694D01*
X1248Y1694D01*
X1248Y1695D01*
X1247Y1695D01*
X1247Y1696D01*
X1223Y1696D01*
X1223Y1711D01*
X1244Y1711D01*
X1244Y1712D01*
X1246Y1712D01*
X1246Y1713D01*
X1247Y1713D01*
X1247Y1714D01*
X1248Y1714D01*
X1248Y1716D01*
X1249Y1716D01*
X1249Y1736D01*
X1248Y1736D01*
X1248Y1738D01*
X1247Y1738D01*
X1247Y1739D01*
X1246Y1739D01*
X1246Y1740D01*
X1217Y1740D01*
G37*
D02*
G36*
X1274Y1740D02*
X1274Y1739D01*
X1273Y1739D01*
X1273Y1738D01*
X1272Y1738D01*
X1272Y1734D01*
X1285Y1734D01*
X1285Y1718D01*
X1292Y1718D01*
X1292Y1739D01*
X1291Y1739D01*
X1291Y1740D01*
X1274Y1740D01*
G37*
D02*
G36*
X1272Y1734D02*
X1272Y1718D01*
X1279Y1718D01*
X1279Y1734D01*
X1272Y1734D01*
G37*
D02*
G36*
X1270Y1718D02*
X1270Y1717D01*
X1295Y1717D01*
X1295Y1718D01*
X1270Y1718D01*
G37*
D02*
G36*
X1270Y1718D02*
X1270Y1717D01*
X1295Y1717D01*
X1295Y1718D01*
X1270Y1718D01*
G37*
D02*
G36*
X1268Y1717D02*
X1268Y1716D01*
X1267Y1716D01*
X1267Y1714D01*
X1266Y1714D01*
X1266Y1711D01*
X1292Y1711D01*
X1292Y1696D01*
X1299Y1696D01*
X1299Y1713D01*
X1298Y1713D01*
X1298Y1715D01*
X1297Y1715D01*
X1297Y1716D01*
X1296Y1716D01*
X1296Y1717D01*
X1268Y1717D01*
G37*
D02*
G36*
X1266Y1711D02*
X1266Y1696D01*
X1273Y1696D01*
X1273Y1711D01*
X1266Y1711D01*
G37*
D02*
G36*
X1266Y1696D02*
X1266Y1695D01*
X1299Y1695D01*
X1299Y1696D01*
X1266Y1696D01*
G37*
D02*
G36*
X1266Y1696D02*
X1266Y1695D01*
X1299Y1695D01*
X1299Y1696D01*
X1266Y1696D01*
G37*
D02*
G36*
X1266Y1695D02*
X1266Y1693D01*
X1267Y1693D01*
X1267Y1691D01*
X1268Y1691D01*
X1268Y1690D01*
X1270Y1690D01*
X1270Y1689D01*
X1294Y1689D01*
X1294Y1690D01*
X1296Y1690D01*
X1296Y1691D01*
X1297Y1691D01*
X1297Y1692D01*
X1298Y1692D01*
X1298Y1694D01*
X1299Y1694D01*
X1299Y1695D01*
X1266Y1695D01*
G37*
D02*
G36*
X1319Y1740D02*
X1319Y1739D01*
X1318Y1739D01*
X1318Y1738D01*
X1317Y1738D01*
X1317Y1737D01*
X1316Y1737D01*
X1316Y1734D01*
X1341Y1734D01*
X1341Y1733D01*
X1342Y1733D01*
X1342Y1696D01*
X1348Y1696D01*
X1348Y1737D01*
X1347Y1737D01*
X1347Y1738D01*
X1346Y1738D01*
X1346Y1739D01*
X1345Y1739D01*
X1345Y1740D01*
X1319Y1740D01*
G37*
D02*
G36*
X1316Y1734D02*
X1316Y1696D01*
X1322Y1696D01*
X1322Y1734D01*
X1316Y1734D01*
G37*
D02*
G36*
X1316Y1696D02*
X1316Y1695D01*
X1348Y1695D01*
X1348Y1696D01*
X1316Y1696D01*
G37*
D02*
G36*
X1316Y1696D02*
X1316Y1695D01*
X1348Y1695D01*
X1348Y1696D01*
X1316Y1696D01*
G37*
D02*
G36*
X1316Y1695D02*
X1316Y1692D01*
X1317Y1692D01*
X1317Y1691D01*
X1318Y1691D01*
X1318Y1690D01*
X1320Y1690D01*
X1320Y1689D01*
X1344Y1689D01*
X1344Y1690D01*
X1346Y1690D01*
X1346Y1691D01*
X1347Y1691D01*
X1347Y1693D01*
X1348Y1693D01*
X1348Y1695D01*
X1316Y1695D01*
G37*
D02*
G36*
X1366Y1740D02*
X1366Y1738D01*
X1365Y1738D01*
X1365Y1736D01*
X1366Y1736D01*
X1366Y1734D01*
X1378Y1734D01*
X1378Y1696D01*
X1385Y1696D01*
X1385Y1740D01*
X1366Y1740D01*
G37*
D02*
G36*
X1392Y1712D02*
X1392Y1710D01*
X1391Y1710D01*
X1391Y1696D01*
X1398Y1696D01*
X1398Y1711D01*
X1397Y1711D01*
X1397Y1712D01*
X1392Y1712D01*
G37*
D02*
G36*
X1368Y1696D02*
X1368Y1695D01*
X1398Y1695D01*
X1398Y1696D01*
X1368Y1696D01*
G37*
D02*
G36*
X1368Y1696D02*
X1368Y1695D01*
X1398Y1695D01*
X1398Y1696D01*
X1368Y1696D01*
G37*
D02*
G36*
X1366Y1695D02*
X1366Y1694D01*
X1365Y1694D01*
X1365Y1691D01*
X1366Y1691D01*
X1366Y1690D01*
X1367Y1690D01*
X1367Y1689D01*
X1396Y1689D01*
X1396Y1690D01*
X1397Y1690D01*
X1397Y1691D01*
X1398Y1691D01*
X1398Y1695D01*
X1366Y1695D01*
G37*
D02*
G36*
X1415Y1740D02*
X1415Y1734D01*
X1436Y1734D01*
X1436Y1733D01*
X1438Y1733D01*
X1438Y1732D01*
X1439Y1732D01*
X1439Y1731D01*
X1440Y1731D01*
X1440Y1730D01*
X1441Y1730D01*
X1441Y1722D01*
X1440Y1722D01*
X1440Y1721D01*
X1439Y1721D01*
X1439Y1720D01*
X1438Y1720D01*
X1438Y1719D01*
X1437Y1719D01*
X1437Y1718D01*
X1446Y1718D01*
X1446Y1719D01*
X1447Y1719D01*
X1447Y1723D01*
X1448Y1723D01*
X1448Y1729D01*
X1447Y1729D01*
X1447Y1732D01*
X1446Y1732D01*
X1446Y1734D01*
X1445Y1734D01*
X1445Y1736D01*
X1444Y1736D01*
X1444Y1737D01*
X1443Y1737D01*
X1443Y1738D01*
X1441Y1738D01*
X1441Y1739D01*
X1439Y1739D01*
X1439Y1740D01*
X1415Y1740D01*
G37*
D02*
G36*
X1415Y1734D02*
X1415Y1718D01*
X1422Y1718D01*
X1422Y1719D01*
X1421Y1719D01*
X1421Y1733D01*
X1422Y1733D01*
X1422Y1734D01*
X1415Y1734D01*
G37*
D02*
G36*
X1415Y1718D02*
X1415Y1717D01*
X1446Y1717D01*
X1446Y1718D01*
X1415Y1718D01*
G37*
D02*
G36*
X1415Y1718D02*
X1415Y1717D01*
X1446Y1717D01*
X1446Y1718D01*
X1415Y1718D01*
G37*
D02*
G36*
X1415Y1717D02*
X1415Y1711D01*
X1438Y1711D01*
X1438Y1710D01*
X1439Y1710D01*
X1439Y1709D01*
X1440Y1709D01*
X1440Y1707D01*
X1441Y1707D01*
X1441Y1700D01*
X1440Y1700D01*
X1440Y1698D01*
X1439Y1698D01*
X1439Y1697D01*
X1438Y1697D01*
X1438Y1696D01*
X1446Y1696D01*
X1446Y1697D01*
X1447Y1697D01*
X1447Y1700D01*
X1448Y1700D01*
X1448Y1707D01*
X1447Y1707D01*
X1447Y1710D01*
X1446Y1710D01*
X1446Y1712D01*
X1445Y1712D01*
X1445Y1713D01*
X1444Y1713D01*
X1444Y1714D01*
X1443Y1714D01*
X1443Y1715D01*
X1444Y1715D01*
X1444Y1716D01*
X1445Y1716D01*
X1445Y1717D01*
X1415Y1717D01*
G37*
D02*
G36*
X1415Y1711D02*
X1415Y1696D01*
X1421Y1696D01*
X1421Y1711D01*
X1415Y1711D01*
G37*
D02*
G36*
X1415Y1696D02*
X1415Y1695D01*
X1446Y1695D01*
X1446Y1696D01*
X1415Y1696D01*
G37*
D02*
G36*
X1415Y1696D02*
X1415Y1695D01*
X1446Y1695D01*
X1446Y1696D01*
X1415Y1696D01*
G37*
D02*
G36*
X1415Y1695D02*
X1415Y1689D01*
X1438Y1689D01*
X1438Y1690D01*
X1440Y1690D01*
X1440Y1691D01*
X1442Y1691D01*
X1442Y1692D01*
X1443Y1692D01*
X1443Y1693D01*
X1444Y1693D01*
X1444Y1694D01*
X1445Y1694D01*
X1445Y1695D01*
X1415Y1695D01*
G37*
D02*
G36*
X1477Y1740D02*
X1477Y1739D01*
X1476Y1739D01*
X1476Y1738D01*
X1474Y1738D01*
X1474Y1736D01*
X1473Y1736D01*
X1473Y1734D01*
X1482Y1734D01*
X1482Y1733D01*
X1483Y1733D01*
X1483Y1731D01*
X1484Y1731D01*
X1484Y1729D01*
X1485Y1729D01*
X1485Y1727D01*
X1486Y1727D01*
X1486Y1725D01*
X1487Y1725D01*
X1487Y1723D01*
X1488Y1723D01*
X1488Y1721D01*
X1489Y1721D01*
X1489Y1719D01*
X1490Y1719D01*
X1490Y1716D01*
X1491Y1716D01*
X1491Y1713D01*
X1490Y1713D01*
X1490Y1710D01*
X1489Y1710D01*
X1489Y1708D01*
X1488Y1708D01*
X1488Y1706D01*
X1487Y1706D01*
X1487Y1704D01*
X1486Y1704D01*
X1486Y1702D01*
X1485Y1702D01*
X1485Y1700D01*
X1484Y1700D01*
X1484Y1698D01*
X1483Y1698D01*
X1483Y1697D01*
X1482Y1697D01*
X1482Y1696D01*
X1490Y1696D01*
X1490Y1698D01*
X1491Y1698D01*
X1491Y1700D01*
X1492Y1700D01*
X1492Y1702D01*
X1493Y1702D01*
X1493Y1704D01*
X1494Y1704D01*
X1494Y1706D01*
X1495Y1706D01*
X1495Y1708D01*
X1496Y1708D01*
X1496Y1710D01*
X1497Y1710D01*
X1497Y1719D01*
X1496Y1719D01*
X1496Y1722D01*
X1495Y1722D01*
X1495Y1724D01*
X1494Y1724D01*
X1494Y1726D01*
X1493Y1726D01*
X1493Y1728D01*
X1492Y1728D01*
X1492Y1730D01*
X1491Y1730D01*
X1491Y1732D01*
X1490Y1732D01*
X1490Y1734D01*
X1489Y1734D01*
X1489Y1736D01*
X1488Y1736D01*
X1488Y1737D01*
X1487Y1737D01*
X1487Y1738D01*
X1486Y1738D01*
X1486Y1739D01*
X1485Y1739D01*
X1485Y1740D01*
X1477Y1740D01*
G37*
D02*
G36*
X1472Y1734D02*
X1472Y1732D01*
X1471Y1732D01*
X1471Y1730D01*
X1470Y1730D01*
X1470Y1728D01*
X1469Y1728D01*
X1469Y1726D01*
X1468Y1726D01*
X1468Y1724D01*
X1467Y1724D01*
X1467Y1722D01*
X1466Y1722D01*
X1466Y1720D01*
X1465Y1720D01*
X1465Y1709D01*
X1466Y1709D01*
X1466Y1707D01*
X1467Y1707D01*
X1467Y1705D01*
X1468Y1705D01*
X1468Y1703D01*
X1469Y1703D01*
X1469Y1701D01*
X1470Y1701D01*
X1470Y1699D01*
X1471Y1699D01*
X1471Y1697D01*
X1472Y1697D01*
X1472Y1696D01*
X1479Y1696D01*
X1479Y1698D01*
X1478Y1698D01*
X1478Y1700D01*
X1477Y1700D01*
X1477Y1702D01*
X1476Y1702D01*
X1476Y1704D01*
X1475Y1704D01*
X1475Y1706D01*
X1474Y1706D01*
X1474Y1708D01*
X1473Y1708D01*
X1473Y1710D01*
X1472Y1710D01*
X1472Y1712D01*
X1471Y1712D01*
X1471Y1717D01*
X1472Y1717D01*
X1472Y1719D01*
X1473Y1719D01*
X1473Y1721D01*
X1474Y1721D01*
X1474Y1723D01*
X1475Y1723D01*
X1475Y1725D01*
X1476Y1725D01*
X1476Y1727D01*
X1477Y1727D01*
X1477Y1729D01*
X1478Y1729D01*
X1478Y1731D01*
X1479Y1731D01*
X1479Y1733D01*
X1480Y1733D01*
X1480Y1734D01*
X1472Y1734D01*
G37*
D02*
G36*
X1472Y1696D02*
X1472Y1695D01*
X1489Y1695D01*
X1489Y1696D01*
X1472Y1696D01*
G37*
D02*
G36*
X1472Y1696D02*
X1472Y1695D01*
X1489Y1695D01*
X1489Y1696D01*
X1472Y1696D01*
G37*
D02*
G36*
X1473Y1695D02*
X1473Y1693D01*
X1474Y1693D01*
X1474Y1692D01*
X1475Y1692D01*
X1475Y1691D01*
X1476Y1691D01*
X1476Y1690D01*
X1478Y1690D01*
X1478Y1689D01*
X1484Y1689D01*
X1484Y1690D01*
X1486Y1690D01*
X1486Y1691D01*
X1487Y1691D01*
X1487Y1692D01*
X1488Y1692D01*
X1488Y1694D01*
X1489Y1694D01*
X1489Y1695D01*
X1473Y1695D01*
G37*
D02*
G36*
X1171Y1740D02*
X1171Y1739D01*
X1169Y1739D01*
X1169Y1738D01*
X1168Y1738D01*
X1168Y1736D01*
X1167Y1736D01*
X1167Y1734D01*
X1191Y1734D01*
X1191Y1733D01*
X1192Y1733D01*
X1192Y1732D01*
X1193Y1732D01*
X1193Y1729D01*
X1195Y1729D01*
X1195Y1728D01*
X1198Y1728D01*
X1198Y1729D01*
X1199Y1729D01*
X1199Y1735D01*
X1198Y1735D01*
X1198Y1737D01*
X1197Y1737D01*
X1197Y1738D01*
X1196Y1738D01*
X1196Y1739D01*
X1194Y1739D01*
X1194Y1740D01*
X1171Y1740D01*
G37*
D02*
G36*
X1167Y1734D02*
X1167Y1729D01*
X1168Y1729D01*
X1168Y1728D01*
X1169Y1728D01*
X1169Y1727D01*
X1170Y1727D01*
X1170Y1725D01*
X1171Y1725D01*
X1171Y1724D01*
X1172Y1724D01*
X1172Y1723D01*
X1173Y1723D01*
X1173Y1721D01*
X1174Y1721D01*
X1174Y1720D01*
X1175Y1720D01*
X1175Y1719D01*
X1176Y1719D01*
X1176Y1718D01*
X1177Y1718D01*
X1177Y1716D01*
X1178Y1716D01*
X1178Y1715D01*
X1179Y1715D01*
X1179Y1714D01*
X1180Y1714D01*
X1180Y1712D01*
X1181Y1712D01*
X1181Y1711D01*
X1182Y1711D01*
X1182Y1710D01*
X1183Y1710D01*
X1183Y1709D01*
X1184Y1709D01*
X1184Y1707D01*
X1185Y1707D01*
X1185Y1706D01*
X1186Y1706D01*
X1186Y1705D01*
X1187Y1705D01*
X1187Y1703D01*
X1188Y1703D01*
X1188Y1702D01*
X1189Y1702D01*
X1189Y1701D01*
X1190Y1701D01*
X1190Y1700D01*
X1191Y1700D01*
X1191Y1698D01*
X1192Y1698D01*
X1192Y1697D01*
X1193Y1697D01*
X1193Y1696D01*
X1199Y1696D01*
X1199Y1700D01*
X1198Y1700D01*
X1198Y1701D01*
X1197Y1701D01*
X1197Y1703D01*
X1196Y1703D01*
X1196Y1704D01*
X1195Y1704D01*
X1195Y1705D01*
X1194Y1705D01*
X1194Y1707D01*
X1193Y1707D01*
X1193Y1708D01*
X1192Y1708D01*
X1192Y1709D01*
X1191Y1709D01*
X1191Y1710D01*
X1190Y1710D01*
X1190Y1712D01*
X1189Y1712D01*
X1189Y1713D01*
X1188Y1713D01*
X1188Y1714D01*
X1187Y1714D01*
X1187Y1716D01*
X1186Y1716D01*
X1186Y1717D01*
X1185Y1717D01*
X1185Y1718D01*
X1184Y1718D01*
X1184Y1719D01*
X1183Y1719D01*
X1183Y1721D01*
X1182Y1721D01*
X1182Y1722D01*
X1181Y1722D01*
X1181Y1723D01*
X1180Y1723D01*
X1180Y1725D01*
X1179Y1725D01*
X1179Y1726D01*
X1178Y1726D01*
X1178Y1727D01*
X1177Y1727D01*
X1177Y1728D01*
X1176Y1728D01*
X1176Y1730D01*
X1175Y1730D01*
X1175Y1731D01*
X1174Y1731D01*
X1174Y1732D01*
X1173Y1732D01*
X1173Y1733D01*
X1174Y1733D01*
X1174Y1734D01*
X1167Y1734D01*
G37*
D02*
G36*
X1168Y1701D02*
X1168Y1700D01*
X1167Y1700D01*
X1167Y1696D01*
X1174Y1696D01*
X1174Y1697D01*
X1173Y1697D01*
X1173Y1700D01*
X1172Y1700D01*
X1172Y1701D01*
X1168Y1701D01*
G37*
D02*
G36*
X1167Y1696D02*
X1167Y1695D01*
X1199Y1695D01*
X1199Y1696D01*
X1167Y1696D01*
G37*
D02*
G36*
X1167Y1696D02*
X1167Y1695D01*
X1199Y1695D01*
X1199Y1696D01*
X1167Y1696D01*
G37*
D02*
G36*
X1167Y1695D02*
X1167Y1694D01*
X1168Y1694D01*
X1168Y1692D01*
X1169Y1692D01*
X1169Y1691D01*
X1171Y1691D01*
X1171Y1690D01*
X1173Y1690D01*
X1173Y1689D01*
X1194Y1689D01*
X1194Y1690D01*
X1196Y1690D01*
X1196Y1691D01*
X1197Y1691D01*
X1197Y1692D01*
X1198Y1692D01*
X1198Y1693D01*
X1199Y1693D01*
X1199Y1695D01*
X1167Y1695D01*
G37*
D02*
G36*
X1051Y1613D02*
X1051Y1354D01*
X1059Y1354D01*
X1059Y1605D01*
X1222Y1605D01*
X1222Y1606D01*
X1223Y1606D01*
X1223Y1613D01*
X1051Y1613D01*
G37*
D02*
G36*
X1395Y1613D02*
X1395Y1605D01*
X1559Y1605D01*
X1559Y1354D01*
X1567Y1354D01*
X1567Y1613D01*
X1395Y1613D01*
G37*
D02*
G36*
X1051Y1354D02*
X1051Y1353D01*
X1567Y1353D01*
X1567Y1354D01*
X1051Y1354D01*
G37*
D02*
G36*
X1051Y1354D02*
X1051Y1353D01*
X1567Y1353D01*
X1567Y1354D01*
X1051Y1354D01*
G37*
D02*
G36*
X1051Y1353D02*
X1051Y1346D01*
X1567Y1346D01*
X1567Y1353D01*
X1051Y1353D01*
G37*
D02*
G36*
X590Y1347D02*
X590Y1340D01*
X615Y1340D01*
X615Y1339D01*
X616Y1339D01*
X616Y1337D01*
X617Y1337D01*
X617Y1333D01*
X616Y1333D01*
X616Y1331D01*
X615Y1331D01*
X615Y1330D01*
X623Y1330D01*
X623Y1341D01*
X622Y1341D01*
X622Y1343D01*
X621Y1343D01*
X621Y1344D01*
X620Y1344D01*
X620Y1345D01*
X618Y1345D01*
X618Y1346D01*
X616Y1346D01*
X616Y1347D01*
X590Y1347D01*
G37*
D02*
G36*
X590Y1340D02*
X590Y1330D01*
X597Y1330D01*
X597Y1340D01*
X590Y1340D01*
G37*
D02*
G36*
X590Y1330D02*
X590Y1329D01*
X622Y1329D01*
X622Y1330D01*
X590Y1330D01*
G37*
D02*
G36*
X590Y1330D02*
X590Y1329D01*
X622Y1329D01*
X622Y1330D01*
X590Y1330D01*
G37*
D02*
G36*
X590Y1329D02*
X590Y1324D01*
X601Y1324D01*
X601Y1323D01*
X602Y1323D01*
X602Y1322D01*
X603Y1322D01*
X603Y1320D01*
X604Y1320D01*
X604Y1319D01*
X605Y1319D01*
X605Y1317D01*
X606Y1317D01*
X606Y1315D01*
X607Y1315D01*
X607Y1313D01*
X608Y1313D01*
X608Y1312D01*
X609Y1312D01*
X609Y1310D01*
X610Y1310D01*
X610Y1308D01*
X611Y1308D01*
X611Y1307D01*
X612Y1307D01*
X612Y1305D01*
X613Y1305D01*
X613Y1303D01*
X614Y1303D01*
X614Y1302D01*
X615Y1302D01*
X615Y1300D01*
X616Y1300D01*
X616Y1298D01*
X617Y1298D01*
X617Y1297D01*
X618Y1297D01*
X618Y1296D01*
X622Y1296D01*
X622Y1297D01*
X623Y1297D01*
X623Y1301D01*
X622Y1301D01*
X622Y1303D01*
X621Y1303D01*
X621Y1304D01*
X620Y1304D01*
X620Y1306D01*
X619Y1306D01*
X619Y1308D01*
X618Y1308D01*
X618Y1310D01*
X617Y1310D01*
X617Y1311D01*
X616Y1311D01*
X616Y1313D01*
X615Y1313D01*
X615Y1315D01*
X614Y1315D01*
X614Y1316D01*
X613Y1316D01*
X613Y1318D01*
X612Y1318D01*
X612Y1320D01*
X611Y1320D01*
X611Y1322D01*
X610Y1322D01*
X610Y1324D01*
X617Y1324D01*
X617Y1325D01*
X619Y1325D01*
X619Y1326D01*
X620Y1326D01*
X620Y1327D01*
X621Y1327D01*
X621Y1328D01*
X622Y1328D01*
X622Y1329D01*
X590Y1329D01*
G37*
D02*
G36*
X590Y1324D02*
X590Y1298D01*
X591Y1298D01*
X591Y1297D01*
X592Y1297D01*
X592Y1296D01*
X596Y1296D01*
X596Y1297D01*
X597Y1297D01*
X597Y1323D01*
X598Y1323D01*
X598Y1324D01*
X590Y1324D01*
G37*
D02*
G36*
X643Y1347D02*
X643Y1346D01*
X642Y1346D01*
X642Y1319D01*
X648Y1319D01*
X648Y1346D01*
X647Y1346D01*
X647Y1347D01*
X643Y1347D01*
G37*
D02*
G36*
X662Y1341D02*
X662Y1339D01*
X661Y1339D01*
X661Y1319D01*
X668Y1319D01*
X668Y1340D01*
X667Y1340D01*
X667Y1341D01*
X662Y1341D01*
G37*
D02*
G36*
X642Y1319D02*
X642Y1318D01*
X670Y1318D01*
X670Y1319D01*
X642Y1319D01*
G37*
D02*
G36*
X642Y1319D02*
X642Y1318D01*
X670Y1318D01*
X670Y1319D01*
X642Y1319D01*
G37*
D02*
G36*
X642Y1318D02*
X642Y1312D01*
X661Y1312D01*
X661Y1298D01*
X662Y1298D01*
X662Y1296D01*
X667Y1296D01*
X667Y1297D01*
X668Y1297D01*
X668Y1312D01*
X669Y1312D01*
X669Y1313D01*
X670Y1313D01*
X670Y1314D01*
X671Y1314D01*
X671Y1318D01*
X642Y1318D01*
G37*
D02*
G36*
X462Y1327D02*
X462Y1307D01*
X525Y1307D01*
X525Y1327D01*
X462Y1327D01*
G37*
D02*
G36*
X725Y1327D02*
X725Y1307D01*
X790Y1307D01*
X790Y1309D01*
X789Y1309D01*
X789Y1324D01*
X790Y1324D01*
X790Y1327D01*
X725Y1327D01*
G37*
D02*
G36*
X590Y1206D02*
X590Y1200D01*
X614Y1200D01*
X614Y1199D01*
X616Y1199D01*
X616Y1197D01*
X617Y1197D01*
X617Y1192D01*
X616Y1192D01*
X616Y1191D01*
X615Y1191D01*
X615Y1190D01*
X623Y1190D01*
X623Y1200D01*
X622Y1200D01*
X622Y1202D01*
X621Y1202D01*
X621Y1203D01*
X620Y1203D01*
X620Y1204D01*
X619Y1204D01*
X619Y1205D01*
X617Y1205D01*
X617Y1206D01*
X590Y1206D01*
G37*
D02*
G36*
X590Y1200D02*
X590Y1190D01*
X597Y1190D01*
X597Y1200D01*
X590Y1200D01*
G37*
D02*
G36*
X590Y1190D02*
X590Y1189D01*
X623Y1189D01*
X623Y1190D01*
X590Y1190D01*
G37*
D02*
G36*
X590Y1190D02*
X590Y1189D01*
X623Y1189D01*
X623Y1190D01*
X590Y1190D01*
G37*
D02*
G36*
X590Y1189D02*
X590Y1183D01*
X602Y1183D01*
X602Y1181D01*
X603Y1181D01*
X603Y1180D01*
X604Y1180D01*
X604Y1178D01*
X605Y1178D01*
X605Y1176D01*
X606Y1176D01*
X606Y1175D01*
X607Y1175D01*
X607Y1173D01*
X608Y1173D01*
X608Y1171D01*
X609Y1171D01*
X609Y1170D01*
X610Y1170D01*
X610Y1168D01*
X611Y1168D01*
X611Y1166D01*
X612Y1166D01*
X612Y1164D01*
X613Y1164D01*
X613Y1163D01*
X614Y1163D01*
X614Y1161D01*
X615Y1161D01*
X615Y1159D01*
X616Y1159D01*
X616Y1158D01*
X617Y1158D01*
X617Y1156D01*
X618Y1156D01*
X618Y1155D01*
X621Y1155D01*
X621Y1156D01*
X623Y1156D01*
X623Y1160D01*
X622Y1160D01*
X622Y1162D01*
X621Y1162D01*
X621Y1164D01*
X620Y1164D01*
X620Y1166D01*
X619Y1166D01*
X619Y1167D01*
X618Y1167D01*
X618Y1169D01*
X617Y1169D01*
X617Y1171D01*
X616Y1171D01*
X616Y1172D01*
X615Y1172D01*
X615Y1174D01*
X614Y1174D01*
X614Y1176D01*
X613Y1176D01*
X613Y1178D01*
X612Y1178D01*
X612Y1179D01*
X611Y1179D01*
X611Y1181D01*
X610Y1181D01*
X610Y1183D01*
X616Y1183D01*
X616Y1184D01*
X618Y1184D01*
X618Y1185D01*
X620Y1185D01*
X620Y1186D01*
X621Y1186D01*
X621Y1187D01*
X622Y1187D01*
X622Y1189D01*
X590Y1189D01*
G37*
D02*
G36*
X590Y1183D02*
X590Y1158D01*
X591Y1158D01*
X591Y1156D01*
X592Y1156D01*
X592Y1155D01*
X595Y1155D01*
X595Y1156D01*
X596Y1156D01*
X596Y1157D01*
X597Y1157D01*
X597Y1183D01*
X590Y1183D01*
G37*
D02*
G36*
X641Y1206D02*
X641Y1205D01*
X640Y1205D01*
X640Y1201D01*
X641Y1201D01*
X641Y1200D01*
X666Y1200D01*
X666Y1185D01*
X664Y1185D01*
X664Y1184D01*
X648Y1184D01*
X648Y1183D01*
X647Y1183D01*
X647Y1179D01*
X648Y1179D01*
X648Y1178D01*
X649Y1178D01*
X649Y1177D01*
X665Y1177D01*
X665Y1176D01*
X666Y1176D01*
X666Y1162D01*
X642Y1162D01*
X642Y1161D01*
X641Y1161D01*
X641Y1160D01*
X640Y1160D01*
X640Y1157D01*
X641Y1157D01*
X641Y1156D01*
X642Y1156D01*
X642Y1155D01*
X669Y1155D01*
X669Y1156D01*
X670Y1156D01*
X670Y1157D01*
X671Y1157D01*
X671Y1158D01*
X672Y1158D01*
X672Y1160D01*
X673Y1160D01*
X673Y1177D01*
X672Y1177D01*
X672Y1179D01*
X671Y1179D01*
X671Y1182D01*
X672Y1182D01*
X672Y1185D01*
X673Y1185D01*
X673Y1202D01*
X672Y1202D01*
X672Y1204D01*
X671Y1204D01*
X671Y1205D01*
X670Y1205D01*
X670Y1206D01*
X641Y1206D01*
G37*
D02*
G36*
X462Y1189D02*
X462Y1169D01*
X525Y1169D01*
X525Y1189D01*
X462Y1189D01*
G37*
D02*
G36*
X725Y1189D02*
X725Y1169D01*
X790Y1169D01*
X790Y1171D01*
X789Y1171D01*
X789Y1186D01*
X790Y1186D01*
X790Y1189D01*
X725Y1189D01*
G37*
D02*
G36*
X1111Y1150D02*
X1111Y1144D01*
X1135Y1144D01*
X1135Y1143D01*
X1137Y1143D01*
X1137Y1140D01*
X1138Y1140D01*
X1138Y1137D01*
X1137Y1137D01*
X1137Y1135D01*
X1136Y1135D01*
X1136Y1134D01*
X1144Y1134D01*
X1144Y1144D01*
X1143Y1144D01*
X1143Y1146D01*
X1142Y1146D01*
X1142Y1147D01*
X1141Y1147D01*
X1141Y1148D01*
X1140Y1148D01*
X1140Y1149D01*
X1138Y1149D01*
X1138Y1150D01*
X1111Y1150D01*
G37*
D02*
G36*
X1111Y1144D02*
X1111Y1134D01*
X1118Y1134D01*
X1118Y1144D01*
X1111Y1144D01*
G37*
D02*
G36*
X1111Y1134D02*
X1111Y1133D01*
X1144Y1133D01*
X1144Y1134D01*
X1111Y1134D01*
G37*
D02*
G36*
X1111Y1134D02*
X1111Y1133D01*
X1144Y1133D01*
X1144Y1134D01*
X1111Y1134D01*
G37*
D02*
G36*
X1111Y1133D02*
X1111Y1127D01*
X1123Y1127D01*
X1123Y1125D01*
X1124Y1125D01*
X1124Y1124D01*
X1125Y1124D01*
X1125Y1122D01*
X1126Y1122D01*
X1126Y1120D01*
X1127Y1120D01*
X1127Y1119D01*
X1128Y1119D01*
X1128Y1117D01*
X1129Y1117D01*
X1129Y1115D01*
X1130Y1115D01*
X1130Y1113D01*
X1131Y1113D01*
X1131Y1112D01*
X1132Y1112D01*
X1132Y1110D01*
X1133Y1110D01*
X1133Y1108D01*
X1134Y1108D01*
X1134Y1107D01*
X1135Y1107D01*
X1135Y1105D01*
X1136Y1105D01*
X1136Y1103D01*
X1137Y1103D01*
X1137Y1101D01*
X1138Y1101D01*
X1138Y1100D01*
X1139Y1100D01*
X1139Y1099D01*
X1142Y1099D01*
X1142Y1100D01*
X1144Y1100D01*
X1144Y1104D01*
X1143Y1104D01*
X1143Y1106D01*
X1142Y1106D01*
X1142Y1108D01*
X1141Y1108D01*
X1141Y1109D01*
X1140Y1109D01*
X1140Y1111D01*
X1139Y1111D01*
X1139Y1113D01*
X1138Y1113D01*
X1138Y1115D01*
X1137Y1115D01*
X1137Y1116D01*
X1136Y1116D01*
X1136Y1118D01*
X1135Y1118D01*
X1135Y1120D01*
X1134Y1120D01*
X1134Y1121D01*
X1133Y1121D01*
X1133Y1123D01*
X1132Y1123D01*
X1132Y1125D01*
X1131Y1125D01*
X1131Y1127D01*
X1137Y1127D01*
X1137Y1128D01*
X1139Y1128D01*
X1139Y1129D01*
X1141Y1129D01*
X1141Y1130D01*
X1142Y1130D01*
X1142Y1131D01*
X1143Y1131D01*
X1143Y1133D01*
X1111Y1133D01*
G37*
D02*
G36*
X1111Y1127D02*
X1111Y1102D01*
X1112Y1102D01*
X1112Y1100D01*
X1113Y1100D01*
X1113Y1099D01*
X1116Y1099D01*
X1116Y1100D01*
X1117Y1100D01*
X1117Y1101D01*
X1118Y1101D01*
X1118Y1127D01*
X1111Y1127D01*
G37*
D02*
G36*
X1162Y1150D02*
X1162Y1149D01*
X1161Y1149D01*
X1161Y1145D01*
X1162Y1145D01*
X1162Y1144D01*
X1174Y1144D01*
X1174Y1106D01*
X1181Y1106D01*
X1181Y1150D01*
X1162Y1150D01*
G37*
D02*
G36*
X1188Y1122D02*
X1188Y1120D01*
X1187Y1120D01*
X1187Y1106D01*
X1194Y1106D01*
X1194Y1121D01*
X1193Y1121D01*
X1193Y1122D01*
X1188Y1122D01*
G37*
D02*
G36*
X1163Y1106D02*
X1163Y1105D01*
X1194Y1105D01*
X1194Y1106D01*
X1163Y1106D01*
G37*
D02*
G36*
X1163Y1106D02*
X1163Y1105D01*
X1194Y1105D01*
X1194Y1106D01*
X1163Y1106D01*
G37*
D02*
G36*
X1162Y1105D02*
X1162Y1104D01*
X1161Y1104D01*
X1161Y1101D01*
X1162Y1101D01*
X1162Y1100D01*
X1163Y1100D01*
X1163Y1099D01*
X1192Y1099D01*
X1192Y1100D01*
X1193Y1100D01*
X1193Y1101D01*
X1194Y1101D01*
X1194Y1105D01*
X1162Y1105D01*
G37*
D02*
G36*
X985Y1130D02*
X985Y1128D01*
X986Y1128D01*
X986Y1123D01*
X987Y1123D01*
X987Y1116D01*
X986Y1116D01*
X986Y1111D01*
X985Y1111D01*
X985Y1110D01*
X1050Y1110D01*
X1050Y1130D01*
X985Y1130D01*
G37*
D02*
G36*
X1250Y1130D02*
X1250Y1110D01*
X1314Y1110D01*
X1314Y1130D01*
X1250Y1130D01*
G37*
D02*
G36*
X224Y1023D02*
X224Y763D01*
X233Y763D01*
X233Y764D01*
X232Y764D01*
X232Y1015D01*
X396Y1015D01*
X396Y1023D01*
X224Y1023D01*
G37*
D02*
G36*
X568Y1023D02*
X568Y1015D01*
X732Y1015D01*
X732Y763D01*
X740Y763D01*
X740Y1023D01*
X568Y1023D01*
G37*
D02*
G36*
X224Y763D02*
X224Y762D01*
X740Y762D01*
X740Y763D01*
X224Y763D01*
G37*
D02*
G36*
X224Y763D02*
X224Y762D01*
X740Y762D01*
X740Y763D01*
X224Y763D01*
G37*
D02*
G36*
X224Y762D02*
X224Y756D01*
X225Y756D01*
X225Y755D01*
X740Y755D01*
X740Y762D01*
X224Y762D01*
G37*
D02*
G36*
X117Y1017D02*
X117Y1010D01*
X136Y1010D01*
X136Y1009D01*
X137Y1009D01*
X137Y1008D01*
X138Y1008D01*
X138Y1007D01*
X139Y1007D01*
X139Y1005D01*
X140Y1005D01*
X140Y1004D01*
X141Y1004D01*
X141Y1003D01*
X142Y1003D01*
X142Y1002D01*
X143Y1002D01*
X143Y1001D01*
X144Y1001D01*
X144Y1000D01*
X145Y1000D01*
X145Y998D01*
X147Y998D01*
X147Y997D01*
X166Y997D01*
X166Y998D01*
X167Y998D01*
X167Y999D01*
X168Y999D01*
X168Y1002D01*
X167Y1002D01*
X167Y1003D01*
X166Y1003D01*
X166Y1004D01*
X149Y1004D01*
X149Y1005D01*
X148Y1005D01*
X148Y1006D01*
X147Y1006D01*
X147Y1007D01*
X146Y1007D01*
X146Y1009D01*
X145Y1009D01*
X145Y1010D01*
X144Y1010D01*
X144Y1011D01*
X143Y1011D01*
X143Y1012D01*
X142Y1012D01*
X142Y1013D01*
X141Y1013D01*
X141Y1014D01*
X140Y1014D01*
X140Y1016D01*
X138Y1016D01*
X138Y1017D01*
X117Y1017D01*
G37*
D02*
G36*
X117Y1010D02*
X117Y985D01*
X119Y985D01*
X119Y984D01*
X124Y984D01*
X124Y985D01*
X126Y985D01*
X126Y989D01*
X125Y989D01*
X125Y990D01*
X124Y990D01*
X124Y991D01*
X123Y991D01*
X123Y1010D01*
X117Y1010D01*
G37*
D02*
G36*
X2082Y1000D02*
X2082Y999D01*
X2080Y999D01*
X2080Y998D01*
X2079Y998D01*
X2079Y997D01*
X2078Y997D01*
X2078Y996D01*
X2077Y996D01*
X2077Y995D01*
X2076Y995D01*
X2076Y994D01*
X2075Y994D01*
X2075Y993D01*
X2098Y993D01*
X2098Y992D01*
X2099Y992D01*
X2099Y991D01*
X2100Y991D01*
X2100Y990D01*
X2101Y990D01*
X2101Y989D01*
X2102Y989D01*
X2102Y987D01*
X2103Y987D01*
X2103Y986D01*
X2104Y986D01*
X2104Y982D01*
X2103Y982D01*
X2103Y980D01*
X2102Y980D01*
X2102Y979D01*
X2101Y979D01*
X2101Y978D01*
X2100Y978D01*
X2100Y977D01*
X2099Y977D01*
X2099Y976D01*
X2098Y976D01*
X2098Y975D01*
X2097Y975D01*
X2097Y974D01*
X2106Y974D01*
X2106Y975D01*
X2107Y975D01*
X2107Y976D01*
X2108Y976D01*
X2108Y977D01*
X2109Y977D01*
X2109Y979D01*
X2110Y979D01*
X2110Y982D01*
X2111Y982D01*
X2111Y986D01*
X2110Y986D01*
X2110Y989D01*
X2109Y989D01*
X2109Y991D01*
X2108Y991D01*
X2108Y992D01*
X2107Y992D01*
X2107Y993D01*
X2106Y993D01*
X2106Y994D01*
X2105Y994D01*
X2105Y995D01*
X2104Y995D01*
X2104Y996D01*
X2103Y996D01*
X2103Y997D01*
X2102Y997D01*
X2102Y998D01*
X2101Y998D01*
X2101Y999D01*
X2099Y999D01*
X2099Y1000D01*
X2082Y1000D01*
G37*
D02*
G36*
X2074Y993D02*
X2074Y992D01*
X2073Y992D01*
X2073Y990D01*
X2072Y990D01*
X2072Y989D01*
X2071Y989D01*
X2071Y986D01*
X2070Y986D01*
X2070Y982D01*
X2071Y982D01*
X2071Y979D01*
X2072Y979D01*
X2072Y977D01*
X2073Y977D01*
X2073Y976D01*
X2074Y976D01*
X2074Y975D01*
X2075Y975D01*
X2075Y974D01*
X2084Y974D01*
X2084Y975D01*
X2083Y975D01*
X2083Y976D01*
X2082Y976D01*
X2082Y977D01*
X2081Y977D01*
X2081Y978D01*
X2080Y978D01*
X2080Y979D01*
X2079Y979D01*
X2079Y980D01*
X2078Y980D01*
X2078Y982D01*
X2077Y982D01*
X2077Y986D01*
X2078Y986D01*
X2078Y987D01*
X2079Y987D01*
X2079Y988D01*
X2080Y988D01*
X2080Y990D01*
X2081Y990D01*
X2081Y991D01*
X2082Y991D01*
X2082Y992D01*
X2083Y992D01*
X2083Y993D01*
X2074Y993D01*
G37*
D02*
G36*
X2072Y974D02*
X2072Y973D01*
X2121Y973D01*
X2121Y974D01*
X2072Y974D01*
G37*
D02*
G36*
X2072Y974D02*
X2072Y973D01*
X2121Y973D01*
X2121Y974D01*
X2072Y974D01*
G37*
D02*
G36*
X2071Y973D02*
X2071Y971D01*
X2070Y971D01*
X2070Y970D01*
X2071Y970D01*
X2071Y968D01*
X2073Y968D01*
X2073Y967D01*
X2121Y967D01*
X2121Y968D01*
X2122Y968D01*
X2122Y969D01*
X2123Y969D01*
X2123Y973D01*
X2071Y973D01*
G37*
D02*
G36*
X2219Y994D02*
X2219Y993D01*
X2218Y993D01*
X2218Y975D01*
X2225Y975D01*
X2225Y992D01*
X2224Y992D01*
X2224Y994D01*
X2219Y994D01*
G37*
D02*
G36*
X2244Y994D02*
X2244Y993D01*
X2242Y993D01*
X2242Y991D01*
X2241Y991D01*
X2241Y989D01*
X2240Y989D01*
X2240Y988D01*
X2263Y988D01*
X2263Y972D01*
X2262Y972D01*
X2262Y969D01*
X2261Y969D01*
X2261Y967D01*
X2260Y967D01*
X2260Y963D01*
X2261Y963D01*
X2261Y962D01*
X2265Y962D01*
X2265Y963D01*
X2266Y963D01*
X2266Y964D01*
X2267Y964D01*
X2267Y966D01*
X2268Y966D01*
X2268Y969D01*
X2269Y969D01*
X2269Y991D01*
X2268Y991D01*
X2268Y993D01*
X2266Y993D01*
X2266Y994D01*
X2244Y994D01*
G37*
D02*
G36*
X2240Y988D02*
X2240Y975D01*
X2247Y975D01*
X2247Y988D01*
X2240Y988D01*
G37*
D02*
G36*
X2218Y975D02*
X2218Y974D01*
X2247Y974D01*
X2247Y975D01*
X2218Y975D01*
G37*
D02*
G36*
X2218Y975D02*
X2218Y974D01*
X2247Y974D01*
X2247Y975D01*
X2218Y975D01*
G37*
D02*
G36*
X2218Y974D02*
X2218Y968D01*
X2247Y968D01*
X2247Y974D01*
X2218Y974D01*
G37*
D02*
G36*
X1118Y990D02*
X1118Y983D01*
X1143Y983D01*
X1143Y981D01*
X1144Y981D01*
X1144Y975D01*
X1143Y975D01*
X1143Y974D01*
X1142Y974D01*
X1142Y973D01*
X1150Y973D01*
X1150Y984D01*
X1149Y984D01*
X1149Y986D01*
X1148Y986D01*
X1148Y987D01*
X1147Y987D01*
X1147Y988D01*
X1146Y988D01*
X1146Y989D01*
X1144Y989D01*
X1144Y990D01*
X1118Y990D01*
G37*
D02*
G36*
X1118Y983D02*
X1118Y973D01*
X1125Y973D01*
X1125Y974D01*
X1124Y974D01*
X1124Y983D01*
X1118Y983D01*
G37*
D02*
G36*
X1118Y973D02*
X1118Y972D01*
X1150Y972D01*
X1150Y973D01*
X1118Y973D01*
G37*
D02*
G36*
X1118Y973D02*
X1118Y972D01*
X1150Y972D01*
X1150Y973D01*
X1118Y973D01*
G37*
D02*
G36*
X1118Y972D02*
X1118Y967D01*
X1129Y967D01*
X1129Y966D01*
X1130Y966D01*
X1130Y964D01*
X1131Y964D01*
X1131Y962D01*
X1132Y962D01*
X1132Y960D01*
X1133Y960D01*
X1133Y959D01*
X1134Y959D01*
X1134Y957D01*
X1135Y957D01*
X1135Y955D01*
X1136Y955D01*
X1136Y954D01*
X1137Y954D01*
X1137Y952D01*
X1138Y952D01*
X1138Y950D01*
X1139Y950D01*
X1139Y948D01*
X1140Y948D01*
X1140Y947D01*
X1141Y947D01*
X1141Y945D01*
X1142Y945D01*
X1142Y943D01*
X1143Y943D01*
X1143Y942D01*
X1144Y942D01*
X1144Y940D01*
X1145Y940D01*
X1145Y939D01*
X1149Y939D01*
X1149Y940D01*
X1150Y940D01*
X1150Y944D01*
X1149Y944D01*
X1149Y946D01*
X1148Y946D01*
X1148Y948D01*
X1147Y948D01*
X1147Y950D01*
X1146Y950D01*
X1146Y951D01*
X1145Y951D01*
X1145Y953D01*
X1144Y953D01*
X1144Y955D01*
X1143Y955D01*
X1143Y957D01*
X1142Y957D01*
X1142Y958D01*
X1141Y958D01*
X1141Y960D01*
X1140Y960D01*
X1140Y962D01*
X1139Y962D01*
X1139Y963D01*
X1138Y963D01*
X1138Y965D01*
X1137Y965D01*
X1137Y967D01*
X1145Y967D01*
X1145Y968D01*
X1146Y968D01*
X1146Y969D01*
X1147Y969D01*
X1147Y970D01*
X1148Y970D01*
X1148Y971D01*
X1149Y971D01*
X1149Y972D01*
X1118Y972D01*
G37*
D02*
G36*
X1118Y967D02*
X1118Y940D01*
X1119Y940D01*
X1119Y939D01*
X1123Y939D01*
X1123Y940D01*
X1124Y940D01*
X1124Y966D01*
X1125Y966D01*
X1125Y967D01*
X1118Y967D01*
G37*
D02*
G36*
X1169Y990D02*
X1169Y989D01*
X1168Y989D01*
X1168Y988D01*
X1167Y988D01*
X1167Y986D01*
X1168Y986D01*
X1168Y984D01*
X1170Y984D01*
X1170Y983D01*
X1193Y983D01*
X1193Y968D01*
X1173Y968D01*
X1173Y967D01*
X1170Y967D01*
X1170Y966D01*
X1169Y966D01*
X1169Y965D01*
X1168Y965D01*
X1168Y962D01*
X1167Y962D01*
X1167Y939D01*
X1199Y939D01*
X1199Y940D01*
X1200Y940D01*
X1200Y944D01*
X1199Y944D01*
X1199Y945D01*
X1174Y945D01*
X1174Y961D01*
X1196Y961D01*
X1196Y962D01*
X1198Y962D01*
X1198Y963D01*
X1199Y963D01*
X1199Y965D01*
X1200Y965D01*
X1200Y986D01*
X1199Y986D01*
X1199Y988D01*
X1198Y988D01*
X1198Y989D01*
X1196Y989D01*
X1196Y990D01*
X1169Y990D01*
G37*
D02*
G36*
X993Y972D02*
X993Y952D01*
X1056Y952D01*
X1056Y953D01*
X1057Y953D01*
X1057Y972D01*
X993Y972D01*
G37*
D02*
G36*
X1257Y972D02*
X1257Y952D01*
X1322Y952D01*
X1322Y953D01*
X1321Y953D01*
X1321Y957D01*
X1320Y957D01*
X1320Y968D01*
X1321Y968D01*
X1321Y972D01*
X1257Y972D01*
G37*
D02*
G36*
X120Y967D02*
X120Y966D01*
X119Y966D01*
X119Y965D01*
X118Y965D01*
X118Y964D01*
X117Y964D01*
X117Y961D01*
X161Y961D01*
X161Y960D01*
X162Y960D01*
X162Y942D01*
X161Y942D01*
X161Y941D01*
X168Y941D01*
X168Y963D01*
X167Y963D01*
X167Y965D01*
X166Y965D01*
X166Y966D01*
X165Y966D01*
X165Y967D01*
X120Y967D01*
G37*
D02*
G36*
X117Y961D02*
X117Y941D01*
X123Y941D01*
X123Y960D01*
X124Y960D01*
X124Y961D01*
X117Y961D01*
G37*
D02*
G36*
X117Y941D02*
X117Y940D01*
X168Y940D01*
X168Y941D01*
X117Y941D01*
G37*
D02*
G36*
X117Y941D02*
X117Y940D01*
X168Y940D01*
X168Y941D01*
X117Y941D01*
G37*
D02*
G36*
X117Y940D02*
X117Y938D01*
X118Y938D01*
X118Y937D01*
X119Y937D01*
X119Y936D01*
X120Y936D01*
X120Y935D01*
X124Y935D01*
X124Y934D01*
X161Y934D01*
X161Y935D01*
X165Y935D01*
X165Y936D01*
X166Y936D01*
X166Y937D01*
X167Y937D01*
X167Y938D01*
X168Y938D01*
X168Y940D01*
X117Y940D01*
G37*
D02*
G36*
X2094Y951D02*
X2094Y950D01*
X2077Y950D01*
X2077Y949D01*
X2075Y949D01*
X2075Y948D01*
X2074Y948D01*
X2074Y947D01*
X2073Y947D01*
X2073Y945D01*
X2072Y945D01*
X2072Y939D01*
X2073Y939D01*
X2073Y937D01*
X2074Y937D01*
X2074Y936D01*
X2075Y936D01*
X2075Y935D01*
X2074Y935D01*
X2074Y934D01*
X2073Y934D01*
X2073Y932D01*
X2072Y932D01*
X2072Y926D01*
X2073Y926D01*
X2073Y924D01*
X2074Y924D01*
X2074Y923D01*
X2073Y923D01*
X2073Y922D01*
X2072Y922D01*
X2072Y918D01*
X2074Y918D01*
X2074Y917D01*
X2107Y917D01*
X2107Y918D01*
X2109Y918D01*
X2109Y922D01*
X2108Y922D01*
X2108Y923D01*
X2107Y923D01*
X2107Y924D01*
X2082Y924D01*
X2082Y925D01*
X2081Y925D01*
X2081Y926D01*
X2080Y926D01*
X2080Y928D01*
X2079Y928D01*
X2079Y931D01*
X2108Y931D01*
X2108Y932D01*
X2109Y932D01*
X2109Y936D01*
X2108Y936D01*
X2108Y937D01*
X2082Y937D01*
X2082Y938D01*
X2081Y938D01*
X2081Y939D01*
X2080Y939D01*
X2080Y941D01*
X2079Y941D01*
X2079Y943D01*
X2085Y943D01*
X2085Y944D01*
X2107Y944D01*
X2107Y945D01*
X2108Y945D01*
X2108Y946D01*
X2109Y946D01*
X2109Y950D01*
X2107Y950D01*
X2107Y951D01*
X2094Y951D01*
G37*
D02*
G36*
X2376Y950D02*
X2376Y949D01*
X2375Y949D01*
X2375Y948D01*
X2374Y948D01*
X2374Y947D01*
X2373Y947D01*
X2373Y944D01*
X2417Y944D01*
X2417Y943D01*
X2418Y943D01*
X2418Y925D01*
X2417Y925D01*
X2417Y924D01*
X2424Y924D01*
X2424Y947D01*
X2423Y947D01*
X2423Y948D01*
X2422Y948D01*
X2422Y949D01*
X2421Y949D01*
X2421Y950D01*
X2376Y950D01*
G37*
D02*
G36*
X2373Y944D02*
X2373Y924D01*
X2380Y924D01*
X2380Y925D01*
X2379Y925D01*
X2379Y943D01*
X2380Y943D01*
X2380Y944D01*
X2373Y944D01*
G37*
D02*
G36*
X2373Y924D02*
X2373Y923D01*
X2424Y923D01*
X2424Y924D01*
X2373Y924D01*
G37*
D02*
G36*
X2373Y924D02*
X2373Y923D01*
X2424Y923D01*
X2424Y924D01*
X2373Y924D01*
G37*
D02*
G36*
X2373Y923D02*
X2373Y921D01*
X2374Y921D01*
X2374Y920D01*
X2375Y920D01*
X2375Y919D01*
X2376Y919D01*
X2376Y918D01*
X2421Y918D01*
X2421Y919D01*
X2422Y919D01*
X2422Y920D01*
X2423Y920D01*
X2423Y921D01*
X2424Y921D01*
X2424Y923D01*
X2373Y923D01*
G37*
D02*
G36*
X2220Y945D02*
X2220Y944D01*
X2219Y944D01*
X2219Y943D01*
X2218Y943D01*
X2218Y938D01*
X2263Y938D01*
X2263Y936D01*
X2264Y936D01*
X2264Y935D01*
X2268Y935D01*
X2268Y936D01*
X2269Y936D01*
X2269Y944D01*
X2268Y944D01*
X2268Y945D01*
X2220Y945D01*
G37*
D02*
G36*
X2218Y938D02*
X2218Y919D01*
X2225Y919D01*
X2225Y938D01*
X2218Y938D01*
G37*
D02*
G36*
X2235Y938D02*
X2235Y919D01*
X2242Y919D01*
X2242Y938D01*
X2235Y938D01*
G37*
D02*
G36*
X2218Y919D02*
X2218Y918D01*
X2242Y918D01*
X2242Y919D01*
X2218Y919D01*
G37*
D02*
G36*
X2218Y919D02*
X2218Y918D01*
X2242Y918D01*
X2242Y919D01*
X2218Y919D01*
G37*
D02*
G36*
X2218Y918D02*
X2218Y914D01*
X2219Y914D01*
X2219Y913D01*
X2220Y913D01*
X2220Y912D01*
X2240Y912D01*
X2240Y913D01*
X2241Y913D01*
X2241Y916D01*
X2242Y916D01*
X2242Y918D01*
X2218Y918D01*
G37*
D02*
G36*
X122Y918D02*
X122Y917D01*
X120Y917D01*
X120Y916D01*
X119Y916D01*
X119Y915D01*
X142Y915D01*
X142Y916D01*
X140Y916D01*
X140Y917D01*
X137Y917D01*
X137Y918D01*
X122Y918D01*
G37*
D02*
G36*
X148Y918D02*
X148Y917D01*
X145Y917D01*
X145Y916D01*
X143Y916D01*
X143Y915D01*
X166Y915D01*
X166Y916D01*
X165Y916D01*
X165Y917D01*
X163Y917D01*
X163Y918D01*
X148Y918D01*
G37*
D02*
G36*
X118Y915D02*
X118Y914D01*
X167Y914D01*
X167Y915D01*
X118Y915D01*
G37*
D02*
G36*
X118Y915D02*
X118Y914D01*
X167Y914D01*
X167Y915D01*
X118Y915D01*
G37*
D02*
G36*
X117Y914D02*
X117Y911D01*
X161Y911D01*
X161Y910D01*
X162Y910D01*
X162Y886D01*
X163Y886D01*
X163Y885D01*
X167Y885D01*
X167Y886D01*
X168Y886D01*
X168Y914D01*
X117Y914D01*
G37*
D02*
G36*
X117Y911D02*
X117Y886D01*
X118Y886D01*
X118Y885D01*
X122Y885D01*
X122Y886D01*
X123Y886D01*
X123Y911D01*
X117Y911D01*
G37*
D02*
G36*
X137Y911D02*
X137Y910D01*
X139Y910D01*
X139Y893D01*
X140Y893D01*
X140Y892D01*
X142Y892D01*
X142Y891D01*
X143Y891D01*
X143Y892D01*
X145Y892D01*
X145Y893D01*
X146Y893D01*
X146Y910D01*
X147Y910D01*
X147Y911D01*
X137Y911D01*
G37*
D02*
G36*
X2099Y901D02*
X2099Y900D01*
X2079Y900D01*
X2079Y899D01*
X2077Y899D01*
X2077Y898D01*
X2075Y898D01*
X2075Y897D01*
X2074Y897D01*
X2074Y896D01*
X2073Y896D01*
X2073Y894D01*
X2099Y894D01*
X2099Y892D01*
X2100Y892D01*
X2100Y890D01*
X2101Y890D01*
X2101Y889D01*
X2102Y889D01*
X2102Y887D01*
X2103Y887D01*
X2103Y877D01*
X2102Y877D01*
X2102Y875D01*
X2109Y875D01*
X2109Y890D01*
X2108Y890D01*
X2108Y891D01*
X2107Y891D01*
X2107Y893D01*
X2106Y893D01*
X2106Y894D01*
X2107Y894D01*
X2107Y895D01*
X2109Y895D01*
X2109Y899D01*
X2108Y899D01*
X2108Y900D01*
X2107Y900D01*
X2107Y901D01*
X2099Y901D01*
G37*
D02*
G36*
X2072Y894D02*
X2072Y893D01*
X2086Y893D01*
X2086Y875D01*
X2093Y875D01*
X2093Y877D01*
X2092Y877D01*
X2092Y891D01*
X2093Y891D01*
X2093Y893D01*
X2095Y893D01*
X2095Y894D01*
X2072Y894D01*
G37*
D02*
G36*
X2072Y893D02*
X2072Y876D01*
X2073Y876D01*
X2073Y875D01*
X2077Y875D01*
X2077Y876D01*
X2078Y876D01*
X2078Y890D01*
X2079Y890D01*
X2079Y892D01*
X2080Y892D01*
X2080Y893D01*
X2072Y893D01*
G37*
D02*
G36*
X2086Y875D02*
X2086Y874D01*
X2109Y874D01*
X2109Y875D01*
X2086Y875D01*
G37*
D02*
G36*
X2086Y875D02*
X2086Y874D01*
X2109Y874D01*
X2109Y875D01*
X2086Y875D01*
G37*
D02*
G36*
X2087Y874D02*
X2087Y872D01*
X2088Y872D01*
X2088Y871D01*
X2089Y871D01*
X2089Y870D01*
X2090Y870D01*
X2090Y869D01*
X2093Y869D01*
X2093Y868D01*
X2102Y868D01*
X2102Y869D01*
X2105Y869D01*
X2105Y870D01*
X2106Y870D01*
X2106Y871D01*
X2107Y871D01*
X2107Y872D01*
X2108Y872D01*
X2108Y874D01*
X2087Y874D01*
G37*
D02*
G36*
X2378Y901D02*
X2378Y900D01*
X2376Y900D01*
X2376Y899D01*
X2374Y899D01*
X2374Y897D01*
X2373Y897D01*
X2373Y894D01*
X2418Y894D01*
X2418Y875D01*
X2424Y875D01*
X2424Y897D01*
X2423Y897D01*
X2423Y898D01*
X2422Y898D01*
X2422Y899D01*
X2421Y899D01*
X2421Y900D01*
X2419Y900D01*
X2419Y901D01*
X2378Y901D01*
G37*
D02*
G36*
X2373Y894D02*
X2373Y875D01*
X2379Y875D01*
X2379Y894D01*
X2373Y894D01*
G37*
D02*
G36*
X2373Y875D02*
X2373Y874D01*
X2424Y874D01*
X2424Y875D01*
X2373Y875D01*
G37*
D02*
G36*
X2373Y875D02*
X2373Y874D01*
X2424Y874D01*
X2424Y875D01*
X2373Y875D01*
G37*
D02*
G36*
X2373Y874D02*
X2373Y872D01*
X2374Y872D01*
X2374Y870D01*
X2375Y870D01*
X2375Y869D01*
X2377Y869D01*
X2377Y868D01*
X2420Y868D01*
X2420Y869D01*
X2422Y869D01*
X2422Y870D01*
X2423Y870D01*
X2423Y872D01*
X2424Y872D01*
X2424Y874D01*
X2373Y874D01*
G37*
D02*
G36*
X2222Y895D02*
X2222Y894D01*
X2220Y894D01*
X2220Y893D01*
X2243Y893D01*
X2243Y894D01*
X2241Y894D01*
X2241Y895D01*
X2222Y895D01*
G37*
D02*
G36*
X2247Y895D02*
X2247Y894D01*
X2245Y894D01*
X2245Y893D01*
X2267Y893D01*
X2267Y894D01*
X2266Y894D01*
X2266Y895D01*
X2247Y895D01*
G37*
D02*
G36*
X2219Y893D02*
X2219Y892D01*
X2268Y892D01*
X2268Y893D01*
X2219Y893D01*
G37*
D02*
G36*
X2219Y893D02*
X2219Y892D01*
X2268Y892D01*
X2268Y893D01*
X2219Y893D01*
G37*
D02*
G36*
X2219Y892D02*
X2219Y891D01*
X2218Y891D01*
X2218Y889D01*
X2262Y889D01*
X2262Y888D01*
X2263Y888D01*
X2263Y864D01*
X2264Y864D01*
X2264Y863D01*
X2265Y863D01*
X2265Y862D01*
X2267Y862D01*
X2267Y863D01*
X2269Y863D01*
X2269Y892D01*
X2219Y892D01*
G37*
D02*
G36*
X2218Y889D02*
X2218Y864D01*
X2219Y864D01*
X2219Y863D01*
X2221Y863D01*
X2221Y862D01*
X2222Y862D01*
X2222Y863D01*
X2224Y863D01*
X2224Y865D01*
X2225Y865D01*
X2225Y889D01*
X2218Y889D01*
G37*
D02*
G36*
X2237Y889D02*
X2237Y888D01*
X2239Y888D01*
X2239Y887D01*
X2240Y887D01*
X2240Y872D01*
X2241Y872D01*
X2241Y870D01*
X2242Y870D01*
X2242Y869D01*
X2246Y869D01*
X2246Y870D01*
X2247Y870D01*
X2247Y887D01*
X2248Y887D01*
X2248Y888D01*
X2250Y888D01*
X2250Y889D01*
X2237Y889D01*
G37*
D02*
G36*
X1011Y870D02*
X1011Y869D01*
X1005Y869D01*
X1005Y868D01*
X1000Y868D01*
X1000Y867D01*
X996Y867D01*
X996Y866D01*
X993Y866D01*
X993Y865D01*
X990Y865D01*
X990Y864D01*
X987Y864D01*
X987Y863D01*
X985Y863D01*
X985Y862D01*
X983Y862D01*
X983Y861D01*
X980Y861D01*
X980Y860D01*
X1038Y860D01*
X1038Y859D01*
X1044Y859D01*
X1044Y858D01*
X1049Y858D01*
X1049Y857D01*
X1052Y857D01*
X1052Y856D01*
X1055Y856D01*
X1055Y855D01*
X1058Y855D01*
X1058Y854D01*
X1061Y854D01*
X1061Y853D01*
X1063Y853D01*
X1063Y852D01*
X1065Y852D01*
X1065Y851D01*
X1068Y851D01*
X1068Y850D01*
X1070Y850D01*
X1070Y849D01*
X1071Y849D01*
X1071Y848D01*
X1073Y848D01*
X1073Y847D01*
X1075Y847D01*
X1075Y846D01*
X1076Y846D01*
X1076Y845D01*
X1078Y845D01*
X1078Y844D01*
X1079Y844D01*
X1079Y843D01*
X1081Y843D01*
X1081Y842D01*
X1082Y842D01*
X1082Y841D01*
X1083Y841D01*
X1083Y840D01*
X1085Y840D01*
X1085Y839D01*
X1086Y839D01*
X1086Y838D01*
X1087Y838D01*
X1087Y837D01*
X1088Y837D01*
X1088Y836D01*
X1089Y836D01*
X1089Y835D01*
X1090Y835D01*
X1090Y834D01*
X1091Y834D01*
X1091Y833D01*
X1092Y833D01*
X1092Y832D01*
X1093Y832D01*
X1093Y831D01*
X1094Y831D01*
X1094Y830D01*
X1095Y830D01*
X1095Y829D01*
X1096Y829D01*
X1096Y828D01*
X1097Y828D01*
X1097Y827D01*
X1098Y827D01*
X1098Y826D01*
X1099Y826D01*
X1099Y824D01*
X1100Y824D01*
X1100Y823D01*
X1101Y823D01*
X1101Y822D01*
X1102Y822D01*
X1102Y820D01*
X1103Y820D01*
X1103Y819D01*
X1104Y819D01*
X1104Y817D01*
X1105Y817D01*
X1105Y816D01*
X1106Y816D01*
X1106Y814D01*
X1107Y814D01*
X1107Y812D01*
X1108Y812D01*
X1108Y811D01*
X1109Y811D01*
X1109Y809D01*
X1110Y809D01*
X1110Y807D01*
X1111Y807D01*
X1111Y806D01*
X1115Y806D01*
X1115Y794D01*
X1116Y794D01*
X1116Y790D01*
X1117Y790D01*
X1117Y786D01*
X1118Y786D01*
X1118Y780D01*
X1119Y780D01*
X1119Y770D01*
X1120Y770D01*
X1120Y761D01*
X1119Y761D01*
X1119Y751D01*
X1118Y751D01*
X1118Y745D01*
X1117Y745D01*
X1117Y741D01*
X1116Y741D01*
X1116Y737D01*
X1115Y737D01*
X1115Y725D01*
X1111Y725D01*
X1111Y724D01*
X1110Y724D01*
X1110Y722D01*
X1109Y722D01*
X1109Y720D01*
X1108Y720D01*
X1108Y719D01*
X1107Y719D01*
X1107Y717D01*
X1106Y717D01*
X1106Y715D01*
X1105Y715D01*
X1105Y714D01*
X1104Y714D01*
X1104Y712D01*
X1103Y712D01*
X1103Y711D01*
X1102Y711D01*
X1102Y709D01*
X1101Y709D01*
X1101Y708D01*
X1100Y708D01*
X1100Y707D01*
X1099Y707D01*
X1099Y705D01*
X1098Y705D01*
X1098Y704D01*
X1097Y704D01*
X1097Y703D01*
X1096Y703D01*
X1096Y702D01*
X1095Y702D01*
X1095Y701D01*
X1094Y701D01*
X1094Y700D01*
X1093Y700D01*
X1093Y699D01*
X1092Y699D01*
X1092Y698D01*
X1091Y698D01*
X1091Y697D01*
X1090Y697D01*
X1090Y696D01*
X1089Y696D01*
X1089Y695D01*
X1088Y695D01*
X1088Y694D01*
X1087Y694D01*
X1087Y693D01*
X1086Y693D01*
X1086Y692D01*
X1085Y692D01*
X1085Y691D01*
X1083Y691D01*
X1083Y690D01*
X1082Y690D01*
X1082Y689D01*
X1081Y689D01*
X1081Y688D01*
X1079Y688D01*
X1079Y687D01*
X1078Y687D01*
X1078Y686D01*
X1076Y686D01*
X1076Y685D01*
X1075Y685D01*
X1075Y684D01*
X1073Y684D01*
X1073Y683D01*
X1071Y683D01*
X1071Y682D01*
X1070Y682D01*
X1070Y681D01*
X1068Y681D01*
X1068Y680D01*
X1066Y680D01*
X1066Y679D01*
X1063Y679D01*
X1063Y678D01*
X1061Y678D01*
X1061Y677D01*
X1058Y677D01*
X1058Y676D01*
X1055Y676D01*
X1055Y675D01*
X1052Y675D01*
X1052Y674D01*
X1049Y674D01*
X1049Y673D01*
X1044Y673D01*
X1044Y672D01*
X1039Y672D01*
X1039Y671D01*
X1071Y671D01*
X1071Y672D01*
X1073Y672D01*
X1073Y673D01*
X1075Y673D01*
X1075Y674D01*
X1076Y674D01*
X1076Y675D01*
X1078Y675D01*
X1078Y676D01*
X1080Y676D01*
X1080Y677D01*
X1081Y677D01*
X1081Y678D01*
X1083Y678D01*
X1083Y679D01*
X1084Y679D01*
X1084Y680D01*
X1086Y680D01*
X1086Y681D01*
X1087Y681D01*
X1087Y682D01*
X1088Y682D01*
X1088Y683D01*
X1090Y683D01*
X1090Y684D01*
X1091Y684D01*
X1091Y685D01*
X1092Y685D01*
X1092Y686D01*
X1093Y686D01*
X1093Y687D01*
X1094Y687D01*
X1094Y688D01*
X1095Y688D01*
X1095Y689D01*
X1096Y689D01*
X1096Y690D01*
X1098Y690D01*
X1098Y691D01*
X1099Y691D01*
X1099Y692D01*
X1100Y692D01*
X1100Y693D01*
X1101Y693D01*
X1101Y695D01*
X1102Y695D01*
X1102Y696D01*
X1103Y696D01*
X1103Y697D01*
X1104Y697D01*
X1104Y698D01*
X1105Y698D01*
X1105Y699D01*
X1106Y699D01*
X1106Y700D01*
X1107Y700D01*
X1107Y702D01*
X1108Y702D01*
X1108Y703D01*
X1109Y703D01*
X1109Y704D01*
X1110Y704D01*
X1110Y706D01*
X1111Y706D01*
X1111Y707D01*
X1112Y707D01*
X1112Y709D01*
X1113Y709D01*
X1113Y710D01*
X1114Y710D01*
X1114Y712D01*
X1115Y712D01*
X1115Y714D01*
X1116Y714D01*
X1116Y715D01*
X1117Y715D01*
X1117Y717D01*
X1118Y717D01*
X1118Y719D01*
X1119Y719D01*
X1119Y721D01*
X1120Y721D01*
X1120Y723D01*
X1121Y723D01*
X1121Y725D01*
X1122Y725D01*
X1122Y728D01*
X1123Y728D01*
X1123Y731D01*
X1124Y731D01*
X1124Y734D01*
X1125Y734D01*
X1125Y737D01*
X1126Y737D01*
X1126Y740D01*
X1127Y740D01*
X1127Y745D01*
X1128Y745D01*
X1128Y750D01*
X1129Y750D01*
X1129Y761D01*
X1130Y761D01*
X1130Y770D01*
X1129Y770D01*
X1129Y781D01*
X1128Y781D01*
X1128Y786D01*
X1127Y786D01*
X1127Y791D01*
X1126Y791D01*
X1126Y794D01*
X1125Y794D01*
X1125Y797D01*
X1124Y797D01*
X1124Y800D01*
X1123Y800D01*
X1123Y803D01*
X1122Y803D01*
X1122Y805D01*
X1121Y805D01*
X1121Y808D01*
X1120Y808D01*
X1120Y810D01*
X1119Y810D01*
X1119Y812D01*
X1118Y812D01*
X1118Y814D01*
X1117Y814D01*
X1117Y816D01*
X1116Y816D01*
X1116Y817D01*
X1115Y817D01*
X1115Y819D01*
X1114Y819D01*
X1114Y821D01*
X1113Y821D01*
X1113Y822D01*
X1112Y822D01*
X1112Y824D01*
X1111Y824D01*
X1111Y825D01*
X1110Y825D01*
X1110Y827D01*
X1109Y827D01*
X1109Y828D01*
X1108Y828D01*
X1108Y829D01*
X1107Y829D01*
X1107Y831D01*
X1106Y831D01*
X1106Y832D01*
X1105Y832D01*
X1105Y833D01*
X1104Y833D01*
X1104Y834D01*
X1103Y834D01*
X1103Y835D01*
X1102Y835D01*
X1102Y836D01*
X1101Y836D01*
X1101Y837D01*
X1100Y837D01*
X1100Y839D01*
X1099Y839D01*
X1099Y840D01*
X1098Y840D01*
X1098Y841D01*
X1096Y841D01*
X1096Y842D01*
X1095Y842D01*
X1095Y843D01*
X1094Y843D01*
X1094Y844D01*
X1093Y844D01*
X1093Y845D01*
X1092Y845D01*
X1092Y846D01*
X1091Y846D01*
X1091Y847D01*
X1090Y847D01*
X1090Y848D01*
X1088Y848D01*
X1088Y849D01*
X1087Y849D01*
X1087Y850D01*
X1086Y850D01*
X1086Y851D01*
X1084Y851D01*
X1084Y852D01*
X1083Y852D01*
X1083Y853D01*
X1081Y853D01*
X1081Y854D01*
X1080Y854D01*
X1080Y855D01*
X1078Y855D01*
X1078Y856D01*
X1076Y856D01*
X1076Y857D01*
X1075Y857D01*
X1075Y858D01*
X1073Y858D01*
X1073Y859D01*
X1071Y859D01*
X1071Y860D01*
X1069Y860D01*
X1069Y861D01*
X1067Y861D01*
X1067Y862D01*
X1064Y862D01*
X1064Y863D01*
X1062Y863D01*
X1062Y864D01*
X1059Y864D01*
X1059Y865D01*
X1056Y865D01*
X1056Y866D01*
X1053Y866D01*
X1053Y867D01*
X1049Y867D01*
X1049Y868D01*
X1045Y868D01*
X1045Y869D01*
X1039Y869D01*
X1039Y870D01*
X1011Y870D01*
G37*
D02*
G36*
X978Y860D02*
X978Y859D01*
X976Y859D01*
X976Y858D01*
X975Y858D01*
X975Y857D01*
X973Y857D01*
X973Y856D01*
X971Y856D01*
X971Y855D01*
X970Y855D01*
X970Y854D01*
X968Y854D01*
X968Y853D01*
X966Y853D01*
X966Y852D01*
X965Y852D01*
X965Y851D01*
X964Y851D01*
X964Y850D01*
X962Y850D01*
X962Y849D01*
X961Y849D01*
X961Y848D01*
X960Y848D01*
X960Y847D01*
X958Y847D01*
X958Y846D01*
X957Y846D01*
X957Y845D01*
X956Y845D01*
X956Y844D01*
X955Y844D01*
X955Y843D01*
X954Y843D01*
X954Y842D01*
X953Y842D01*
X953Y841D01*
X952Y841D01*
X952Y840D01*
X951Y840D01*
X951Y839D01*
X950Y839D01*
X950Y838D01*
X949Y838D01*
X949Y837D01*
X948Y837D01*
X948Y836D01*
X947Y836D01*
X947Y835D01*
X946Y835D01*
X946Y834D01*
X945Y834D01*
X945Y833D01*
X944Y833D01*
X944Y832D01*
X943Y832D01*
X943Y830D01*
X942Y830D01*
X942Y829D01*
X941Y829D01*
X941Y828D01*
X940Y828D01*
X940Y826D01*
X939Y826D01*
X939Y825D01*
X938Y825D01*
X938Y824D01*
X937Y824D01*
X937Y822D01*
X936Y822D01*
X936Y820D01*
X935Y820D01*
X935Y819D01*
X934Y819D01*
X934Y817D01*
X933Y817D01*
X933Y815D01*
X932Y815D01*
X932Y813D01*
X931Y813D01*
X931Y812D01*
X930Y812D01*
X930Y809D01*
X929Y809D01*
X929Y807D01*
X928Y807D01*
X928Y805D01*
X927Y805D01*
X927Y802D01*
X926Y802D01*
X926Y800D01*
X925Y800D01*
X925Y797D01*
X924Y797D01*
X924Y793D01*
X923Y793D01*
X923Y790D01*
X922Y790D01*
X922Y785D01*
X921Y785D01*
X921Y779D01*
X920Y779D01*
X920Y752D01*
X921Y752D01*
X921Y746D01*
X922Y746D01*
X922Y741D01*
X923Y741D01*
X923Y738D01*
X924Y738D01*
X924Y734D01*
X925Y734D01*
X925Y731D01*
X926Y731D01*
X926Y729D01*
X927Y729D01*
X927Y726D01*
X928Y726D01*
X928Y724D01*
X929Y724D01*
X929Y722D01*
X930Y722D01*
X930Y719D01*
X931Y719D01*
X931Y718D01*
X932Y718D01*
X932Y716D01*
X933Y716D01*
X933Y714D01*
X934Y714D01*
X934Y712D01*
X935Y712D01*
X935Y711D01*
X936Y711D01*
X936Y709D01*
X937Y709D01*
X937Y707D01*
X938Y707D01*
X938Y706D01*
X939Y706D01*
X939Y705D01*
X940Y705D01*
X940Y703D01*
X941Y703D01*
X941Y702D01*
X942Y702D01*
X942Y701D01*
X943Y701D01*
X943Y699D01*
X944Y699D01*
X944Y698D01*
X945Y698D01*
X945Y697D01*
X946Y697D01*
X946Y696D01*
X947Y696D01*
X947Y695D01*
X948Y695D01*
X948Y694D01*
X949Y694D01*
X949Y693D01*
X950Y693D01*
X950Y692D01*
X951Y692D01*
X951Y691D01*
X952Y691D01*
X952Y690D01*
X953Y690D01*
X953Y689D01*
X954Y689D01*
X954Y688D01*
X955Y688D01*
X955Y687D01*
X956Y687D01*
X956Y686D01*
X957Y686D01*
X957Y685D01*
X958Y685D01*
X958Y684D01*
X960Y684D01*
X960Y683D01*
X961Y683D01*
X961Y682D01*
X962Y682D01*
X962Y681D01*
X964Y681D01*
X964Y680D01*
X965Y680D01*
X965Y679D01*
X966Y679D01*
X966Y678D01*
X968Y678D01*
X968Y677D01*
X969Y677D01*
X969Y676D01*
X971Y676D01*
X971Y675D01*
X973Y675D01*
X973Y674D01*
X975Y674D01*
X975Y673D01*
X976Y673D01*
X976Y672D01*
X978Y672D01*
X978Y671D01*
X1011Y671D01*
X1011Y672D01*
X1005Y672D01*
X1005Y673D01*
X1001Y673D01*
X1001Y674D01*
X997Y674D01*
X997Y675D01*
X994Y675D01*
X994Y676D01*
X991Y676D01*
X991Y677D01*
X988Y677D01*
X988Y678D01*
X986Y678D01*
X986Y679D01*
X984Y679D01*
X984Y680D01*
X982Y680D01*
X982Y681D01*
X980Y681D01*
X980Y682D01*
X978Y682D01*
X978Y683D01*
X976Y683D01*
X976Y684D01*
X974Y684D01*
X974Y685D01*
X973Y685D01*
X973Y686D01*
X971Y686D01*
X971Y687D01*
X970Y687D01*
X970Y688D01*
X968Y688D01*
X968Y689D01*
X967Y689D01*
X967Y690D01*
X966Y690D01*
X966Y691D01*
X965Y691D01*
X965Y692D01*
X963Y692D01*
X963Y693D01*
X962Y693D01*
X962Y694D01*
X961Y694D01*
X961Y695D01*
X960Y695D01*
X960Y696D01*
X959Y696D01*
X959Y697D01*
X958Y697D01*
X958Y698D01*
X957Y698D01*
X957Y699D01*
X956Y699D01*
X956Y700D01*
X955Y700D01*
X955Y701D01*
X954Y701D01*
X954Y702D01*
X953Y702D01*
X953Y703D01*
X952Y703D01*
X952Y704D01*
X951Y704D01*
X951Y706D01*
X950Y706D01*
X950Y707D01*
X949Y707D01*
X949Y708D01*
X948Y708D01*
X948Y709D01*
X947Y709D01*
X947Y711D01*
X946Y711D01*
X946Y712D01*
X945Y712D01*
X945Y714D01*
X944Y714D01*
X944Y715D01*
X943Y715D01*
X943Y717D01*
X942Y717D01*
X942Y719D01*
X941Y719D01*
X941Y721D01*
X940Y721D01*
X940Y723D01*
X939Y723D01*
X939Y725D01*
X938Y725D01*
X938Y727D01*
X937Y727D01*
X937Y729D01*
X936Y729D01*
X936Y732D01*
X935Y732D01*
X935Y735D01*
X934Y735D01*
X934Y738D01*
X933Y738D01*
X933Y742D01*
X932Y742D01*
X932Y746D01*
X931Y746D01*
X931Y752D01*
X930Y752D01*
X930Y779D01*
X931Y779D01*
X931Y785D01*
X932Y785D01*
X932Y789D01*
X933Y789D01*
X933Y793D01*
X934Y793D01*
X934Y796D01*
X935Y796D01*
X935Y799D01*
X936Y799D01*
X936Y801D01*
X937Y801D01*
X937Y804D01*
X938Y804D01*
X938Y806D01*
X939Y806D01*
X939Y808D01*
X940Y808D01*
X940Y810D01*
X941Y810D01*
X941Y812D01*
X942Y812D01*
X942Y814D01*
X943Y814D01*
X943Y816D01*
X944Y816D01*
X944Y817D01*
X945Y817D01*
X945Y819D01*
X946Y819D01*
X946Y820D01*
X947Y820D01*
X947Y821D01*
X948Y821D01*
X948Y823D01*
X949Y823D01*
X949Y824D01*
X950Y824D01*
X950Y825D01*
X951Y825D01*
X951Y827D01*
X952Y827D01*
X952Y828D01*
X953Y828D01*
X953Y829D01*
X954Y829D01*
X954Y830D01*
X955Y830D01*
X955Y831D01*
X956Y831D01*
X956Y832D01*
X957Y832D01*
X957Y833D01*
X958Y833D01*
X958Y834D01*
X959Y834D01*
X959Y835D01*
X960Y835D01*
X960Y836D01*
X961Y836D01*
X961Y837D01*
X962Y837D01*
X962Y838D01*
X963Y838D01*
X963Y839D01*
X965Y839D01*
X965Y840D01*
X966Y840D01*
X966Y841D01*
X967Y841D01*
X967Y842D01*
X968Y842D01*
X968Y843D01*
X970Y843D01*
X970Y844D01*
X971Y844D01*
X971Y845D01*
X973Y845D01*
X973Y846D01*
X974Y846D01*
X974Y847D01*
X976Y847D01*
X976Y848D01*
X978Y848D01*
X978Y849D01*
X980Y849D01*
X980Y850D01*
X982Y850D01*
X982Y851D01*
X984Y851D01*
X984Y852D01*
X986Y852D01*
X986Y853D01*
X988Y853D01*
X988Y854D01*
X991Y854D01*
X991Y855D01*
X994Y855D01*
X994Y856D01*
X997Y856D01*
X997Y857D01*
X1001Y857D01*
X1001Y858D01*
X1005Y858D01*
X1005Y859D01*
X1011Y859D01*
X1011Y860D01*
X978Y860D01*
G37*
D02*
G36*
X980Y671D02*
X980Y670D01*
X1069Y670D01*
X1069Y671D01*
X980Y671D01*
G37*
D02*
G36*
X980Y671D02*
X980Y670D01*
X1069Y670D01*
X1069Y671D01*
X980Y671D01*
G37*
D02*
G36*
X983Y670D02*
X983Y669D01*
X985Y669D01*
X985Y668D01*
X987Y668D01*
X987Y667D01*
X990Y667D01*
X990Y666D01*
X993Y666D01*
X993Y665D01*
X996Y665D01*
X996Y664D01*
X1000Y664D01*
X1000Y663D01*
X1005Y663D01*
X1005Y662D01*
X1011Y662D01*
X1011Y661D01*
X1039Y661D01*
X1039Y662D01*
X1045Y662D01*
X1045Y663D01*
X1049Y663D01*
X1049Y664D01*
X1053Y664D01*
X1053Y665D01*
X1056Y665D01*
X1056Y666D01*
X1059Y666D01*
X1059Y667D01*
X1062Y667D01*
X1062Y668D01*
X1064Y668D01*
X1064Y669D01*
X1067Y669D01*
X1067Y670D01*
X983Y670D01*
G37*
D02*
G36*
X146Y868D02*
X146Y867D01*
X145Y867D01*
X145Y863D01*
X146Y863D01*
X146Y862D01*
X147Y862D01*
X147Y861D01*
X162Y861D01*
X162Y855D01*
X117Y855D01*
X117Y848D01*
X162Y848D01*
X162Y836D01*
X163Y836D01*
X163Y835D01*
X166Y835D01*
X166Y836D01*
X167Y836D01*
X167Y837D01*
X168Y837D01*
X168Y867D01*
X166Y867D01*
X166Y868D01*
X146Y868D01*
G37*
D02*
G36*
X117Y848D02*
X117Y836D01*
X119Y836D01*
X119Y835D01*
X121Y835D01*
X121Y836D01*
X123Y836D01*
X123Y848D01*
X117Y848D01*
G37*
D02*
G36*
X2082Y851D02*
X2082Y850D01*
X2080Y850D01*
X2080Y849D01*
X2079Y849D01*
X2079Y848D01*
X2078Y848D01*
X2078Y847D01*
X2077Y847D01*
X2077Y846D01*
X2076Y846D01*
X2076Y845D01*
X2075Y845D01*
X2075Y844D01*
X2098Y844D01*
X2098Y843D01*
X2099Y843D01*
X2099Y842D01*
X2100Y842D01*
X2100Y841D01*
X2101Y841D01*
X2101Y840D01*
X2102Y840D01*
X2102Y838D01*
X2103Y838D01*
X2103Y837D01*
X2104Y837D01*
X2104Y833D01*
X2103Y833D01*
X2103Y831D01*
X2102Y831D01*
X2102Y830D01*
X2101Y830D01*
X2101Y829D01*
X2100Y829D01*
X2100Y828D01*
X2099Y828D01*
X2099Y827D01*
X2098Y827D01*
X2098Y826D01*
X2097Y826D01*
X2097Y825D01*
X2106Y825D01*
X2106Y826D01*
X2107Y826D01*
X2107Y827D01*
X2108Y827D01*
X2108Y828D01*
X2109Y828D01*
X2109Y830D01*
X2110Y830D01*
X2110Y833D01*
X2111Y833D01*
X2111Y837D01*
X2110Y837D01*
X2110Y840D01*
X2109Y840D01*
X2109Y842D01*
X2108Y842D01*
X2108Y843D01*
X2107Y843D01*
X2107Y844D01*
X2106Y844D01*
X2106Y845D01*
X2105Y845D01*
X2105Y846D01*
X2104Y846D01*
X2104Y847D01*
X2103Y847D01*
X2103Y848D01*
X2102Y848D01*
X2102Y849D01*
X2101Y849D01*
X2101Y850D01*
X2099Y850D01*
X2099Y851D01*
X2082Y851D01*
G37*
D02*
G36*
X2074Y844D02*
X2074Y843D01*
X2073Y843D01*
X2073Y842D01*
X2072Y842D01*
X2072Y840D01*
X2071Y840D01*
X2071Y837D01*
X2070Y837D01*
X2070Y833D01*
X2071Y833D01*
X2071Y830D01*
X2072Y830D01*
X2072Y828D01*
X2073Y828D01*
X2073Y827D01*
X2074Y827D01*
X2074Y826D01*
X2075Y826D01*
X2075Y825D01*
X2085Y825D01*
X2085Y826D01*
X2083Y826D01*
X2083Y827D01*
X2082Y827D01*
X2082Y828D01*
X2081Y828D01*
X2081Y829D01*
X2080Y829D01*
X2080Y830D01*
X2079Y830D01*
X2079Y831D01*
X2078Y831D01*
X2078Y833D01*
X2077Y833D01*
X2077Y837D01*
X2078Y837D01*
X2078Y838D01*
X2079Y838D01*
X2079Y840D01*
X2080Y840D01*
X2080Y841D01*
X2081Y841D01*
X2081Y842D01*
X2082Y842D01*
X2082Y843D01*
X2083Y843D01*
X2083Y844D01*
X2074Y844D01*
G37*
D02*
G36*
X2072Y825D02*
X2072Y824D01*
X2122Y824D01*
X2122Y825D01*
X2072Y825D01*
G37*
D02*
G36*
X2072Y825D02*
X2072Y824D01*
X2122Y824D01*
X2122Y825D01*
X2072Y825D01*
G37*
D02*
G36*
X2071Y824D02*
X2071Y822D01*
X2070Y822D01*
X2070Y821D01*
X2071Y821D01*
X2071Y819D01*
X2073Y819D01*
X2073Y818D01*
X2121Y818D01*
X2121Y819D01*
X2122Y819D01*
X2122Y820D01*
X2123Y820D01*
X2123Y824D01*
X2071Y824D01*
G37*
D02*
G36*
X2377Y851D02*
X2377Y850D01*
X2375Y850D01*
X2375Y849D01*
X2374Y849D01*
X2374Y847D01*
X2373Y847D01*
X2373Y844D01*
X2418Y844D01*
X2418Y825D01*
X2424Y825D01*
X2424Y847D01*
X2423Y847D01*
X2423Y849D01*
X2422Y849D01*
X2422Y850D01*
X2420Y850D01*
X2420Y851D01*
X2377Y851D01*
G37*
D02*
G36*
X2373Y844D02*
X2373Y825D01*
X2379Y825D01*
X2379Y844D01*
X2373Y844D01*
G37*
D02*
G36*
X2373Y825D02*
X2373Y824D01*
X2424Y824D01*
X2424Y825D01*
X2373Y825D01*
G37*
D02*
G36*
X2373Y825D02*
X2373Y824D01*
X2424Y824D01*
X2424Y825D01*
X2373Y825D01*
G37*
D02*
G36*
X2373Y824D02*
X2373Y822D01*
X2374Y822D01*
X2374Y821D01*
X2375Y821D01*
X2375Y820D01*
X2376Y820D01*
X2376Y819D01*
X2378Y819D01*
X2378Y818D01*
X2419Y818D01*
X2419Y819D01*
X2421Y819D01*
X2421Y820D01*
X2422Y820D01*
X2422Y821D01*
X2423Y821D01*
X2423Y822D01*
X2424Y822D01*
X2424Y824D01*
X2373Y824D01*
G37*
D02*
G36*
X2221Y846D02*
X2221Y845D01*
X2219Y845D01*
X2219Y844D01*
X2218Y844D01*
X2218Y839D01*
X2263Y839D01*
X2263Y837D01*
X2264Y837D01*
X2264Y836D01*
X2268Y836D01*
X2268Y837D01*
X2269Y837D01*
X2269Y845D01*
X2266Y845D01*
X2266Y846D01*
X2221Y846D01*
G37*
D02*
G36*
X2218Y839D02*
X2218Y819D01*
X2225Y819D01*
X2225Y839D01*
X2218Y839D01*
G37*
D02*
G36*
X2235Y839D02*
X2235Y819D01*
X2242Y819D01*
X2242Y839D01*
X2235Y839D01*
G37*
D02*
G36*
X2218Y819D02*
X2218Y818D01*
X2242Y818D01*
X2242Y819D01*
X2218Y819D01*
G37*
D02*
G36*
X2218Y819D02*
X2218Y818D01*
X2242Y818D01*
X2242Y819D01*
X2218Y819D01*
G37*
D02*
G36*
X2218Y818D02*
X2218Y815D01*
X2219Y815D01*
X2219Y813D01*
X2240Y813D01*
X2240Y814D01*
X2241Y814D01*
X2241Y817D01*
X2242Y817D01*
X2242Y818D01*
X2218Y818D01*
G37*
D02*
G36*
X1057Y826D02*
X1057Y825D01*
X1056Y825D01*
X1056Y824D01*
X1055Y824D01*
X1055Y822D01*
X1054Y822D01*
X1054Y818D01*
X1055Y818D01*
X1055Y817D01*
X1056Y817D01*
X1056Y816D01*
X1057Y816D01*
X1057Y815D01*
X1092Y815D01*
X1092Y816D01*
X1093Y816D01*
X1093Y817D01*
X1094Y817D01*
X1094Y818D01*
X1095Y818D01*
X1095Y823D01*
X1094Y823D01*
X1094Y824D01*
X1093Y824D01*
X1093Y825D01*
X1092Y825D01*
X1092Y826D01*
X1057Y826D01*
G37*
D02*
G36*
X122Y818D02*
X122Y817D01*
X120Y817D01*
X120Y816D01*
X119Y816D01*
X119Y815D01*
X118Y815D01*
X118Y813D01*
X117Y813D01*
X117Y792D01*
X124Y792D01*
X124Y793D01*
X123Y793D01*
X123Y810D01*
X124Y810D01*
X124Y811D01*
X125Y811D01*
X125Y812D01*
X128Y812D01*
X128Y813D01*
X129Y813D01*
X129Y817D01*
X128Y817D01*
X128Y818D01*
X122Y818D01*
G37*
D02*
G36*
X157Y818D02*
X157Y817D01*
X156Y817D01*
X156Y816D01*
X154Y816D01*
X154Y815D01*
X153Y815D01*
X153Y814D01*
X152Y814D01*
X152Y813D01*
X151Y813D01*
X151Y812D01*
X161Y812D01*
X161Y811D01*
X162Y811D01*
X162Y804D01*
X161Y804D01*
X161Y793D01*
X160Y793D01*
X160Y792D01*
X157Y792D01*
X157Y791D01*
X156Y791D01*
X156Y787D01*
X157Y787D01*
X157Y786D01*
X163Y786D01*
X163Y787D01*
X165Y787D01*
X165Y788D01*
X166Y788D01*
X166Y789D01*
X167Y789D01*
X167Y791D01*
X168Y791D01*
X168Y814D01*
X167Y814D01*
X167Y815D01*
X166Y815D01*
X166Y817D01*
X164Y817D01*
X164Y818D01*
X157Y818D01*
G37*
D02*
G36*
X149Y812D02*
X149Y811D01*
X148Y811D01*
X148Y810D01*
X147Y810D01*
X147Y809D01*
X145Y809D01*
X145Y808D01*
X144Y808D01*
X144Y807D01*
X143Y807D01*
X143Y806D01*
X142Y806D01*
X142Y805D01*
X140Y805D01*
X140Y804D01*
X139Y804D01*
X139Y803D01*
X138Y803D01*
X138Y802D01*
X137Y802D01*
X137Y801D01*
X135Y801D01*
X135Y800D01*
X134Y800D01*
X134Y799D01*
X133Y799D01*
X133Y798D01*
X131Y798D01*
X131Y797D01*
X130Y797D01*
X130Y796D01*
X129Y796D01*
X129Y795D01*
X128Y795D01*
X128Y794D01*
X126Y794D01*
X126Y793D01*
X125Y793D01*
X125Y792D01*
X136Y792D01*
X136Y793D01*
X137Y793D01*
X137Y794D01*
X138Y794D01*
X138Y795D01*
X140Y795D01*
X140Y796D01*
X141Y796D01*
X141Y797D01*
X142Y797D01*
X142Y798D01*
X143Y798D01*
X143Y799D01*
X145Y799D01*
X145Y800D01*
X146Y800D01*
X146Y801D01*
X147Y801D01*
X147Y802D01*
X149Y802D01*
X149Y803D01*
X150Y803D01*
X150Y804D01*
X151Y804D01*
X151Y805D01*
X152Y805D01*
X152Y806D01*
X154Y806D01*
X154Y807D01*
X155Y807D01*
X155Y808D01*
X156Y808D01*
X156Y809D01*
X158Y809D01*
X158Y810D01*
X159Y810D01*
X159Y811D01*
X160Y811D01*
X160Y812D01*
X149Y812D01*
G37*
D02*
G36*
X117Y792D02*
X117Y791D01*
X134Y791D01*
X134Y792D01*
X117Y792D01*
G37*
D02*
G36*
X117Y792D02*
X117Y791D01*
X134Y791D01*
X134Y792D01*
X117Y792D01*
G37*
D02*
G36*
X117Y791D02*
X117Y790D01*
X118Y790D01*
X118Y788D01*
X119Y788D01*
X119Y787D01*
X121Y787D01*
X121Y786D01*
X128Y786D01*
X128Y787D01*
X129Y787D01*
X129Y788D01*
X131Y788D01*
X131Y789D01*
X132Y789D01*
X132Y790D01*
X133Y790D01*
X133Y791D01*
X117Y791D01*
G37*
D02*
G36*
X1607Y811D02*
X1607Y804D01*
X1632Y804D01*
X1632Y803D01*
X1633Y803D01*
X1633Y795D01*
X1632Y795D01*
X1632Y794D01*
X1640Y794D01*
X1640Y804D01*
X1639Y804D01*
X1639Y806D01*
X1638Y806D01*
X1638Y807D01*
X1637Y807D01*
X1637Y808D01*
X1636Y808D01*
X1636Y809D01*
X1635Y809D01*
X1635Y810D01*
X1632Y810D01*
X1632Y811D01*
X1607Y811D01*
G37*
D02*
G36*
X1607Y804D02*
X1607Y794D01*
X1614Y794D01*
X1614Y804D01*
X1607Y804D01*
G37*
D02*
G36*
X1607Y794D02*
X1607Y793D01*
X1639Y793D01*
X1639Y794D01*
X1607Y794D01*
G37*
D02*
G36*
X1607Y794D02*
X1607Y793D01*
X1639Y793D01*
X1639Y794D01*
X1607Y794D01*
G37*
D02*
G36*
X1607Y793D02*
X1607Y787D01*
X1619Y787D01*
X1619Y785D01*
X1620Y785D01*
X1620Y784D01*
X1621Y784D01*
X1621Y782D01*
X1622Y782D01*
X1622Y780D01*
X1623Y780D01*
X1623Y779D01*
X1624Y779D01*
X1624Y777D01*
X1625Y777D01*
X1625Y775D01*
X1626Y775D01*
X1626Y773D01*
X1627Y773D01*
X1627Y772D01*
X1628Y772D01*
X1628Y770D01*
X1629Y770D01*
X1629Y768D01*
X1630Y768D01*
X1630Y767D01*
X1631Y767D01*
X1631Y765D01*
X1632Y765D01*
X1632Y763D01*
X1633Y763D01*
X1633Y762D01*
X1634Y762D01*
X1634Y760D01*
X1636Y760D01*
X1636Y759D01*
X1637Y759D01*
X1637Y760D01*
X1639Y760D01*
X1639Y761D01*
X1640Y761D01*
X1640Y764D01*
X1639Y764D01*
X1639Y766D01*
X1638Y766D01*
X1638Y768D01*
X1637Y768D01*
X1637Y770D01*
X1636Y770D01*
X1636Y771D01*
X1635Y771D01*
X1635Y773D01*
X1634Y773D01*
X1634Y775D01*
X1633Y775D01*
X1633Y776D01*
X1632Y776D01*
X1632Y778D01*
X1631Y778D01*
X1631Y780D01*
X1630Y780D01*
X1630Y782D01*
X1629Y782D01*
X1629Y783D01*
X1628Y783D01*
X1628Y785D01*
X1627Y785D01*
X1627Y787D01*
X1632Y787D01*
X1632Y788D01*
X1635Y788D01*
X1635Y789D01*
X1636Y789D01*
X1636Y790D01*
X1637Y790D01*
X1637Y791D01*
X1638Y791D01*
X1638Y792D01*
X1639Y792D01*
X1639Y793D01*
X1607Y793D01*
G37*
D02*
G36*
X1607Y787D02*
X1607Y761D01*
X1608Y761D01*
X1608Y760D01*
X1610Y760D01*
X1610Y759D01*
X1611Y759D01*
X1611Y760D01*
X1613Y760D01*
X1613Y761D01*
X1614Y761D01*
X1614Y787D01*
X1607Y787D01*
G37*
D02*
G36*
X1659Y811D02*
X1659Y810D01*
X1658Y810D01*
X1658Y809D01*
X1657Y809D01*
X1657Y776D01*
X1683Y776D01*
X1683Y766D01*
X1690Y766D01*
X1690Y780D01*
X1689Y780D01*
X1689Y782D01*
X1688Y782D01*
X1688Y783D01*
X1663Y783D01*
X1663Y804D01*
X1665Y804D01*
X1665Y805D01*
X1666Y805D01*
X1666Y806D01*
X1667Y806D01*
X1667Y809D01*
X1666Y809D01*
X1666Y810D01*
X1665Y810D01*
X1665Y811D01*
X1659Y811D01*
G37*
D02*
G36*
X1657Y776D02*
X1657Y766D01*
X1664Y766D01*
X1664Y767D01*
X1663Y767D01*
X1663Y776D01*
X1657Y776D01*
G37*
D02*
G36*
X1657Y766D02*
X1657Y765D01*
X1690Y765D01*
X1690Y766D01*
X1657Y766D01*
G37*
D02*
G36*
X1657Y766D02*
X1657Y765D01*
X1690Y765D01*
X1690Y766D01*
X1657Y766D01*
G37*
D02*
G36*
X1657Y765D02*
X1657Y761D01*
X1658Y761D01*
X1658Y760D01*
X1660Y760D01*
X1660Y759D01*
X1687Y759D01*
X1687Y760D01*
X1689Y760D01*
X1689Y762D01*
X1690Y762D01*
X1690Y765D01*
X1657Y765D01*
G37*
D02*
G36*
X2078Y801D02*
X2078Y800D01*
X2076Y800D01*
X2076Y799D01*
X2074Y799D01*
X2074Y798D01*
X2072Y798D01*
X2072Y797D01*
X2070Y797D01*
X2070Y796D01*
X2068Y796D01*
X2068Y795D01*
X2086Y795D01*
X2086Y794D01*
X2088Y794D01*
X2088Y793D01*
X2090Y793D01*
X2090Y792D01*
X2092Y792D01*
X2092Y791D01*
X2094Y791D01*
X2094Y790D01*
X2096Y790D01*
X2096Y789D01*
X2098Y789D01*
X2098Y788D01*
X2100Y788D01*
X2100Y787D01*
X2102Y787D01*
X2102Y783D01*
X2100Y783D01*
X2100Y782D01*
X2098Y782D01*
X2098Y781D01*
X2096Y781D01*
X2096Y780D01*
X2094Y780D01*
X2094Y779D01*
X2092Y779D01*
X2092Y778D01*
X2090Y778D01*
X2090Y777D01*
X2088Y777D01*
X2088Y776D01*
X2085Y776D01*
X2085Y775D01*
X2101Y775D01*
X2101Y776D01*
X2103Y776D01*
X2103Y777D01*
X2105Y777D01*
X2105Y778D01*
X2106Y778D01*
X2106Y779D01*
X2107Y779D01*
X2107Y780D01*
X2108Y780D01*
X2108Y782D01*
X2109Y782D01*
X2109Y788D01*
X2108Y788D01*
X2108Y790D01*
X2107Y790D01*
X2107Y791D01*
X2106Y791D01*
X2106Y792D01*
X2105Y792D01*
X2105Y793D01*
X2103Y793D01*
X2103Y794D01*
X2101Y794D01*
X2101Y795D01*
X2099Y795D01*
X2099Y796D01*
X2097Y796D01*
X2097Y797D01*
X2095Y797D01*
X2095Y798D01*
X2093Y798D01*
X2093Y799D01*
X2091Y799D01*
X2091Y800D01*
X2089Y800D01*
X2089Y801D01*
X2078Y801D01*
G37*
D02*
G36*
X2066Y795D02*
X2066Y794D01*
X2064Y794D01*
X2064Y793D01*
X2062Y793D01*
X2062Y792D01*
X2061Y792D01*
X2061Y791D01*
X2060Y791D01*
X2060Y790D01*
X2059Y790D01*
X2059Y788D01*
X2058Y788D01*
X2058Y782D01*
X2059Y782D01*
X2059Y780D01*
X2060Y780D01*
X2060Y779D01*
X2061Y779D01*
X2061Y778D01*
X2062Y778D01*
X2062Y777D01*
X2064Y777D01*
X2064Y776D01*
X2066Y776D01*
X2066Y775D01*
X2082Y775D01*
X2082Y776D01*
X2079Y776D01*
X2079Y777D01*
X2077Y777D01*
X2077Y778D01*
X2075Y778D01*
X2075Y779D01*
X2073Y779D01*
X2073Y780D01*
X2071Y780D01*
X2071Y781D01*
X2069Y781D01*
X2069Y782D01*
X2067Y782D01*
X2067Y783D01*
X2065Y783D01*
X2065Y787D01*
X2067Y787D01*
X2067Y788D01*
X2069Y788D01*
X2069Y789D01*
X2071Y789D01*
X2071Y790D01*
X2073Y790D01*
X2073Y791D01*
X2075Y791D01*
X2075Y792D01*
X2077Y792D01*
X2077Y793D01*
X2079Y793D01*
X2079Y794D01*
X2081Y794D01*
X2081Y795D01*
X2066Y795D01*
G37*
D02*
G36*
X2068Y775D02*
X2068Y774D01*
X2099Y774D01*
X2099Y775D01*
X2068Y775D01*
G37*
D02*
G36*
X2068Y775D02*
X2068Y774D01*
X2099Y774D01*
X2099Y775D01*
X2068Y775D01*
G37*
D02*
G36*
X2070Y774D02*
X2070Y773D01*
X2072Y773D01*
X2072Y772D01*
X2074Y772D01*
X2074Y771D01*
X2076Y771D01*
X2076Y770D01*
X2079Y770D01*
X2079Y769D01*
X2088Y769D01*
X2088Y770D01*
X2091Y770D01*
X2091Y771D01*
X2093Y771D01*
X2093Y772D01*
X2095Y772D01*
X2095Y773D01*
X2097Y773D01*
X2097Y774D01*
X2070Y774D01*
G37*
D02*
G36*
X2222Y796D02*
X2222Y795D01*
X2221Y795D01*
X2221Y794D01*
X2220Y794D01*
X2220Y793D01*
X2219Y793D01*
X2219Y792D01*
X2218Y792D01*
X2218Y789D01*
X2263Y789D01*
X2263Y770D01*
X2269Y770D01*
X2269Y793D01*
X2268Y793D01*
X2268Y794D01*
X2267Y794D01*
X2267Y795D01*
X2265Y795D01*
X2265Y796D01*
X2222Y796D01*
G37*
D02*
G36*
X2218Y789D02*
X2218Y770D01*
X2225Y770D01*
X2225Y789D01*
X2218Y789D01*
G37*
D02*
G36*
X2218Y770D02*
X2218Y769D01*
X2269Y769D01*
X2269Y770D01*
X2218Y770D01*
G37*
D02*
G36*
X2218Y770D02*
X2218Y769D01*
X2269Y769D01*
X2269Y770D01*
X2218Y770D01*
G37*
D02*
G36*
X2218Y769D02*
X2218Y768D01*
X2219Y768D01*
X2219Y766D01*
X2220Y766D01*
X2220Y765D01*
X2221Y765D01*
X2221Y764D01*
X2223Y764D01*
X2223Y763D01*
X2265Y763D01*
X2265Y764D01*
X2267Y764D01*
X2267Y765D01*
X2268Y765D01*
X2268Y766D01*
X2269Y766D01*
X2269Y769D01*
X2218Y769D01*
G37*
D02*
G36*
X1469Y790D02*
X1469Y780D01*
X1538Y780D01*
X1538Y790D01*
X1469Y790D01*
G37*
D02*
G36*
X1738Y790D02*
X1738Y781D01*
X1739Y781D01*
X1739Y780D01*
X1789Y780D01*
X1789Y783D01*
X1788Y783D01*
X1788Y787D01*
X1789Y787D01*
X1789Y790D01*
X1738Y790D01*
G37*
D02*
G36*
X832Y788D02*
X832Y787D01*
X830Y787D01*
X830Y786D01*
X829Y786D01*
X829Y785D01*
X828Y785D01*
X828Y784D01*
X827Y784D01*
X827Y782D01*
X826Y782D01*
X826Y780D01*
X825Y780D01*
X825Y778D01*
X824Y778D01*
X824Y776D01*
X823Y776D01*
X823Y774D01*
X822Y774D01*
X822Y772D01*
X821Y772D01*
X821Y770D01*
X820Y770D01*
X820Y768D01*
X819Y768D01*
X819Y757D01*
X820Y757D01*
X820Y755D01*
X821Y755D01*
X821Y753D01*
X822Y753D01*
X822Y751D01*
X823Y751D01*
X823Y749D01*
X824Y749D01*
X824Y747D01*
X825Y747D01*
X825Y745D01*
X826Y745D01*
X826Y743D01*
X827Y743D01*
X827Y741D01*
X828Y741D01*
X828Y740D01*
X829Y740D01*
X829Y739D01*
X830Y739D01*
X830Y738D01*
X832Y738D01*
X832Y737D01*
X850Y737D01*
X850Y738D01*
X851Y738D01*
X851Y742D01*
X850Y742D01*
X850Y743D01*
X848Y743D01*
X848Y744D01*
X833Y744D01*
X833Y746D01*
X832Y746D01*
X832Y748D01*
X831Y748D01*
X831Y750D01*
X830Y750D01*
X830Y752D01*
X829Y752D01*
X829Y754D01*
X828Y754D01*
X828Y756D01*
X827Y756D01*
X827Y758D01*
X826Y758D01*
X826Y760D01*
X825Y760D01*
X825Y765D01*
X826Y765D01*
X826Y767D01*
X827Y767D01*
X827Y769D01*
X828Y769D01*
X828Y771D01*
X829Y771D01*
X829Y773D01*
X830Y773D01*
X830Y775D01*
X831Y775D01*
X831Y777D01*
X832Y777D01*
X832Y779D01*
X833Y779D01*
X833Y781D01*
X835Y781D01*
X835Y782D01*
X850Y782D01*
X850Y783D01*
X851Y783D01*
X851Y787D01*
X850Y787D01*
X850Y788D01*
X832Y788D01*
G37*
D02*
G36*
X869Y788D02*
X869Y786D01*
X868Y786D01*
X868Y784D01*
X869Y784D01*
X869Y782D01*
X881Y782D01*
X881Y744D01*
X888Y744D01*
X888Y788D01*
X869Y788D01*
G37*
D02*
G36*
X895Y760D02*
X895Y758D01*
X894Y758D01*
X894Y744D01*
X901Y744D01*
X901Y759D01*
X900Y759D01*
X900Y760D01*
X895Y760D01*
G37*
D02*
G36*
X871Y744D02*
X871Y743D01*
X901Y743D01*
X901Y744D01*
X871Y744D01*
G37*
D02*
G36*
X871Y744D02*
X871Y743D01*
X901Y743D01*
X901Y744D01*
X871Y744D01*
G37*
D02*
G36*
X869Y743D02*
X869Y742D01*
X868Y742D01*
X868Y739D01*
X869Y739D01*
X869Y738D01*
X870Y738D01*
X870Y737D01*
X899Y737D01*
X899Y738D01*
X900Y738D01*
X900Y739D01*
X901Y739D01*
X901Y743D01*
X869Y743D01*
G37*
D02*
G36*
X2402Y801D02*
X2402Y800D01*
X2401Y800D01*
X2401Y795D01*
X2417Y795D01*
X2417Y794D01*
X2418Y794D01*
X2418Y776D01*
X2417Y776D01*
X2417Y775D01*
X2424Y775D01*
X2424Y800D01*
X2423Y800D01*
X2423Y801D01*
X2402Y801D01*
G37*
D02*
G36*
X2401Y795D02*
X2401Y775D01*
X2408Y775D01*
X2408Y776D01*
X2407Y776D01*
X2407Y794D01*
X2408Y794D01*
X2408Y795D01*
X2401Y795D01*
G37*
D02*
G36*
X2375Y779D02*
X2375Y778D01*
X2374Y778D01*
X2374Y777D01*
X2373Y777D01*
X2373Y775D01*
X2380Y775D01*
X2380Y776D01*
X2379Y776D01*
X2379Y778D01*
X2377Y778D01*
X2377Y779D01*
X2375Y779D01*
G37*
D02*
G36*
X2373Y775D02*
X2373Y774D01*
X2424Y774D01*
X2424Y775D01*
X2373Y775D01*
G37*
D02*
G36*
X2373Y775D02*
X2373Y774D01*
X2424Y774D01*
X2424Y775D01*
X2373Y775D01*
G37*
D02*
G36*
X2373Y775D02*
X2373Y774D01*
X2424Y774D01*
X2424Y775D01*
X2373Y775D01*
G37*
D02*
G36*
X2373Y774D02*
X2373Y770D01*
X2374Y770D01*
X2374Y769D01*
X2423Y769D01*
X2423Y770D01*
X2424Y770D01*
X2424Y774D01*
X2373Y774D01*
G37*
D02*
G36*
X140Y769D02*
X140Y768D01*
X137Y768D01*
X137Y767D01*
X135Y767D01*
X135Y766D01*
X133Y766D01*
X133Y765D01*
X131Y765D01*
X131Y764D01*
X129Y764D01*
X129Y763D01*
X127Y763D01*
X127Y762D01*
X145Y762D01*
X145Y761D01*
X148Y761D01*
X148Y760D01*
X150Y760D01*
X150Y759D01*
X152Y759D01*
X152Y758D01*
X154Y758D01*
X154Y757D01*
X155Y757D01*
X155Y756D01*
X157Y756D01*
X157Y755D01*
X159Y755D01*
X159Y754D01*
X161Y754D01*
X161Y749D01*
X168Y749D01*
X168Y755D01*
X167Y755D01*
X167Y757D01*
X166Y757D01*
X166Y758D01*
X165Y758D01*
X165Y759D01*
X164Y759D01*
X164Y760D01*
X162Y760D01*
X162Y761D01*
X160Y761D01*
X160Y762D01*
X158Y762D01*
X158Y763D01*
X156Y763D01*
X156Y764D01*
X154Y764D01*
X154Y765D01*
X152Y765D01*
X152Y766D01*
X150Y766D01*
X150Y767D01*
X148Y767D01*
X148Y768D01*
X145Y768D01*
X145Y769D01*
X140Y769D01*
G37*
D02*
G36*
X125Y762D02*
X125Y761D01*
X123Y761D01*
X123Y760D01*
X121Y760D01*
X121Y759D01*
X120Y759D01*
X120Y758D01*
X119Y758D01*
X119Y757D01*
X118Y757D01*
X118Y755D01*
X117Y755D01*
X117Y749D01*
X123Y749D01*
X123Y752D01*
X124Y752D01*
X124Y754D01*
X126Y754D01*
X126Y755D01*
X127Y755D01*
X127Y756D01*
X129Y756D01*
X129Y757D01*
X131Y757D01*
X131Y758D01*
X133Y758D01*
X133Y759D01*
X135Y759D01*
X135Y760D01*
X137Y760D01*
X137Y761D01*
X140Y761D01*
X140Y762D01*
X125Y762D01*
G37*
D02*
G36*
X117Y749D02*
X117Y748D01*
X168Y748D01*
X168Y749D01*
X117Y749D01*
G37*
D02*
G36*
X117Y749D02*
X117Y748D01*
X168Y748D01*
X168Y749D01*
X117Y749D01*
G37*
D02*
G36*
X117Y748D02*
X117Y742D01*
X162Y742D01*
X162Y737D01*
X163Y737D01*
X163Y736D01*
X167Y736D01*
X167Y737D01*
X168Y737D01*
X168Y748D01*
X117Y748D01*
G37*
D02*
G36*
X117Y742D02*
X117Y737D01*
X118Y737D01*
X118Y736D01*
X122Y736D01*
X122Y737D01*
X123Y737D01*
X123Y742D01*
X117Y742D01*
G37*
D02*
G36*
X2373Y752D02*
X2373Y719D01*
X2383Y719D01*
X2383Y720D01*
X2384Y720D01*
X2384Y721D01*
X2385Y721D01*
X2385Y724D01*
X2384Y724D01*
X2384Y725D01*
X2383Y725D01*
X2383Y726D01*
X2379Y726D01*
X2379Y732D01*
X2422Y732D01*
X2422Y733D01*
X2424Y733D01*
X2424Y737D01*
X2423Y737D01*
X2423Y738D01*
X2422Y738D01*
X2422Y739D01*
X2379Y739D01*
X2379Y745D01*
X2383Y745D01*
X2383Y746D01*
X2384Y746D01*
X2384Y747D01*
X2385Y747D01*
X2385Y750D01*
X2384Y750D01*
X2384Y751D01*
X2383Y751D01*
X2383Y752D01*
X2373Y752D01*
G37*
D02*
G36*
X2242Y746D02*
X2242Y745D01*
X2241Y745D01*
X2241Y743D01*
X2240Y743D01*
X2240Y716D01*
X2241Y716D01*
X2241Y714D01*
X2244Y714D01*
X2244Y713D01*
X2247Y713D01*
X2247Y714D01*
X2249Y714D01*
X2249Y715D01*
X2250Y715D01*
X2250Y744D01*
X2249Y744D01*
X2249Y746D01*
X2242Y746D01*
G37*
D02*
G36*
X1057Y716D02*
X1057Y715D01*
X1056Y715D01*
X1056Y714D01*
X1055Y714D01*
X1055Y713D01*
X1054Y713D01*
X1054Y709D01*
X1055Y709D01*
X1055Y707D01*
X1056Y707D01*
X1056Y706D01*
X1057Y706D01*
X1057Y705D01*
X1092Y705D01*
X1092Y706D01*
X1093Y706D01*
X1093Y707D01*
X1094Y707D01*
X1094Y708D01*
X1095Y708D01*
X1095Y713D01*
X1094Y713D01*
X1094Y714D01*
X1093Y714D01*
X1093Y715D01*
X1092Y715D01*
X1092Y716D01*
X1057Y716D01*
G37*
D02*
G36*
X2073Y702D02*
X2073Y701D01*
X2072Y701D01*
X2072Y681D01*
X2073Y681D01*
X2073Y679D01*
X2074Y679D01*
X2074Y678D01*
X2075Y678D01*
X2075Y677D01*
X2076Y677D01*
X2076Y676D01*
X2085Y676D01*
X2085Y677D01*
X2084Y677D01*
X2084Y678D01*
X2083Y678D01*
X2083Y679D01*
X2082Y679D01*
X2082Y680D01*
X2081Y680D01*
X2081Y681D01*
X2080Y681D01*
X2080Y683D01*
X2079Y683D01*
X2079Y685D01*
X2078Y685D01*
X2078Y701D01*
X2077Y701D01*
X2077Y702D01*
X2073Y702D01*
G37*
D02*
G36*
X2104Y702D02*
X2104Y701D01*
X2103Y701D01*
X2103Y685D01*
X2102Y685D01*
X2102Y683D01*
X2101Y683D01*
X2101Y681D01*
X2100Y681D01*
X2100Y680D01*
X2099Y680D01*
X2099Y679D01*
X2098Y679D01*
X2098Y678D01*
X2097Y678D01*
X2097Y677D01*
X2096Y677D01*
X2096Y676D01*
X2105Y676D01*
X2105Y677D01*
X2106Y677D01*
X2106Y678D01*
X2107Y678D01*
X2107Y679D01*
X2108Y679D01*
X2108Y681D01*
X2109Y681D01*
X2109Y701D01*
X2108Y701D01*
X2108Y702D01*
X2104Y702D01*
G37*
D02*
G36*
X2077Y676D02*
X2077Y675D01*
X2104Y675D01*
X2104Y676D01*
X2077Y676D01*
G37*
D02*
G36*
X2077Y676D02*
X2077Y675D01*
X2104Y675D01*
X2104Y676D01*
X2077Y676D01*
G37*
D02*
G36*
X2078Y675D02*
X2078Y673D01*
X2079Y673D01*
X2079Y672D01*
X2080Y672D01*
X2080Y671D01*
X2082Y671D01*
X2082Y670D01*
X2085Y670D01*
X2085Y669D01*
X2096Y669D01*
X2096Y670D01*
X2099Y670D01*
X2099Y671D01*
X2101Y671D01*
X2101Y672D01*
X2102Y672D01*
X2102Y673D01*
X2103Y673D01*
X2103Y675D01*
X2078Y675D01*
G37*
D02*
G36*
X2373Y702D02*
X2373Y693D01*
X2375Y693D01*
X2375Y692D01*
X2376Y692D01*
X2376Y691D01*
X2378Y691D01*
X2378Y690D01*
X2379Y690D01*
X2379Y689D01*
X2380Y689D01*
X2380Y688D01*
X2382Y688D01*
X2382Y687D01*
X2383Y687D01*
X2383Y686D01*
X2384Y686D01*
X2384Y685D01*
X2382Y685D01*
X2382Y684D01*
X2381Y684D01*
X2381Y683D01*
X2380Y683D01*
X2380Y682D01*
X2378Y682D01*
X2378Y681D01*
X2377Y681D01*
X2377Y680D01*
X2375Y680D01*
X2375Y679D01*
X2374Y679D01*
X2374Y678D01*
X2373Y678D01*
X2373Y669D01*
X2422Y669D01*
X2422Y670D01*
X2423Y670D01*
X2423Y671D01*
X2424Y671D01*
X2424Y675D01*
X2423Y675D01*
X2423Y676D01*
X2383Y676D01*
X2383Y677D01*
X2384Y677D01*
X2384Y678D01*
X2386Y678D01*
X2386Y679D01*
X2387Y679D01*
X2387Y680D01*
X2388Y680D01*
X2388Y681D01*
X2390Y681D01*
X2390Y682D01*
X2393Y682D01*
X2393Y683D01*
X2395Y683D01*
X2395Y684D01*
X2396Y684D01*
X2396Y688D01*
X2395Y688D01*
X2395Y689D01*
X2391Y689D01*
X2391Y690D01*
X2389Y690D01*
X2389Y691D01*
X2388Y691D01*
X2388Y692D01*
X2386Y692D01*
X2386Y693D01*
X2385Y693D01*
X2385Y694D01*
X2383Y694D01*
X2383Y696D01*
X2423Y696D01*
X2423Y697D01*
X2424Y697D01*
X2424Y701D01*
X2423Y701D01*
X2423Y702D01*
X2373Y702D01*
G37*
D02*
G36*
X2242Y697D02*
X2242Y696D01*
X2238Y696D01*
X2238Y695D01*
X2236Y695D01*
X2236Y694D01*
X2234Y694D01*
X2234Y693D01*
X2232Y693D01*
X2232Y692D01*
X2230Y692D01*
X2230Y691D01*
X2228Y691D01*
X2228Y690D01*
X2247Y690D01*
X2247Y689D01*
X2249Y689D01*
X2249Y688D01*
X2251Y688D01*
X2251Y687D01*
X2253Y687D01*
X2253Y686D01*
X2255Y686D01*
X2255Y685D01*
X2257Y685D01*
X2257Y684D01*
X2259Y684D01*
X2259Y683D01*
X2261Y683D01*
X2261Y682D01*
X2262Y682D01*
X2262Y681D01*
X2263Y681D01*
X2263Y677D01*
X2269Y677D01*
X2269Y684D01*
X2268Y684D01*
X2268Y685D01*
X2267Y685D01*
X2267Y686D01*
X2266Y686D01*
X2266Y687D01*
X2265Y687D01*
X2265Y688D01*
X2263Y688D01*
X2263Y689D01*
X2262Y689D01*
X2262Y690D01*
X2260Y690D01*
X2260Y691D01*
X2258Y691D01*
X2258Y692D01*
X2256Y692D01*
X2256Y693D01*
X2254Y693D01*
X2254Y694D01*
X2252Y694D01*
X2252Y695D01*
X2249Y695D01*
X2249Y696D01*
X2246Y696D01*
X2246Y697D01*
X2242Y697D01*
G37*
D02*
G36*
X2226Y690D02*
X2226Y689D01*
X2224Y689D01*
X2224Y688D01*
X2222Y688D01*
X2222Y687D01*
X2221Y687D01*
X2221Y686D01*
X2220Y686D01*
X2220Y684D01*
X2219Y684D01*
X2219Y682D01*
X2218Y682D01*
X2218Y677D01*
X2225Y677D01*
X2225Y681D01*
X2226Y681D01*
X2226Y682D01*
X2227Y682D01*
X2227Y683D01*
X2229Y683D01*
X2229Y684D01*
X2231Y684D01*
X2231Y685D01*
X2233Y685D01*
X2233Y686D01*
X2235Y686D01*
X2235Y687D01*
X2237Y687D01*
X2237Y688D01*
X2239Y688D01*
X2239Y689D01*
X2241Y689D01*
X2241Y690D01*
X2226Y690D01*
G37*
D02*
G36*
X2218Y677D02*
X2218Y676D01*
X2269Y676D01*
X2269Y677D01*
X2218Y677D01*
G37*
D02*
G36*
X2218Y677D02*
X2218Y676D01*
X2269Y676D01*
X2269Y677D01*
X2218Y677D01*
G37*
D02*
G36*
X2218Y676D02*
X2218Y670D01*
X2263Y670D01*
X2263Y665D01*
X2264Y665D01*
X2264Y664D01*
X2268Y664D01*
X2268Y665D01*
X2269Y665D01*
X2269Y676D01*
X2218Y676D01*
G37*
D02*
G36*
X2218Y670D02*
X2218Y666D01*
X2219Y666D01*
X2219Y664D01*
X2223Y664D01*
X2223Y665D01*
X2224Y665D01*
X2224Y666D01*
X2225Y666D01*
X2225Y670D01*
X2218Y670D01*
G37*
D02*
G36*
X1649Y687D02*
X1649Y680D01*
X1674Y680D01*
X1674Y679D01*
X1675Y679D01*
X1675Y671D01*
X1673Y671D01*
X1673Y670D01*
X1682Y670D01*
X1682Y681D01*
X1681Y681D01*
X1681Y683D01*
X1680Y683D01*
X1680Y684D01*
X1679Y684D01*
X1679Y685D01*
X1678Y685D01*
X1678Y686D01*
X1676Y686D01*
X1676Y687D01*
X1649Y687D01*
G37*
D02*
G36*
X1649Y680D02*
X1649Y670D01*
X1656Y670D01*
X1656Y680D01*
X1649Y680D01*
G37*
D02*
G36*
X1649Y670D02*
X1649Y669D01*
X1681Y669D01*
X1681Y670D01*
X1649Y670D01*
G37*
D02*
G36*
X1649Y670D02*
X1649Y669D01*
X1681Y669D01*
X1681Y670D01*
X1649Y670D01*
G37*
D02*
G36*
X1649Y669D02*
X1649Y664D01*
X1661Y664D01*
X1661Y662D01*
X1662Y662D01*
X1662Y660D01*
X1663Y660D01*
X1663Y659D01*
X1664Y659D01*
X1664Y657D01*
X1665Y657D01*
X1665Y655D01*
X1666Y655D01*
X1666Y654D01*
X1667Y654D01*
X1667Y652D01*
X1668Y652D01*
X1668Y650D01*
X1669Y650D01*
X1669Y648D01*
X1670Y648D01*
X1670Y647D01*
X1671Y647D01*
X1671Y645D01*
X1672Y645D01*
X1672Y643D01*
X1673Y643D01*
X1673Y642D01*
X1674Y642D01*
X1674Y640D01*
X1675Y640D01*
X1675Y638D01*
X1676Y638D01*
X1676Y637D01*
X1677Y637D01*
X1677Y636D01*
X1681Y636D01*
X1681Y637D01*
X1682Y637D01*
X1682Y641D01*
X1681Y641D01*
X1681Y643D01*
X1680Y643D01*
X1680Y644D01*
X1679Y644D01*
X1679Y646D01*
X1678Y646D01*
X1678Y648D01*
X1677Y648D01*
X1677Y650D01*
X1676Y650D01*
X1676Y651D01*
X1675Y651D01*
X1675Y653D01*
X1674Y653D01*
X1674Y655D01*
X1673Y655D01*
X1673Y656D01*
X1672Y656D01*
X1672Y658D01*
X1671Y658D01*
X1671Y660D01*
X1670Y660D01*
X1670Y662D01*
X1669Y662D01*
X1669Y664D01*
X1676Y664D01*
X1676Y665D01*
X1678Y665D01*
X1678Y666D01*
X1679Y666D01*
X1679Y667D01*
X1680Y667D01*
X1680Y668D01*
X1681Y668D01*
X1681Y669D01*
X1649Y669D01*
G37*
D02*
G36*
X1649Y664D02*
X1649Y638D01*
X1650Y638D01*
X1650Y637D01*
X1651Y637D01*
X1651Y636D01*
X1655Y636D01*
X1655Y637D01*
X1656Y637D01*
X1656Y664D01*
X1649Y664D01*
G37*
D02*
G36*
X1509Y672D02*
X1509Y662D01*
X1578Y662D01*
X1578Y672D01*
X1509Y672D01*
G37*
D02*
G36*
X1778Y672D02*
X1778Y662D01*
X1828Y662D01*
X1828Y672D01*
X1778Y672D01*
G37*
D02*
G36*
X2374Y652D02*
X2374Y651D01*
X2373Y651D01*
X2373Y626D01*
X2380Y626D01*
X2380Y627D01*
X2379Y627D01*
X2379Y651D01*
X2378Y651D01*
X2378Y652D01*
X2374Y652D01*
G37*
D02*
G36*
X2418Y652D02*
X2418Y627D01*
X2417Y627D01*
X2417Y626D01*
X2424Y626D01*
X2424Y651D01*
X2423Y651D01*
X2423Y652D01*
X2418Y652D01*
G37*
D02*
G36*
X2396Y639D02*
X2396Y638D01*
X2395Y638D01*
X2395Y626D01*
X2402Y626D01*
X2402Y637D01*
X2401Y637D01*
X2401Y639D01*
X2396Y639D01*
G37*
D02*
G36*
X2373Y626D02*
X2373Y625D01*
X2424Y625D01*
X2424Y626D01*
X2373Y626D01*
G37*
D02*
G36*
X2373Y626D02*
X2373Y625D01*
X2424Y625D01*
X2424Y626D01*
X2373Y626D01*
G37*
D02*
G36*
X2373Y626D02*
X2373Y625D01*
X2424Y625D01*
X2424Y626D01*
X2373Y626D01*
G37*
D02*
G36*
X2373Y625D02*
X2373Y620D01*
X2424Y620D01*
X2424Y625D01*
X2373Y625D01*
G37*
D02*
G36*
X2104Y649D02*
X2104Y648D01*
X2103Y648D01*
X2103Y640D01*
X2102Y640D01*
X2102Y639D01*
X2073Y639D01*
X2073Y638D01*
X2072Y638D01*
X2072Y633D01*
X2102Y633D01*
X2102Y632D01*
X2103Y632D01*
X2103Y624D01*
X2104Y624D01*
X2104Y623D01*
X2108Y623D01*
X2108Y624D01*
X2109Y624D01*
X2109Y648D01*
X2108Y648D01*
X2108Y649D01*
X2104Y649D01*
G37*
D02*
G36*
X2072Y633D02*
X2072Y624D01*
X2073Y624D01*
X2073Y623D01*
X2077Y623D01*
X2077Y624D01*
X2078Y624D01*
X2078Y632D01*
X2079Y632D01*
X2079Y633D01*
X2072Y633D01*
G37*
D02*
G36*
X2220Y647D02*
X2220Y646D01*
X2219Y646D01*
X2219Y645D01*
X2218Y645D01*
X2218Y629D01*
X2219Y629D01*
X2219Y626D01*
X2220Y626D01*
X2220Y625D01*
X2221Y625D01*
X2221Y624D01*
X2222Y624D01*
X2222Y623D01*
X2224Y623D01*
X2224Y622D01*
X2226Y622D01*
X2226Y621D01*
X2241Y621D01*
X2241Y622D01*
X2238Y622D01*
X2238Y623D01*
X2236Y623D01*
X2236Y624D01*
X2234Y624D01*
X2234Y625D01*
X2232Y625D01*
X2232Y626D01*
X2230Y626D01*
X2230Y627D01*
X2228Y627D01*
X2228Y628D01*
X2227Y628D01*
X2227Y629D01*
X2225Y629D01*
X2225Y645D01*
X2224Y645D01*
X2224Y646D01*
X2223Y646D01*
X2223Y647D01*
X2220Y647D01*
G37*
D02*
G36*
X2264Y647D02*
X2264Y646D01*
X2263Y646D01*
X2263Y630D01*
X2262Y630D01*
X2262Y629D01*
X2261Y629D01*
X2261Y628D01*
X2259Y628D01*
X2259Y627D01*
X2257Y627D01*
X2257Y626D01*
X2255Y626D01*
X2255Y625D01*
X2253Y625D01*
X2253Y624D01*
X2251Y624D01*
X2251Y623D01*
X2249Y623D01*
X2249Y622D01*
X2247Y622D01*
X2247Y621D01*
X2262Y621D01*
X2262Y622D01*
X2264Y622D01*
X2264Y623D01*
X2266Y623D01*
X2266Y624D01*
X2267Y624D01*
X2267Y626D01*
X2268Y626D01*
X2268Y627D01*
X2269Y627D01*
X2269Y646D01*
X2268Y646D01*
X2268Y647D01*
X2264Y647D01*
G37*
D02*
G36*
X2228Y621D02*
X2228Y620D01*
X2260Y620D01*
X2260Y621D01*
X2228Y621D01*
G37*
D02*
G36*
X2228Y621D02*
X2228Y620D01*
X2260Y620D01*
X2260Y621D01*
X2228Y621D01*
G37*
D02*
G36*
X2230Y620D02*
X2230Y619D01*
X2232Y619D01*
X2232Y618D01*
X2234Y618D01*
X2234Y617D01*
X2236Y617D01*
X2236Y616D01*
X2238Y616D01*
X2238Y615D01*
X2241Y615D01*
X2241Y614D01*
X2247Y614D01*
X2247Y615D01*
X2250Y615D01*
X2250Y616D01*
X2252Y616D01*
X2252Y617D01*
X2254Y617D01*
X2254Y618D01*
X2256Y618D01*
X2256Y619D01*
X2258Y619D01*
X2258Y620D01*
X2230Y620D01*
G37*
D02*
G36*
X1706Y687D02*
X1706Y658D01*
X1725Y658D01*
X1725Y642D01*
X1732Y642D01*
X1732Y660D01*
X1731Y660D01*
X1731Y662D01*
X1730Y662D01*
X1730Y663D01*
X1729Y663D01*
X1729Y664D01*
X1727Y664D01*
X1727Y665D01*
X1712Y665D01*
X1712Y680D01*
X1727Y680D01*
X1727Y681D01*
X1731Y681D01*
X1731Y683D01*
X1732Y683D01*
X1732Y685D01*
X1731Y685D01*
X1731Y686D01*
X1730Y686D01*
X1730Y687D01*
X1706Y687D01*
G37*
D02*
G36*
X1700Y645D02*
X1700Y644D01*
X1699Y644D01*
X1699Y642D01*
X1710Y642D01*
X1710Y643D01*
X1707Y643D01*
X1707Y644D01*
X1705Y644D01*
X1705Y645D01*
X1700Y645D01*
G37*
D02*
G36*
X1699Y642D02*
X1699Y641D01*
X1732Y641D01*
X1732Y642D01*
X1699Y642D01*
G37*
D02*
G36*
X1699Y642D02*
X1699Y641D01*
X1732Y641D01*
X1732Y642D01*
X1699Y642D01*
G37*
D02*
G36*
X1699Y641D02*
X1699Y640D01*
X1700Y640D01*
X1700Y639D01*
X1702Y639D01*
X1702Y638D01*
X1704Y638D01*
X1704Y637D01*
X1707Y637D01*
X1707Y636D01*
X1728Y636D01*
X1728Y637D01*
X1730Y637D01*
X1730Y639D01*
X1731Y639D01*
X1731Y641D01*
X1699Y641D01*
G37*
D02*
G36*
X2056Y639D02*
X2056Y638D01*
X2055Y638D01*
X2055Y631D01*
X2056Y631D01*
X2056Y630D01*
X2063Y630D01*
X2063Y631D01*
X2064Y631D01*
X2064Y638D01*
X2063Y638D01*
X2063Y639D01*
X2056Y639D01*
G37*
D02*
G36*
X2058Y603D02*
X2058Y594D01*
X2059Y594D01*
X2059Y593D01*
X2061Y593D01*
X2061Y592D01*
X2062Y592D01*
X2062Y591D01*
X2064Y591D01*
X2064Y590D01*
X2065Y590D01*
X2065Y589D01*
X2066Y589D01*
X2066Y588D01*
X2068Y588D01*
X2068Y587D01*
X2069Y587D01*
X2069Y586D01*
X2068Y586D01*
X2068Y585D01*
X2067Y585D01*
X2067Y584D01*
X2065Y584D01*
X2065Y583D01*
X2064Y583D01*
X2064Y582D01*
X2062Y582D01*
X2062Y581D01*
X2061Y581D01*
X2061Y580D01*
X2059Y580D01*
X2059Y579D01*
X2058Y579D01*
X2058Y570D01*
X2107Y570D01*
X2107Y571D01*
X2109Y571D01*
X2109Y575D01*
X2108Y575D01*
X2108Y576D01*
X2107Y576D01*
X2107Y577D01*
X2068Y577D01*
X2068Y578D01*
X2070Y578D01*
X2070Y579D01*
X2071Y579D01*
X2071Y580D01*
X2072Y580D01*
X2072Y581D01*
X2074Y581D01*
X2074Y582D01*
X2075Y582D01*
X2075Y583D01*
X2079Y583D01*
X2079Y584D01*
X2081Y584D01*
X2081Y589D01*
X2079Y589D01*
X2079Y590D01*
X2075Y590D01*
X2075Y591D01*
X2074Y591D01*
X2074Y592D01*
X2072Y592D01*
X2072Y593D01*
X2071Y593D01*
X2071Y594D01*
X2070Y594D01*
X2070Y595D01*
X2068Y595D01*
X2068Y596D01*
X2107Y596D01*
X2107Y597D01*
X2108Y597D01*
X2108Y598D01*
X2109Y598D01*
X2109Y602D01*
X2107Y602D01*
X2107Y603D01*
X2058Y603D01*
G37*
D02*
G36*
X2373Y603D02*
X2373Y570D01*
X2383Y570D01*
X2383Y571D01*
X2384Y571D01*
X2384Y572D01*
X2385Y572D01*
X2385Y575D01*
X2384Y575D01*
X2384Y576D01*
X2383Y576D01*
X2383Y577D01*
X2379Y577D01*
X2379Y583D01*
X2422Y583D01*
X2422Y584D01*
X2423Y584D01*
X2423Y585D01*
X2424Y585D01*
X2424Y588D01*
X2423Y588D01*
X2423Y589D01*
X2422Y589D01*
X2422Y590D01*
X2379Y590D01*
X2379Y596D01*
X2383Y596D01*
X2383Y597D01*
X2384Y597D01*
X2384Y598D01*
X2385Y598D01*
X2385Y601D01*
X2384Y601D01*
X2384Y602D01*
X2383Y602D01*
X2383Y603D01*
X2373Y603D01*
G37*
D02*
G36*
X2264Y597D02*
X2264Y596D01*
X2263Y596D01*
X2263Y571D01*
X2219Y571D01*
X2219Y569D01*
X2218Y569D01*
X2218Y566D01*
X2219Y566D01*
X2219Y565D01*
X2269Y565D01*
X2269Y596D01*
X2268Y596D01*
X2268Y597D01*
X2264Y597D01*
G37*
D02*
G36*
X1110Y551D02*
X1110Y291D01*
X1118Y291D01*
X1118Y542D01*
X1119Y542D01*
X1119Y543D01*
X1282Y543D01*
X1282Y551D01*
X1110Y551D01*
G37*
D02*
G36*
X1454Y551D02*
X1454Y543D01*
X1617Y543D01*
X1617Y542D01*
X1618Y542D01*
X1618Y291D01*
X1626Y291D01*
X1626Y550D01*
X1625Y550D01*
X1625Y551D01*
X1454Y551D01*
G37*
D02*
G36*
X1110Y291D02*
X1110Y290D01*
X1626Y290D01*
X1626Y291D01*
X1110Y291D01*
G37*
D02*
G36*
X1110Y291D02*
X1110Y290D01*
X1626Y290D01*
X1626Y291D01*
X1110Y291D01*
G37*
D02*
G36*
X1110Y290D02*
X1110Y283D01*
X1626Y283D01*
X1626Y290D01*
X1110Y290D01*
G37*
D02*
G36*
X497Y448D02*
X497Y435D01*
X505Y435D01*
X505Y432D01*
X506Y432D01*
X506Y430D01*
X507Y430D01*
X507Y428D01*
X508Y428D01*
X508Y426D01*
X509Y426D01*
X509Y423D01*
X510Y423D01*
X510Y421D01*
X511Y421D01*
X511Y419D01*
X512Y419D01*
X512Y416D01*
X513Y416D01*
X513Y414D01*
X514Y414D01*
X514Y412D01*
X515Y412D01*
X515Y410D01*
X522Y410D01*
X522Y413D01*
X521Y413D01*
X521Y415D01*
X520Y415D01*
X520Y417D01*
X519Y417D01*
X519Y419D01*
X518Y419D01*
X518Y422D01*
X517Y422D01*
X517Y424D01*
X516Y424D01*
X516Y426D01*
X515Y426D01*
X515Y429D01*
X514Y429D01*
X514Y431D01*
X513Y431D01*
X513Y433D01*
X512Y433D01*
X512Y435D01*
X511Y435D01*
X511Y438D01*
X510Y438D01*
X510Y440D01*
X509Y440D01*
X509Y442D01*
X508Y442D01*
X508Y444D01*
X507Y444D01*
X507Y447D01*
X506Y447D01*
X506Y448D01*
X497Y448D01*
G37*
D02*
G36*
X524Y448D02*
X524Y446D01*
X523Y446D01*
X523Y410D01*
X530Y410D01*
X530Y446D01*
X529Y446D01*
X529Y448D01*
X524Y448D01*
G37*
D02*
G36*
X497Y435D02*
X497Y399D01*
X498Y399D01*
X498Y398D01*
X499Y398D01*
X499Y397D01*
X502Y397D01*
X502Y398D01*
X503Y398D01*
X503Y399D01*
X504Y399D01*
X504Y435D01*
X497Y435D01*
G37*
D02*
G36*
X516Y410D02*
X516Y409D01*
X530Y409D01*
X530Y410D01*
X516Y410D01*
G37*
D02*
G36*
X516Y410D02*
X516Y409D01*
X530Y409D01*
X530Y410D01*
X516Y410D01*
G37*
D02*
G36*
X516Y409D02*
X516Y407D01*
X517Y407D01*
X517Y405D01*
X518Y405D01*
X518Y403D01*
X519Y403D01*
X519Y401D01*
X520Y401D01*
X520Y398D01*
X521Y398D01*
X521Y397D01*
X530Y397D01*
X530Y409D01*
X516Y409D01*
G37*
D02*
G36*
X548Y448D02*
X548Y447D01*
X547Y447D01*
X547Y442D01*
X573Y442D01*
X573Y429D01*
X571Y429D01*
X571Y428D01*
X570Y428D01*
X570Y427D01*
X569Y427D01*
X569Y426D01*
X568Y426D01*
X568Y425D01*
X567Y425D01*
X567Y424D01*
X566Y424D01*
X566Y423D01*
X564Y423D01*
X564Y422D01*
X563Y422D01*
X563Y421D01*
X562Y421D01*
X562Y420D01*
X561Y420D01*
X561Y419D01*
X560Y419D01*
X560Y398D01*
X561Y398D01*
X561Y397D01*
X565Y397D01*
X565Y398D01*
X566Y398D01*
X566Y415D01*
X567Y415D01*
X567Y416D01*
X568Y416D01*
X568Y417D01*
X569Y417D01*
X569Y418D01*
X570Y418D01*
X570Y419D01*
X571Y419D01*
X571Y420D01*
X572Y420D01*
X572Y421D01*
X573Y421D01*
X573Y422D01*
X575Y422D01*
X575Y423D01*
X576Y423D01*
X576Y424D01*
X577Y424D01*
X577Y425D01*
X578Y425D01*
X578Y426D01*
X579Y426D01*
X579Y439D01*
X580Y439D01*
X580Y448D01*
X548Y448D01*
G37*
D02*
G36*
X547Y442D02*
X547Y440D01*
X548Y440D01*
X548Y439D01*
X552Y439D01*
X552Y440D01*
X553Y440D01*
X553Y442D01*
X547Y442D01*
G37*
D02*
G36*
X599Y448D02*
X599Y447D01*
X598Y447D01*
X598Y420D01*
X605Y420D01*
X605Y446D01*
X604Y446D01*
X604Y447D01*
X603Y447D01*
X603Y448D01*
X599Y448D01*
G37*
D02*
G36*
X620Y443D02*
X620Y442D01*
X618Y442D01*
X618Y421D01*
X617Y421D01*
X617Y420D01*
X624Y420D01*
X624Y441D01*
X623Y441D01*
X623Y442D01*
X622Y442D01*
X622Y443D01*
X620Y443D01*
G37*
D02*
G36*
X598Y420D02*
X598Y419D01*
X626Y419D01*
X626Y420D01*
X598Y420D01*
G37*
D02*
G36*
X598Y420D02*
X598Y419D01*
X626Y419D01*
X626Y420D01*
X598Y420D01*
G37*
D02*
G36*
X598Y419D02*
X598Y414D01*
X617Y414D01*
X617Y413D01*
X618Y413D01*
X618Y398D01*
X619Y398D01*
X619Y397D01*
X623Y397D01*
X623Y398D01*
X624Y398D01*
X624Y414D01*
X626Y414D01*
X626Y415D01*
X627Y415D01*
X627Y419D01*
X598Y419D01*
G37*
D02*
G36*
X647Y448D02*
X647Y447D01*
X646Y447D01*
X646Y426D01*
X653Y426D01*
X653Y446D01*
X652Y446D01*
X652Y448D01*
X647Y448D01*
G37*
D02*
G36*
X673Y448D02*
X673Y446D01*
X672Y446D01*
X672Y426D01*
X679Y426D01*
X679Y446D01*
X678Y446D01*
X678Y448D01*
X673Y448D01*
G37*
D02*
G36*
X646Y426D02*
X646Y425D01*
X679Y425D01*
X679Y426D01*
X646Y426D01*
G37*
D02*
G36*
X646Y426D02*
X646Y425D01*
X679Y425D01*
X679Y426D01*
X646Y426D01*
G37*
D02*
G36*
X646Y425D02*
X646Y419D01*
X672Y419D01*
X672Y399D01*
X673Y399D01*
X673Y398D01*
X674Y398D01*
X674Y397D01*
X677Y397D01*
X677Y398D01*
X678Y398D01*
X678Y399D01*
X679Y399D01*
X679Y425D01*
X646Y425D01*
G37*
D02*
G36*
X646Y419D02*
X646Y399D01*
X647Y399D01*
X647Y398D01*
X648Y398D01*
X648Y397D01*
X651Y397D01*
X651Y398D01*
X652Y398D01*
X652Y399D01*
X653Y399D01*
X653Y419D01*
X646Y419D01*
G37*
D02*
G36*
X709Y448D02*
X709Y447D01*
X707Y447D01*
X707Y446D01*
X706Y446D01*
X706Y445D01*
X705Y445D01*
X705Y444D01*
X704Y444D01*
X704Y442D01*
X703Y442D01*
X703Y440D01*
X702Y440D01*
X702Y438D01*
X701Y438D01*
X701Y436D01*
X700Y436D01*
X700Y434D01*
X699Y434D01*
X699Y432D01*
X698Y432D01*
X698Y430D01*
X697Y430D01*
X697Y428D01*
X696Y428D01*
X696Y418D01*
X697Y418D01*
X697Y415D01*
X698Y415D01*
X698Y413D01*
X699Y413D01*
X699Y411D01*
X700Y411D01*
X700Y409D01*
X701Y409D01*
X701Y407D01*
X702Y407D01*
X702Y405D01*
X703Y405D01*
X703Y403D01*
X704Y403D01*
X704Y402D01*
X705Y402D01*
X705Y400D01*
X706Y400D01*
X706Y399D01*
X708Y399D01*
X708Y398D01*
X710Y398D01*
X710Y397D01*
X727Y397D01*
X727Y398D01*
X728Y398D01*
X728Y403D01*
X726Y403D01*
X726Y404D01*
X711Y404D01*
X711Y405D01*
X710Y405D01*
X710Y406D01*
X709Y406D01*
X709Y408D01*
X708Y408D01*
X708Y410D01*
X707Y410D01*
X707Y412D01*
X706Y412D01*
X706Y414D01*
X705Y414D01*
X705Y416D01*
X704Y416D01*
X704Y418D01*
X703Y418D01*
X703Y421D01*
X702Y421D01*
X702Y424D01*
X703Y424D01*
X703Y427D01*
X704Y427D01*
X704Y429D01*
X705Y429D01*
X705Y431D01*
X706Y431D01*
X706Y433D01*
X707Y433D01*
X707Y435D01*
X708Y435D01*
X708Y437D01*
X709Y437D01*
X709Y439D01*
X710Y439D01*
X710Y441D01*
X712Y441D01*
X712Y442D01*
X727Y442D01*
X727Y443D01*
X728Y443D01*
X728Y447D01*
X727Y447D01*
X727Y448D01*
X709Y448D01*
G37*
D02*
G36*
X746Y448D02*
X746Y446D01*
X745Y446D01*
X745Y444D01*
X746Y444D01*
X746Y443D01*
X747Y443D01*
X747Y442D01*
X758Y442D01*
X758Y404D01*
X765Y404D01*
X765Y448D01*
X746Y448D01*
G37*
D02*
G36*
X773Y420D02*
X773Y419D01*
X772Y419D01*
X772Y417D01*
X771Y417D01*
X771Y404D01*
X778Y404D01*
X778Y419D01*
X777Y419D01*
X777Y420D01*
X773Y420D01*
G37*
D02*
G36*
X748Y404D02*
X748Y403D01*
X778Y403D01*
X778Y404D01*
X748Y404D01*
G37*
D02*
G36*
X748Y404D02*
X748Y403D01*
X778Y403D01*
X778Y404D01*
X748Y404D01*
G37*
D02*
G36*
X746Y403D02*
X746Y401D01*
X745Y401D01*
X745Y399D01*
X746Y399D01*
X746Y398D01*
X747Y398D01*
X747Y397D01*
X777Y397D01*
X777Y398D01*
X778Y398D01*
X778Y403D01*
X746Y403D01*
G37*
D02*
G36*
X798Y448D02*
X798Y447D01*
X797Y447D01*
X797Y420D01*
X804Y420D01*
X804Y421D01*
X803Y421D01*
X803Y447D01*
X802Y447D01*
X802Y448D01*
X798Y448D01*
G37*
D02*
G36*
X818Y443D02*
X818Y442D01*
X817Y442D01*
X817Y441D01*
X816Y441D01*
X816Y420D01*
X823Y420D01*
X823Y441D01*
X822Y441D01*
X822Y442D01*
X821Y442D01*
X821Y443D01*
X818Y443D01*
G37*
D02*
G36*
X797Y420D02*
X797Y419D01*
X825Y419D01*
X825Y420D01*
X797Y420D01*
G37*
D02*
G36*
X797Y420D02*
X797Y419D01*
X825Y419D01*
X825Y420D01*
X797Y420D01*
G37*
D02*
G36*
X797Y419D02*
X797Y414D01*
X816Y414D01*
X816Y399D01*
X817Y399D01*
X817Y398D01*
X818Y398D01*
X818Y397D01*
X821Y397D01*
X821Y398D01*
X822Y398D01*
X822Y399D01*
X823Y399D01*
X823Y414D01*
X825Y414D01*
X825Y415D01*
X826Y415D01*
X826Y419D01*
X797Y419D01*
G37*
D02*
G36*
X451Y448D02*
X451Y447D01*
X450Y447D01*
X450Y446D01*
X449Y446D01*
X449Y445D01*
X448Y445D01*
X448Y442D01*
X472Y442D01*
X472Y441D01*
X473Y441D01*
X473Y440D01*
X474Y440D01*
X474Y437D01*
X475Y437D01*
X475Y436D01*
X478Y436D01*
X478Y437D01*
X480Y437D01*
X480Y443D01*
X479Y443D01*
X479Y445D01*
X478Y445D01*
X478Y446D01*
X477Y446D01*
X477Y447D01*
X475Y447D01*
X475Y448D01*
X451Y448D01*
G37*
D02*
G36*
X447Y442D02*
X447Y440D01*
X448Y440D01*
X448Y437D01*
X449Y437D01*
X449Y436D01*
X450Y436D01*
X450Y434D01*
X451Y434D01*
X451Y433D01*
X452Y433D01*
X452Y432D01*
X453Y432D01*
X453Y430D01*
X454Y430D01*
X454Y429D01*
X455Y429D01*
X455Y428D01*
X456Y428D01*
X456Y427D01*
X457Y427D01*
X457Y425D01*
X458Y425D01*
X458Y424D01*
X459Y424D01*
X459Y423D01*
X460Y423D01*
X460Y421D01*
X461Y421D01*
X461Y420D01*
X462Y420D01*
X462Y419D01*
X463Y419D01*
X463Y418D01*
X464Y418D01*
X464Y416D01*
X465Y416D01*
X465Y415D01*
X466Y415D01*
X466Y414D01*
X467Y414D01*
X467Y413D01*
X468Y413D01*
X468Y411D01*
X469Y411D01*
X469Y410D01*
X470Y410D01*
X470Y409D01*
X471Y409D01*
X471Y407D01*
X472Y407D01*
X472Y406D01*
X473Y406D01*
X473Y404D01*
X480Y404D01*
X480Y408D01*
X479Y408D01*
X479Y409D01*
X478Y409D01*
X478Y410D01*
X477Y410D01*
X477Y412D01*
X476Y412D01*
X476Y413D01*
X475Y413D01*
X475Y414D01*
X474Y414D01*
X474Y416D01*
X473Y416D01*
X473Y417D01*
X472Y417D01*
X472Y418D01*
X471Y418D01*
X471Y419D01*
X470Y419D01*
X470Y421D01*
X469Y421D01*
X469Y422D01*
X468Y422D01*
X468Y423D01*
X467Y423D01*
X467Y425D01*
X466Y425D01*
X466Y426D01*
X465Y426D01*
X465Y427D01*
X464Y427D01*
X464Y428D01*
X463Y428D01*
X463Y430D01*
X462Y430D01*
X462Y431D01*
X461Y431D01*
X461Y432D01*
X460Y432D01*
X460Y434D01*
X459Y434D01*
X459Y435D01*
X458Y435D01*
X458Y436D01*
X457Y436D01*
X457Y437D01*
X456Y437D01*
X456Y439D01*
X455Y439D01*
X455Y440D01*
X454Y440D01*
X454Y442D01*
X447Y442D01*
G37*
D02*
G36*
X449Y409D02*
X449Y408D01*
X448Y408D01*
X448Y407D01*
X447Y407D01*
X447Y405D01*
X448Y405D01*
X448Y404D01*
X455Y404D01*
X455Y405D01*
X454Y405D01*
X454Y408D01*
X453Y408D01*
X453Y409D01*
X449Y409D01*
G37*
D02*
G36*
X448Y404D02*
X448Y403D01*
X480Y403D01*
X480Y404D01*
X448Y404D01*
G37*
D02*
G36*
X448Y404D02*
X448Y403D01*
X480Y403D01*
X480Y404D01*
X448Y404D01*
G37*
D02*
G36*
X448Y403D02*
X448Y402D01*
X449Y402D01*
X449Y400D01*
X450Y400D01*
X450Y399D01*
X451Y399D01*
X451Y398D01*
X453Y398D01*
X453Y397D01*
X475Y397D01*
X475Y398D01*
X477Y398D01*
X477Y399D01*
X478Y399D01*
X478Y400D01*
X479Y400D01*
X479Y401D01*
X480Y401D01*
X480Y403D01*
X448Y403D01*
G37*
D02*
G36*
X1133Y238D02*
X1133Y231D01*
X1158Y231D01*
X1158Y230D01*
X1159Y230D01*
X1159Y223D01*
X1158Y223D01*
X1158Y222D01*
X1157Y222D01*
X1157Y221D01*
X1165Y221D01*
X1165Y222D01*
X1166Y222D01*
X1166Y231D01*
X1165Y231D01*
X1165Y233D01*
X1164Y233D01*
X1164Y235D01*
X1163Y235D01*
X1163Y236D01*
X1161Y236D01*
X1161Y237D01*
X1159Y237D01*
X1159Y238D01*
X1133Y238D01*
G37*
D02*
G36*
X1133Y231D02*
X1133Y221D01*
X1140Y221D01*
X1140Y231D01*
X1133Y231D01*
G37*
D02*
G36*
X1133Y221D02*
X1133Y220D01*
X1165Y220D01*
X1165Y221D01*
X1133Y221D01*
G37*
D02*
G36*
X1133Y221D02*
X1133Y220D01*
X1165Y220D01*
X1165Y221D01*
X1133Y221D01*
G37*
D02*
G36*
X1133Y220D02*
X1133Y215D01*
X1144Y215D01*
X1144Y214D01*
X1145Y214D01*
X1145Y213D01*
X1146Y213D01*
X1146Y211D01*
X1147Y211D01*
X1147Y209D01*
X1148Y209D01*
X1148Y207D01*
X1149Y207D01*
X1149Y206D01*
X1150Y206D01*
X1150Y204D01*
X1151Y204D01*
X1151Y202D01*
X1152Y202D01*
X1152Y201D01*
X1153Y201D01*
X1153Y199D01*
X1154Y199D01*
X1154Y197D01*
X1155Y197D01*
X1155Y195D01*
X1156Y195D01*
X1156Y194D01*
X1157Y194D01*
X1157Y192D01*
X1158Y192D01*
X1158Y190D01*
X1159Y190D01*
X1159Y189D01*
X1160Y189D01*
X1160Y187D01*
X1165Y187D01*
X1165Y189D01*
X1166Y189D01*
X1166Y191D01*
X1165Y191D01*
X1165Y193D01*
X1164Y193D01*
X1164Y195D01*
X1163Y195D01*
X1163Y197D01*
X1162Y197D01*
X1162Y198D01*
X1161Y198D01*
X1161Y200D01*
X1160Y200D01*
X1160Y202D01*
X1159Y202D01*
X1159Y203D01*
X1158Y203D01*
X1158Y205D01*
X1157Y205D01*
X1157Y207D01*
X1156Y207D01*
X1156Y209D01*
X1155Y209D01*
X1155Y210D01*
X1154Y210D01*
X1154Y212D01*
X1153Y212D01*
X1153Y214D01*
X1152Y214D01*
X1152Y215D01*
X1160Y215D01*
X1160Y216D01*
X1162Y216D01*
X1162Y217D01*
X1163Y217D01*
X1163Y218D01*
X1164Y218D01*
X1164Y220D01*
X1133Y220D01*
G37*
D02*
G36*
X1133Y215D02*
X1133Y188D01*
X1134Y188D01*
X1134Y187D01*
X1138Y187D01*
X1138Y188D01*
X1139Y188D01*
X1139Y189D01*
X1140Y189D01*
X1140Y215D01*
X1133Y215D01*
G37*
D02*
G36*
X1282Y238D02*
X1282Y187D01*
X1314Y187D01*
X1314Y189D01*
X1315Y189D01*
X1315Y191D01*
X1314Y191D01*
X1314Y193D01*
X1289Y193D01*
X1289Y209D01*
X1300Y209D01*
X1300Y210D01*
X1301Y210D01*
X1301Y211D01*
X1302Y211D01*
X1302Y214D01*
X1301Y214D01*
X1301Y215D01*
X1300Y215D01*
X1300Y216D01*
X1289Y216D01*
X1289Y231D01*
X1312Y231D01*
X1312Y232D01*
X1314Y232D01*
X1314Y233D01*
X1315Y233D01*
X1315Y236D01*
X1314Y236D01*
X1314Y237D01*
X1313Y237D01*
X1313Y238D01*
X1282Y238D01*
G37*
D02*
G36*
X1240Y235D02*
X1240Y234D01*
X1239Y234D01*
X1239Y224D01*
X1234Y224D01*
X1234Y223D01*
X1233Y223D01*
X1233Y222D01*
X1232Y222D01*
X1232Y220D01*
X1233Y220D01*
X1233Y218D01*
X1236Y218D01*
X1236Y217D01*
X1239Y217D01*
X1239Y193D01*
X1248Y193D01*
X1248Y194D01*
X1246Y194D01*
X1246Y217D01*
X1259Y217D01*
X1259Y218D01*
X1261Y218D01*
X1261Y219D01*
X1262Y219D01*
X1262Y222D01*
X1261Y222D01*
X1261Y223D01*
X1260Y223D01*
X1260Y224D01*
X1246Y224D01*
X1246Y232D01*
X1245Y232D01*
X1245Y234D01*
X1244Y234D01*
X1244Y235D01*
X1240Y235D01*
G37*
D02*
G36*
X1260Y199D02*
X1260Y198D01*
X1259Y198D01*
X1259Y196D01*
X1258Y196D01*
X1258Y194D01*
X1256Y194D01*
X1256Y193D01*
X1265Y193D01*
X1265Y198D01*
X1263Y198D01*
X1263Y199D01*
X1260Y199D01*
G37*
D02*
G36*
X1240Y193D02*
X1240Y192D01*
X1264Y192D01*
X1264Y193D01*
X1240Y193D01*
G37*
D02*
G36*
X1240Y193D02*
X1240Y192D01*
X1264Y192D01*
X1264Y193D01*
X1240Y193D01*
G37*
D02*
G36*
X1240Y192D02*
X1240Y191D01*
X1241Y191D01*
X1241Y190D01*
X1242Y190D01*
X1242Y189D01*
X1243Y189D01*
X1243Y188D01*
X1245Y188D01*
X1245Y187D01*
X1259Y187D01*
X1259Y188D01*
X1261Y188D01*
X1261Y189D01*
X1262Y189D01*
X1262Y190D01*
X1263Y190D01*
X1263Y191D01*
X1264Y191D01*
X1264Y192D01*
X1240Y192D01*
G37*
D02*
G36*
X1192Y224D02*
X1192Y223D01*
X1190Y223D01*
X1190Y222D01*
X1188Y222D01*
X1188Y221D01*
X1187Y221D01*
X1187Y220D01*
X1186Y220D01*
X1186Y219D01*
X1185Y219D01*
X1185Y218D01*
X1184Y218D01*
X1184Y217D01*
X1206Y217D01*
X1206Y216D01*
X1207Y216D01*
X1207Y215D01*
X1208Y215D01*
X1208Y214D01*
X1209Y214D01*
X1209Y197D01*
X1208Y197D01*
X1208Y196D01*
X1207Y196D01*
X1207Y195D01*
X1206Y195D01*
X1206Y194D01*
X1204Y194D01*
X1204Y193D01*
X1214Y193D01*
X1214Y194D01*
X1215Y194D01*
X1215Y199D01*
X1216Y199D01*
X1216Y212D01*
X1215Y212D01*
X1215Y217D01*
X1214Y217D01*
X1214Y218D01*
X1213Y218D01*
X1213Y219D01*
X1212Y219D01*
X1212Y220D01*
X1211Y220D01*
X1211Y221D01*
X1210Y221D01*
X1210Y222D01*
X1209Y222D01*
X1209Y223D01*
X1207Y223D01*
X1207Y224D01*
X1192Y224D01*
G37*
D02*
G36*
X1184Y217D02*
X1184Y216D01*
X1183Y216D01*
X1183Y195D01*
X1184Y195D01*
X1184Y193D01*
X1194Y193D01*
X1194Y194D01*
X1192Y194D01*
X1192Y195D01*
X1191Y195D01*
X1191Y196D01*
X1190Y196D01*
X1190Y198D01*
X1189Y198D01*
X1189Y213D01*
X1190Y213D01*
X1190Y215D01*
X1191Y215D01*
X1191Y216D01*
X1193Y216D01*
X1193Y217D01*
X1184Y217D01*
G37*
D02*
G36*
X1185Y193D02*
X1185Y192D01*
X1213Y192D01*
X1213Y193D01*
X1185Y193D01*
G37*
D02*
G36*
X1185Y193D02*
X1185Y192D01*
X1213Y192D01*
X1213Y193D01*
X1185Y193D01*
G37*
D02*
G36*
X1186Y192D02*
X1186Y191D01*
X1187Y191D01*
X1187Y190D01*
X1188Y190D01*
X1188Y189D01*
X1189Y189D01*
X1189Y188D01*
X1191Y188D01*
X1191Y187D01*
X1207Y187D01*
X1207Y188D01*
X1209Y188D01*
X1209Y189D01*
X1210Y189D01*
X1210Y190D01*
X1211Y190D01*
X1211Y191D01*
X1212Y191D01*
X1212Y192D01*
X1186Y192D01*
G37*
D02*
G36*
X1333Y224D02*
X1333Y223D01*
X1332Y223D01*
X1332Y219D01*
X1338Y219D01*
X1338Y223D01*
X1337Y223D01*
X1337Y224D01*
X1333Y224D01*
G37*
D02*
G36*
X1347Y224D02*
X1347Y223D01*
X1345Y223D01*
X1345Y222D01*
X1343Y222D01*
X1343Y221D01*
X1341Y221D01*
X1341Y220D01*
X1340Y220D01*
X1340Y219D01*
X1362Y219D01*
X1362Y220D01*
X1361Y220D01*
X1361Y221D01*
X1360Y221D01*
X1360Y222D01*
X1359Y222D01*
X1359Y223D01*
X1357Y223D01*
X1357Y224D01*
X1347Y224D01*
G37*
D02*
G36*
X1332Y219D02*
X1332Y218D01*
X1363Y218D01*
X1363Y219D01*
X1332Y219D01*
G37*
D02*
G36*
X1332Y219D02*
X1332Y218D01*
X1363Y218D01*
X1363Y219D01*
X1332Y219D01*
G37*
D02*
G36*
X1332Y218D02*
X1332Y217D01*
X1356Y217D01*
X1356Y216D01*
X1357Y216D01*
X1357Y199D01*
X1358Y199D01*
X1358Y188D01*
X1359Y188D01*
X1359Y187D01*
X1363Y187D01*
X1363Y188D01*
X1364Y188D01*
X1364Y216D01*
X1363Y216D01*
X1363Y218D01*
X1332Y218D01*
G37*
D02*
G36*
X1332Y217D02*
X1332Y188D01*
X1333Y188D01*
X1333Y187D01*
X1337Y187D01*
X1337Y188D01*
X1338Y188D01*
X1338Y211D01*
X1340Y211D01*
X1340Y212D01*
X1341Y212D01*
X1341Y213D01*
X1343Y213D01*
X1343Y214D01*
X1344Y214D01*
X1344Y215D01*
X1346Y215D01*
X1346Y216D01*
X1348Y216D01*
X1348Y217D01*
X1332Y217D01*
G37*
D02*
G36*
X1393Y224D02*
X1393Y223D01*
X1391Y223D01*
X1391Y222D01*
X1390Y222D01*
X1390Y221D01*
X1389Y221D01*
X1389Y220D01*
X1388Y220D01*
X1388Y219D01*
X1387Y219D01*
X1387Y218D01*
X1385Y218D01*
X1385Y217D01*
X1384Y217D01*
X1384Y216D01*
X1383Y216D01*
X1383Y214D01*
X1382Y214D01*
X1382Y211D01*
X1381Y211D01*
X1381Y200D01*
X1382Y200D01*
X1382Y197D01*
X1383Y197D01*
X1383Y195D01*
X1384Y195D01*
X1384Y194D01*
X1385Y194D01*
X1385Y193D01*
X1386Y193D01*
X1386Y192D01*
X1388Y192D01*
X1388Y191D01*
X1389Y191D01*
X1389Y190D01*
X1390Y190D01*
X1390Y189D01*
X1391Y189D01*
X1391Y188D01*
X1393Y188D01*
X1393Y187D01*
X1413Y187D01*
X1413Y188D01*
X1414Y188D01*
X1414Y192D01*
X1413Y192D01*
X1413Y193D01*
X1396Y193D01*
X1396Y194D01*
X1394Y194D01*
X1394Y195D01*
X1393Y195D01*
X1393Y196D01*
X1392Y196D01*
X1392Y197D01*
X1391Y197D01*
X1391Y198D01*
X1390Y198D01*
X1390Y199D01*
X1389Y199D01*
X1389Y200D01*
X1388Y200D01*
X1388Y211D01*
X1389Y211D01*
X1389Y212D01*
X1390Y212D01*
X1390Y213D01*
X1391Y213D01*
X1391Y214D01*
X1392Y214D01*
X1392Y215D01*
X1393Y215D01*
X1393Y216D01*
X1395Y216D01*
X1395Y217D01*
X1409Y217D01*
X1409Y218D01*
X1413Y218D01*
X1413Y219D01*
X1414Y219D01*
X1414Y223D01*
X1413Y223D01*
X1413Y224D01*
X1393Y224D01*
G37*
D02*
G36*
X1440Y224D02*
X1440Y223D01*
X1438Y223D01*
X1438Y222D01*
X1437Y222D01*
X1437Y221D01*
X1435Y221D01*
X1435Y220D01*
X1434Y220D01*
X1434Y219D01*
X1433Y219D01*
X1433Y217D01*
X1454Y217D01*
X1454Y216D01*
X1455Y216D01*
X1455Y215D01*
X1456Y215D01*
X1456Y214D01*
X1457Y214D01*
X1457Y197D01*
X1456Y197D01*
X1456Y196D01*
X1455Y196D01*
X1455Y195D01*
X1454Y195D01*
X1454Y194D01*
X1452Y194D01*
X1452Y193D01*
X1462Y193D01*
X1462Y194D01*
X1463Y194D01*
X1463Y196D01*
X1464Y196D01*
X1464Y214D01*
X1463Y214D01*
X1463Y217D01*
X1462Y217D01*
X1462Y218D01*
X1461Y218D01*
X1461Y220D01*
X1459Y220D01*
X1459Y221D01*
X1458Y221D01*
X1458Y222D01*
X1457Y222D01*
X1457Y223D01*
X1455Y223D01*
X1455Y224D01*
X1440Y224D01*
G37*
D02*
G36*
X1432Y217D02*
X1432Y215D01*
X1431Y215D01*
X1431Y196D01*
X1432Y196D01*
X1432Y193D01*
X1442Y193D01*
X1442Y194D01*
X1441Y194D01*
X1441Y195D01*
X1440Y195D01*
X1440Y196D01*
X1438Y196D01*
X1438Y214D01*
X1439Y214D01*
X1439Y215D01*
X1440Y215D01*
X1440Y216D01*
X1441Y216D01*
X1441Y217D01*
X1432Y217D01*
G37*
D02*
G36*
X1433Y193D02*
X1433Y192D01*
X1462Y192D01*
X1462Y193D01*
X1433Y193D01*
G37*
D02*
G36*
X1433Y193D02*
X1433Y192D01*
X1462Y192D01*
X1462Y193D01*
X1433Y193D01*
G37*
D02*
G36*
X1434Y192D02*
X1434Y191D01*
X1435Y191D01*
X1435Y190D01*
X1436Y190D01*
X1436Y189D01*
X1438Y189D01*
X1438Y188D01*
X1439Y188D01*
X1439Y187D01*
X1455Y187D01*
X1455Y188D01*
X1457Y188D01*
X1457Y189D01*
X1458Y189D01*
X1458Y190D01*
X1460Y190D01*
X1460Y191D01*
X1461Y191D01*
X1461Y192D01*
X1434Y192D01*
G37*
D02*
G36*
X1508Y238D02*
X1508Y237D01*
X1507Y237D01*
X1507Y220D01*
X1513Y220D01*
X1513Y237D01*
X1512Y237D01*
X1512Y238D01*
X1508Y238D01*
G37*
D02*
G36*
X1489Y224D02*
X1489Y223D01*
X1487Y223D01*
X1487Y222D01*
X1486Y222D01*
X1486Y221D01*
X1485Y221D01*
X1485Y220D01*
X1506Y220D01*
X1506Y221D01*
X1505Y221D01*
X1505Y222D01*
X1503Y222D01*
X1503Y223D01*
X1501Y223D01*
X1501Y224D01*
X1489Y224D01*
G37*
D02*
G36*
X1484Y220D02*
X1484Y219D01*
X1513Y219D01*
X1513Y220D01*
X1484Y220D01*
G37*
D02*
G36*
X1484Y220D02*
X1484Y219D01*
X1513Y219D01*
X1513Y220D01*
X1484Y220D01*
G37*
D02*
G36*
X1483Y219D02*
X1483Y218D01*
X1482Y218D01*
X1482Y217D01*
X1500Y217D01*
X1500Y216D01*
X1501Y216D01*
X1501Y215D01*
X1503Y215D01*
X1503Y214D01*
X1504Y214D01*
X1504Y213D01*
X1505Y213D01*
X1505Y212D01*
X1506Y212D01*
X1506Y211D01*
X1507Y211D01*
X1507Y200D01*
X1506Y200D01*
X1506Y199D01*
X1505Y199D01*
X1505Y198D01*
X1504Y198D01*
X1504Y197D01*
X1503Y197D01*
X1503Y196D01*
X1502Y196D01*
X1502Y195D01*
X1500Y195D01*
X1500Y194D01*
X1499Y194D01*
X1499Y193D01*
X1513Y193D01*
X1513Y219D01*
X1483Y219D01*
G37*
D02*
G36*
X1482Y217D02*
X1482Y216D01*
X1481Y216D01*
X1481Y195D01*
X1482Y195D01*
X1482Y193D01*
X1492Y193D01*
X1492Y194D01*
X1490Y194D01*
X1490Y195D01*
X1489Y195D01*
X1489Y196D01*
X1488Y196D01*
X1488Y198D01*
X1487Y198D01*
X1487Y213D01*
X1488Y213D01*
X1488Y215D01*
X1489Y215D01*
X1489Y216D01*
X1491Y216D01*
X1491Y217D01*
X1482Y217D01*
G37*
D02*
G36*
X1483Y193D02*
X1483Y192D01*
X1513Y192D01*
X1513Y193D01*
X1483Y193D01*
G37*
D02*
G36*
X1483Y193D02*
X1483Y192D01*
X1513Y192D01*
X1513Y193D01*
X1483Y193D01*
G37*
D02*
G36*
X1484Y192D02*
X1484Y191D01*
X1507Y191D01*
X1507Y188D01*
X1508Y188D01*
X1508Y187D01*
X1512Y187D01*
X1512Y188D01*
X1513Y188D01*
X1513Y192D01*
X1484Y192D01*
G37*
D02*
G36*
X1485Y191D02*
X1485Y190D01*
X1486Y190D01*
X1486Y189D01*
X1487Y189D01*
X1487Y188D01*
X1489Y188D01*
X1489Y187D01*
X1502Y187D01*
X1502Y188D01*
X1503Y188D01*
X1503Y189D01*
X1505Y189D01*
X1505Y190D01*
X1506Y190D01*
X1506Y191D01*
X1485Y191D01*
G37*
D02*
G36*
X1539Y224D02*
X1539Y223D01*
X1537Y223D01*
X1537Y222D01*
X1536Y222D01*
X1536Y221D01*
X1535Y221D01*
X1535Y220D01*
X1534Y220D01*
X1534Y219D01*
X1533Y219D01*
X1533Y218D01*
X1532Y218D01*
X1532Y217D01*
X1553Y217D01*
X1553Y216D01*
X1554Y216D01*
X1554Y215D01*
X1555Y215D01*
X1555Y214D01*
X1556Y214D01*
X1556Y207D01*
X1563Y207D01*
X1563Y216D01*
X1562Y216D01*
X1562Y218D01*
X1561Y218D01*
X1561Y219D01*
X1560Y219D01*
X1560Y220D01*
X1559Y220D01*
X1559Y221D01*
X1558Y221D01*
X1558Y222D01*
X1556Y222D01*
X1556Y223D01*
X1554Y223D01*
X1554Y224D01*
X1539Y224D01*
G37*
D02*
G36*
X1531Y217D02*
X1531Y214D01*
X1530Y214D01*
X1530Y207D01*
X1537Y207D01*
X1537Y214D01*
X1538Y214D01*
X1538Y215D01*
X1539Y215D01*
X1539Y216D01*
X1540Y216D01*
X1540Y217D01*
X1531Y217D01*
G37*
D02*
G36*
X1530Y207D02*
X1530Y206D01*
X1563Y206D01*
X1563Y207D01*
X1530Y207D01*
G37*
D02*
G36*
X1530Y207D02*
X1530Y206D01*
X1563Y206D01*
X1563Y207D01*
X1530Y207D01*
G37*
D02*
G36*
X1530Y206D02*
X1530Y197D01*
X1531Y197D01*
X1531Y194D01*
X1532Y194D01*
X1532Y192D01*
X1533Y192D01*
X1533Y191D01*
X1535Y191D01*
X1535Y190D01*
X1536Y190D01*
X1536Y189D01*
X1537Y189D01*
X1537Y188D01*
X1539Y188D01*
X1539Y187D01*
X1562Y187D01*
X1562Y188D01*
X1563Y188D01*
X1563Y192D01*
X1562Y192D01*
X1562Y193D01*
X1542Y193D01*
X1542Y194D01*
X1540Y194D01*
X1540Y195D01*
X1539Y195D01*
X1539Y196D01*
X1538Y196D01*
X1538Y197D01*
X1537Y197D01*
X1537Y201D01*
X1562Y201D01*
X1562Y202D01*
X1563Y202D01*
X1563Y206D01*
X1530Y206D01*
G37*
D02*
G36*
X1581Y224D02*
X1581Y223D01*
X1580Y223D01*
X1580Y218D01*
X1587Y218D01*
X1587Y221D01*
X1586Y221D01*
X1586Y223D01*
X1585Y223D01*
X1585Y224D01*
X1581Y224D01*
G37*
D02*
G36*
X1594Y224D02*
X1594Y223D01*
X1593Y223D01*
X1593Y222D01*
X1592Y222D01*
X1592Y221D01*
X1591Y221D01*
X1591Y220D01*
X1590Y220D01*
X1590Y219D01*
X1589Y219D01*
X1589Y218D01*
X1612Y218D01*
X1612Y219D01*
X1611Y219D01*
X1611Y220D01*
X1610Y220D01*
X1610Y222D01*
X1608Y222D01*
X1608Y223D01*
X1606Y223D01*
X1606Y224D01*
X1594Y224D01*
G37*
D02*
G36*
X1580Y218D02*
X1580Y217D01*
X1612Y217D01*
X1612Y218D01*
X1580Y218D01*
G37*
D02*
G36*
X1580Y218D02*
X1580Y217D01*
X1612Y217D01*
X1612Y218D01*
X1580Y218D01*
G37*
D02*
G36*
X1580Y217D02*
X1580Y188D01*
X1581Y188D01*
X1581Y187D01*
X1585Y187D01*
X1585Y188D01*
X1586Y188D01*
X1586Y190D01*
X1587Y190D01*
X1587Y209D01*
X1588Y209D01*
X1588Y210D01*
X1589Y210D01*
X1589Y211D01*
X1591Y211D01*
X1591Y212D01*
X1592Y212D01*
X1592Y213D01*
X1593Y213D01*
X1593Y214D01*
X1594Y214D01*
X1594Y215D01*
X1595Y215D01*
X1595Y216D01*
X1596Y216D01*
X1596Y217D01*
X1580Y217D01*
G37*
D02*
G36*
X1605Y217D02*
X1605Y216D01*
X1606Y216D01*
X1606Y211D01*
X1607Y211D01*
X1607Y210D01*
X1608Y210D01*
X1608Y209D01*
X1611Y209D01*
X1611Y210D01*
X1612Y210D01*
X1612Y211D01*
X1613Y211D01*
X1613Y216D01*
X1612Y216D01*
X1612Y217D01*
X1605Y217D01*
G37*
D02*
G04 End of Silk1*
M02*